<svg width="26" height="26" viewBox="0 0 26 26" fill="none" xmlns="http://www.w3.org/2000/svg">
<g clip-path="url(#clip0_1717_1330)">
<path fill-rule="evenodd" clip-rule="evenodd" d="M0.999634 24.8748C0.999634 25.4353 1.44153 25.8951 1.98134 25.8951H7.07368L8.17106 25.0691L9.28475 25.8951H11.7004L12.5294 25.0691L13.3598 25.8951H14.1902L15.0206 25.0691L15.8511 25.8951H18.6197C19.1595 25.8951 19.6014 25.4353 19.6014 24.8748V23.8441V23.509L10.0548 21.7344L0.999634 23.509V24.8748Z" fill="#7E707D"/>
<path fill-rule="evenodd" clip-rule="evenodd" d="M13.3978 4.43811L19.1785 2.91076C19.223 2.91076 19.266 2.90335 19.3075 2.89299C19.5018 2.83662 19.6442 2.65574 19.6442 2.44515V0.57066C19.6442 0.314113 19.4351 0.104996 19.1786 0.104996H6.86435C6.60781 0.104996 6.39722 0.314113 6.39722 0.57066V2.26122L13.3978 4.43811Z" fill="#F5A96C"/>
<path fill-rule="evenodd" clip-rule="evenodd" d="M0.465613 5.06706L6.62345 7.03271L12.7813 5.06706C12.8243 5.06706 12.8688 5.06112 12.9088 5.04929C13.103 4.99292 13.2469 4.81351 13.2469 4.60145V2.91084V2.72696C13.2469 2.47041 13.0363 2.26129 12.7813 2.26129H6.39732H0.465613C0.209066 2.26129 0 2.47041 0 2.72696V4.60145C0 4.84911 0.197234 5.05376 0.441898 5.06711H0.465613V5.06706Z" fill="#FFBC85"/>
<path fill-rule="evenodd" clip-rule="evenodd" d="M20.587 22.0306V23.509H6.24728C4.36868 22.651 3.15815 22.1159 1.31667 19.2308C1.41554 17.2235 1.42392 15.2868 1.31566 13.1917C1.30677 13.0211 1.29733 12.8495 1.28686 12.6764C1.27534 12.4901 1.2633 12.3023 1.25025 12.113C1.10481 10.0188 0.844306 7.73953 0.442017 5.06732H12.7813C12.8258 5.06732 12.8686 5.06102 12.909 5.04955C13.2469 5.55385 17.2029 15.6468 20.5515 21.3532C20.5688 21.3825 20.5588 21.4227 20.562 21.4583C20.5782 21.6361 20.587 21.826 20.587 22.0306Z" fill="#FDE588"/>
<path fill-rule="evenodd" clip-rule="evenodd" d="M1.31697 19.2309C1.25024 20.6011 1.14197 22.0025 0.999634 23.5092H6.24767C5.73016 21.2892 3.8409 19.2309 1.31697 19.2309Z" fill="#FFBC85"/>
<path fill-rule="evenodd" clip-rule="evenodd" d="M25.9999 19.8742V21.4583L22.7879 22.6513L19.5757 21.4583C19.5731 21.4227 19.57 21.3887 19.5653 21.3542C19.5653 21.3531 19.5653 21.3531 19.5653 21.3531C19.0955 17.2156 14.1053 20.4942 12.3689 17.2093C11.9431 16.4042 11.761 14.7375 11.8694 12.4728C11.8966 11.9162 11.94 11.324 12.0028 10.6983C12.0153 10.5728 12.0284 10.4461 12.0425 10.318C12.0571 10.1851 12.0723 10.0512 12.088 9.91571C12.2638 8.44148 12.5353 6.80826 12.9088 5.0657C13.1029 5.00918 13.2467 4.82977 13.2467 4.61791V2.92872H19.1786C19.2231 2.92872 19.266 2.92298 19.3073 2.91095C18.7402 5.55543 18.4101 7.94408 18.2898 9.91683C18.2814 10.0523 18.2741 10.1862 18.2678 10.3181C18.2615 10.4478 18.2563 10.5749 18.2521 10.7005C18.181 12.7705 18.3662 14.2955 18.7674 15.0551C20.5901 18.5025 25.9999 14.7181 25.9999 19.8742Z" fill="#FDE588"/>
<path fill-rule="evenodd" clip-rule="evenodd" d="M17.9313 25.8953H18.6194C19.1592 25.8953 19.6011 25.4356 19.6011 24.875V23.8443V23.5092H17.9313V23.8443V25.8953Z" fill="#6A5C69"/>
<path fill-rule="evenodd" clip-rule="evenodd" d="M17.313 2.92864C16.711 5.74329 16.3773 8.26727 16.2794 10.3078C16.278 10.3108 16.278 10.3152 16.278 10.3182H18.268C18.3659 8.27169 18.701 5.7373 19.3076 2.91081C19.3061 2.91081 19.3046 2.91081 19.3031 2.91228C19.2631 2.92264 19.2215 2.92859 19.1785 2.92859H17.313V2.92864Z" fill="#FDD76F"/>
<path fill-rule="evenodd" clip-rule="evenodd" d="M16.2779 10.3181C16.1696 12.5826 16.6842 15.329 17.1098 16.1343C18.9338 19.5821 24.0098 16.1298 24.0098 21.2875V21.4581H25.9999V19.8742V19.8728C25.9984 14.718 20.5902 18.5025 18.7677 15.0546C18.4207 14.3992 18.2353 13.1713 18.2368 11.5148C18.2368 11.1367 18.2472 10.7378 18.2679 10.3181H16.2779Z" fill="#FDD76F"/>
<path d="M18.2901 9.91663C18.2817 10.0521 18.2744 10.186 18.2681 10.3179C18.2619 10.4476 18.2566 10.5747 18.2524 10.7003H12.0428C12.0292 10.7003 12.0161 10.6998 12.003 10.6982C11.8053 10.6784 11.6505 10.5109 11.6505 10.308C11.6505 10.0909 11.8263 9.91562 12.0428 9.91562H18.2682C18.2755 9.91562 18.2828 9.91562 18.2901 9.91663Z" fill="#7E707D"/>
<path fill-rule="evenodd" clip-rule="evenodd" d="M19.6009 22.0305V23.5089H17.9316L17.896 22.2262C17.9876 19.4561 12.4355 21.4346 10.6992 18.1467C10.2979 17.3861 10.1128 15.0231 10.1839 12.8562C10.1881 12.7244 10.1933 12.5936 10.1996 12.4639H11.8695C11.8632 12.5968 11.8579 12.7275 11.8538 12.8562C11.7831 14.9226 11.9683 16.4455 12.369 17.2051C14.1054 20.4925 19.0956 17.2124 19.5653 21.353L19.5758 21.4582C19.592 21.636 19.6009 21.826 19.6009 22.0305Z" fill="#FDD76F"/>
<path fill-rule="evenodd" clip-rule="evenodd" d="M12.909 5.04947C12.501 6.95473 12.2148 8.72715 12.0427 10.3081C11.9747 10.9269 11.9244 11.5165 11.891 12.0726C11.8826 12.205 11.8758 12.3353 11.8695 12.4639H10.1997C10.206 12.3353 10.2133 12.2044 10.2211 12.0716C10.2552 11.5155 10.3048 10.927 10.3729 10.3081C10.545 8.73294 10.8295 6.96524 11.2345 5.06729H12.7814C12.8258 5.06724 12.8687 5.061 12.909 5.04947Z" fill="#FDD76F"/>
<path d="M11.8908 12.0726C11.8825 12.2049 11.8757 12.3352 11.8694 12.4639C11.8631 12.5968 11.8579 12.7275 11.8537 12.8562H6.41357C5.92861 12.8562 5.59904 12.8656 5.43375 12.9928C5.25743 13.1288 5.17166 13.5007 5.17166 14.1296C5.17166 14.6129 4.97443 14.9833 4.63074 15.1444C4.53918 15.1873 4.40786 15.2287 4.23998 15.2287C3.97998 15.2287 3.63259 15.1293 3.21359 14.7814L1.31559 13.1915C1.3067 13.021 1.29726 12.8494 1.2868 12.6763C1.27527 12.49 1.26323 12.3022 1.25018 12.1128L3.71419 14.1771C4.01395 14.4256 4.22688 14.4669 4.29751 14.434C4.34043 14.4141 4.38699 14.31 4.38699 14.1296C4.38699 13.2036 4.55701 12.6778 4.95513 12.3713C5.34381 12.0715 5.8633 12.0715 6.41362 12.0715H11.8695C11.8767 12.0715 11.8835 12.0715 11.8908 12.0726Z" fill="#7E707D"/>
<path fill-rule="evenodd" clip-rule="evenodd" d="M19.6012 22.0306V23.5091V23.8443H20.5888L21.4192 23.0183L22.2497 23.8443H25.0183C25.5581 23.8443 26 23.3846 26 22.824V21.4582H19.576C19.5923 21.6362 19.6012 21.826 19.6012 22.0306Z" fill="#7E707D"/>
<path d="M24.0099 21.4582V23.8443H25.0183C25.5581 23.8443 26 23.3846 26 22.824V21.4582H24.0099V21.4582Z" fill="#6A5C69"/>
</g>
<defs>
<clipPath id="clip0_1717_1330">
<rect width="26" height="26" fill="white"/>
</clipPath>
</defs>
</svg>
