<svg width="40" height="76" viewBox="0 0 40 76" fill="none" xmlns="http://www.w3.org/2000/svg">
<g clip-path="url(#clip0_326_4063)">
<path d="M34.0426 18.4903H5.95745C4.37743 18.4903 2.86213 18.8977 1.7449 19.6229C0.627658 20.348 0 21.3315 0 22.3571L0 71.5708C-2.31251e-06 72.152 0.176616 72.7274 0.519743 73.2643C0.86287 73.8011 1.36577 74.2887 1.99963 74.6992C2.6335 75.1097 3.38589 75.435 4.21373 75.6565C5.04156 75.878 5.92858 75.9913 6.82398 75.99H33.1296C34.9353 75.99 36.6671 75.5244 37.9439 74.6956C39.2208 73.8669 39.9381 72.7428 39.9381 71.5708V22.3571C39.9422 21.3377 39.3244 20.3587 38.2196 19.6341C37.1149 18.9095 35.6131 18.4983 34.0426 18.4903V18.4903Z" fill="#4292A6"/>
<path d="M34.0426 13.2375H5.47778V18.4903H34.0426V13.2375Z" fill="#333333"/>
<path d="M24.65 6.89996H14.8859C13.3429 6.89996 11.863 7.29783 10.7719 8.00604C9.68073 8.71426 9.06775 9.6748 9.06775 10.6764V13.2375H30.4681V10.6764C30.4681 9.6748 29.8552 8.71426 28.764 8.00604C27.6729 7.29783 26.193 6.89996 24.65 6.89996V6.89996Z" fill="#474747"/>
<path d="M19.7911 -9.20814e-06C19.4281 -0.00133292 19.0682 0.0439319 18.7323 0.133183C18.3963 0.222433 18.0908 0.353909 17.8334 0.52005C17.576 0.686191 17.3718 0.88372 17.2324 1.10128C17.093 1.31884 17.0212 1.55213 17.0212 1.78775V6.89995H22.5764V1.78775C22.5764 1.55128 22.5041 1.31716 22.3638 1.09893C22.2234 0.880714 22.0178 0.682733 21.7587 0.516459C21.4997 0.350185 21.1924 0.21892 20.8546 0.130267C20.5169 0.041614 20.1554 -0.0026662 19.7911 -9.20814e-06V-9.20814e-06Z" fill="#474747"/>
<path d="M22.5455 5.25281H16.9904V6.89996H22.5455V5.25281Z" fill="#2E2E2E"/>
<path d="M32.5725 72.073C32.2563 72.0743 31.9427 72.035 31.6499 71.9574C31.3572 71.8797 31.0909 71.7652 30.8666 71.6206C30.6422 71.4759 30.4642 71.3038 30.3427 71.1143C30.2212 70.9247 30.1586 70.7215 30.1586 70.5162V47.9984C30.132 47.7828 30.1744 47.5659 30.2832 47.3615C30.392 47.157 30.5649 46.9694 30.7909 46.8104C31.017 46.6515 31.2913 46.5246 31.5966 46.4378C31.9019 46.3511 32.2315 46.3063 32.5648 46.3063C32.8981 46.3063 33.2277 46.3511 33.533 46.4378C33.8383 46.5246 34.1126 46.6515 34.3387 46.8104C34.5647 46.9694 34.7376 47.157 34.8464 47.3615C34.9552 47.5659 34.9977 47.7828 34.971 47.9984V70.5162C34.9731 70.721 34.9124 70.924 34.7926 71.1135C34.6728 71.303 34.4962 71.4751 34.2731 71.62C34.05 71.7648 33.7847 71.8794 33.4928 71.9572C33.2009 72.0349 32.8881 72.0743 32.5725 72.073V72.073Z" fill="white"/>
<path d="M40 27.168H0V41.6509H40V27.168Z" fill="#163138"/>
<path d="M19.4971 29.3374H11.3269C7.26756 29.3374 3.97681 31.4733 3.97681 34.1081V34.1985C3.97681 36.8333 7.26756 38.9692 11.3269 38.9692H19.4971C23.5565 38.9692 26.8472 36.8333 26.8472 34.1985V34.1081C26.8472 31.4733 23.5565 29.3374 19.4971 29.3374Z" fill="#295C69"/>
<path d="M7.73695 14.1916C7.35939 14.1916 6.99729 14.2889 6.73032 14.4622C6.46334 14.6355 6.31335 14.8705 6.31335 15.1156V18.4902H9.17602V15.1156C9.17603 14.9934 9.13871 14.8724 9.0662 14.7597C8.99369 14.6469 8.88744 14.5446 8.75361 14.4586C8.61977 14.3727 8.461 14.3049 8.28649 14.259C8.11198 14.2132 7.9252 14.1903 7.73695 14.1916V14.1916Z" fill="#212121"/>
<path d="M12.5648 14.1916C12.1873 14.1916 11.8252 14.2889 11.5582 14.4622C11.2912 14.6355 11.1412 14.8705 11.1412 15.1156V18.4903H13.9265V15.1156C13.9269 14.8773 13.7854 14.6482 13.5317 14.476C13.278 14.3039 12.9316 14.2019 12.5648 14.1916Z" fill="#212121"/>
<path d="M17.3772 14.1916C16.9996 14.1916 16.6376 14.289 16.3706 14.4623C16.1036 14.6355 15.9536 14.8706 15.9536 15.1156V18.4903H18.8318V15.1156C18.8318 14.9926 18.794 14.8708 18.7205 14.7573C18.647 14.6439 18.5394 14.5411 18.4039 14.4551C18.2684 14.369 18.1078 14.3013 17.9315 14.2561C17.7552 14.2109 17.5667 14.1889 17.3772 14.1916V14.1916Z" fill="#212121"/>
<path d="M22.1896 14.1916C21.812 14.1916 21.4499 14.289 21.183 14.4623C20.916 14.6355 20.766 14.8706 20.766 15.1156V18.4903H23.6441V15.1156C23.6442 14.9926 23.6064 14.8708 23.5329 14.7573C23.4594 14.6439 23.3518 14.5411 23.2163 14.4551C23.0808 14.369 22.9202 14.3013 22.7439 14.2561C22.5676 14.2109 22.3791 14.1889 22.1896 14.1916Z" fill="#212121"/>
<path d="M27.002 14.1916C26.815 14.1916 26.6299 14.2155 26.4572 14.262C26.2845 14.3084 26.1275 14.3765 25.9953 14.4623C25.8631 14.5481 25.7583 14.6499 25.6867 14.762C25.6152 14.8741 25.5784 14.9943 25.5784 15.1156V18.4903H28.4565V15.1156C28.4566 14.9926 28.4187 14.8708 28.3453 14.7573C28.2718 14.6439 28.1642 14.5411 28.0287 14.4551C27.8932 14.369 27.7326 14.3013 27.5563 14.2561C27.38 14.2109 27.1915 14.1889 27.002 14.1916V14.1916Z" fill="#212121"/>
<path d="M31.8143 14.1916C31.6274 14.1916 31.4423 14.2155 31.2696 14.2619C31.0968 14.3084 30.9399 14.3764 30.8077 14.4622C30.6755 14.548 30.5707 14.6499 30.4991 14.762C30.4276 14.8741 30.3907 14.9943 30.3907 15.1156V18.4902H33.2534V15.1156C33.2534 14.9934 33.2161 14.8724 33.1436 14.7597C33.0711 14.6469 32.9648 14.5446 32.831 14.4586C32.6972 14.3727 32.5384 14.3049 32.3639 14.259C32.1894 14.2132 32.0026 14.1903 31.8143 14.1916Z" fill="#212121"/>
</g>
<defs>
<clipPath id="clip0_326_4063">
<rect width="40" height="76" fill="white"/>
</clipPath>
</defs>
</svg>
