<svg width="66" height="53" viewBox="0 0 66 53" fill="none" xmlns="http://www.w3.org/2000/svg">
<g clip-path="url(#clip0_326_3984)">
<path d="M28.3614 0.791451L24.9572 4.18237L61.4503 40.5328L64.8545 37.1419L28.3614 0.791451Z" fill="#858585"/>
<path d="M41.8038 13.7028L37.9412 17.5503L48.5573 28.1248L52.4199 24.2773L41.8038 13.7028Z" fill="#2C3E50"/>
<path d="M61.4308 19.4101L43.6519 37.1196L46.5488 40.0052L64.3278 22.2957L61.4308 19.4101Z" fill="#383838"/>
<path d="M61.44 19.4053L43.661 37.1147L45.1095 38.5576L62.8885 20.8481L61.44 19.4053Z" fill="#1F1F1F"/>
<path d="M63.1675 23.4564L47.7232 38.8403L50.2412 41.3485L65.6855 25.9646L63.1675 23.4564Z" fill="#383838"/>
<path d="M63.1614 23.459L47.7171 38.8429L49.0372 40.1579L64.4815 24.7739L63.1614 23.459Z" fill="#1F1F1F"/>
<path d="M64.0186 27.6186L51.8991 39.6907L53.8732 41.6571L65.9927 29.5849L64.0186 27.6186Z" fill="#383838"/>
<path d="M64.0244 27.621L51.9048 39.6931L52.8949 40.6793L65.0145 28.6072L64.0244 27.621Z" fill="#1F1F1F"/>
<path d="M62.7381 32.828L57.097 38.4471L58.9305 40.2734L64.5716 34.6544L62.7381 32.828Z" fill="#2B2B2B"/>
<path d="M62.3179 35.6346L62.9575 36.2717L64.3145 34.92L63.6749 34.2829C63.5873 34.1947 63.483 34.1246 63.368 34.0768C63.253 34.029 63.1297 34.0044 63.0051 34.0044C62.8805 34.0044 62.7571 34.029 62.6421 34.0768C62.5271 34.1246 62.4228 34.1947 62.3352 34.2829C62.2428 34.3693 62.1689 34.4734 62.1179 34.5889C62.0668 34.7044 62.0397 34.8289 62.038 34.9551C62.0364 35.0813 62.0604 35.2065 62.1085 35.3233C62.1566 35.44 62.2278 35.5459 62.3179 35.6346Z" fill="#0F0F0F"/>
<path d="M58.5149 39.4228L59.1459 40.0599L60.5029 38.7427L59.8633 38.1142C59.7757 38.0259 59.6713 37.9559 59.5564 37.9081C59.4414 37.8603 59.318 37.8356 59.1934 37.8356C59.0688 37.8356 58.9455 37.8603 58.8305 37.9081C58.7155 37.9559 58.6112 38.0259 58.5236 38.1142C58.3513 38.2882 58.2541 38.5224 58.2525 38.7667C58.2508 39.0111 58.345 39.2465 58.5149 39.4228Z" fill="#0F0F0F"/>
<path d="M60.4337 37.5115L61.0733 38.1486L62.4303 36.7969L61.7907 36.1598C61.7031 36.0716 61.5988 36.0015 61.4838 35.9537C61.3688 35.9059 61.2454 35.8813 61.1208 35.8813C60.9962 35.8813 60.8729 35.9059 60.7579 35.9537C60.6429 36.0015 60.5386 36.0716 60.451 36.1598C60.3586 36.2462 60.2847 36.3503 60.2336 36.4658C60.1826 36.5813 60.1554 36.7058 60.1538 36.832C60.1522 36.9582 60.1762 37.0834 60.2243 37.2002C60.2723 37.3169 60.3436 37.4228 60.4337 37.5115Z" fill="#0F0F0F"/>
<path d="M43.6197 1.65733L25.8407 19.3668L28.7377 22.2525L46.5166 4.54296L43.6197 1.65733Z" fill="#383838"/>
<path d="M45.0651 3.09892L27.2861 20.8084L28.7346 22.2512L46.5136 4.54174L45.0651 3.09892Z" fill="#1F1F1F"/>
<path d="M39.9334 0.307955L24.4891 15.6919L27.0071 18.2001L42.4514 2.81614L39.9334 0.307955Z" fill="#383838"/>
<path d="M41.1312 1.50474L25.6869 16.8887L27.007 18.2036L42.4513 2.81971L41.1312 1.50474Z" fill="#1F1F1F"/>
<path d="M36.2928 -0.000627762L24.1733 12.0715L26.1474 14.0379L38.2669 1.96574L36.2928 -0.000627762Z" fill="#383838"/>
<path d="M37.2858 0.9832L25.1663 13.0554L26.1564 14.0416L38.2759 1.96943L37.2858 0.9832Z" fill="#1F1F1F"/>
<path d="M31.2009 1.42671L25.5598 7.04578L27.3933 8.87212L33.0344 3.25306L31.2009 1.42671Z" fill="#2B2B2B"/>
<path d="M30.2514 3.66761L29.6118 3.0305L30.9429 1.72186L31.5825 2.35896C31.7572 2.53745 31.855 2.77689 31.855 3.0262C31.855 3.27551 31.7572 3.51495 31.5825 3.69344C31.4004 3.86152 31.1599 3.95273 30.9117 3.94792C30.6635 3.9431 30.4268 3.84262 30.2514 3.66761Z" fill="#0F0F0F"/>
<path d="M26.4138 7.45577L25.7742 6.81867L27.1312 5.46698L27.7708 6.10408C27.8594 6.19135 27.9297 6.29526 27.9777 6.4098C28.0257 6.52433 28.0505 6.64721 28.0505 6.77132C28.0505 6.89543 28.0257 7.01831 27.9777 7.13284C27.9297 7.24737 27.8594 7.35128 27.7708 7.43855C27.6841 7.53055 27.5796 7.60419 27.4637 7.65505C27.3477 7.70591 27.2227 7.73295 27.096 7.73456C26.9693 7.73617 26.8436 7.71231 26.7264 7.6644C26.6092 7.6165 26.5029 7.54554 26.4138 7.45577Z" fill="#0F0F0F"/>
<path d="M28.3413 5.54446L27.7017 4.90735L29.0587 3.55566L29.6983 4.19277C29.873 4.37125 29.9708 4.61069 29.9708 4.86C29.9708 5.10931 29.873 5.34875 29.6983 5.52724C29.6103 5.61715 29.5054 5.68891 29.3896 5.73844C29.2738 5.78797 29.1494 5.81428 29.0233 5.81588C28.8973 5.81748 28.7722 5.79433 28.6552 5.74776C28.5382 5.70119 28.4315 5.6321 28.3413 5.54446Z" fill="#0F0F0F"/>
<path d="M4.19042 12.1305L0.786194 15.5214L37.2792 51.8718L40.6835 48.4809L4.19042 12.1305Z" fill="#858585"/>
<path d="M17.6302 25.0357L13.7676 28.8832L24.3837 39.4577L28.2463 35.6102L17.6302 25.0357Z" fill="#2C3E50"/>
<path d="M37.2572 30.743L19.4783 48.4525L22.3752 51.3381L40.1542 33.6287L37.2572 30.743Z" fill="#383838"/>
<path d="M37.2603 30.7443L19.4813 48.4538L20.9298 49.8966L38.7088 32.1871L37.2603 30.7443Z" fill="#1F1F1F"/>
<path d="M38.9964 34.7954L23.5521 50.1793L26.0701 52.6875L41.5145 37.3036L38.9964 34.7954Z" fill="#383838"/>
<path d="M38.994 34.7979L23.5497 50.1819L24.8698 51.4969L40.3141 36.1129L38.994 34.7979Z" fill="#1F1F1F"/>
<path d="M39.8476 38.9576L27.728 51.0298L29.7021 52.9962L41.8216 40.924L39.8476 38.9576Z" fill="#383838"/>
<path d="M39.8533 38.9599L27.7338 51.0321L28.7239 52.0183L40.8434 39.9462L39.8533 38.9599Z" fill="#1F1F1F"/>
<path d="M38.5645 44.1817L32.9234 49.8008L34.7569 51.6271L40.398 46.0081L38.5645 44.1817Z" fill="#2B2B2B"/>
<path d="M38.1428 46.9733L38.7824 47.6104L40.1393 46.2587L39.4997 45.6302C39.4121 45.542 39.3078 45.4719 39.1928 45.4241C39.0778 45.3763 38.9545 45.3517 38.8299 45.3517C38.7053 45.3517 38.5819 45.3763 38.467 45.4241C38.352 45.4719 38.2477 45.542 38.16 45.6302C38.069 45.7165 37.9962 45.82 37.9459 45.9347C37.8957 46.0494 37.8689 46.173 37.8673 46.2981C37.8657 46.4233 37.8893 46.5475 37.9366 46.6634C37.9839 46.7794 38.054 46.8848 38.1428 46.9733Z" fill="#0F0F0F"/>
<path d="M34.3397 50.7959L34.9793 51.4244L36.3017 50.0469L35.6707 49.4184C35.5824 49.3299 35.4773 49.2597 35.3616 49.2118C35.2459 49.1638 35.1219 49.1392 34.9966 49.1392C34.8713 49.1392 34.7472 49.1638 34.6315 49.2118C34.5158 49.2597 34.4107 49.3299 34.3224 49.4184C34.2293 49.5081 34.1556 49.6158 34.1058 49.7349C34.056 49.854 34.0312 49.9819 34.0328 50.1109C34.0344 50.2399 34.0625 50.3672 34.1152 50.485C34.168 50.6028 34.2444 50.7086 34.3397 50.7959Z" fill="#0F0F0F"/>
<path d="M36.3017 48.8502L36.9413 49.4873L38.2983 48.1356L37.6587 47.4985C37.5711 47.4103 37.4667 47.3402 37.3518 47.2924C37.2368 47.2446 37.1134 47.22 36.9888 47.22C36.8642 47.22 36.7409 47.2446 36.6259 47.2924C36.5109 47.3402 36.4066 47.4103 36.319 47.4985C36.2266 47.5849 36.1527 47.6889 36.1016 47.8044C36.0506 47.9199 36.0234 48.0445 36.0218 48.1707C36.0202 48.2969 36.0441 48.4221 36.0922 48.5389C36.1403 48.6556 36.2116 48.7615 36.3017 48.8502Z" fill="#0F0F0F"/>
<path d="M19.44 13.005L1.66101 30.7145L4.55796 33.6001L22.3369 15.8906L19.44 13.005Z" fill="#383838"/>
<path d="M20.8941 14.4379L3.11511 32.1474L4.56359 33.5902L22.3426 15.8807L20.8941 14.4379Z" fill="#1F1F1F"/>
<path d="M15.7537 11.647L0.309387 27.0309L2.82741 29.5391L18.2717 14.1552L15.7537 11.647Z" fill="#383838"/>
<path d="M16.9515 12.8523L1.5072 28.2363L2.82733 29.5512L18.2716 14.1673L16.9515 12.8523Z" fill="#1F1F1F"/>
<path d="M12.1217 11.3384L0.00219727 23.4105L1.97628 25.3769L14.0958 13.3047L12.1217 11.3384Z" fill="#383838"/>
<path d="M13.106 12.3222L0.986511 24.3944L1.97661 25.3806L14.0961 13.3085L13.106 12.3222Z" fill="#1F1F1F"/>
<path d="M7.02985 12.7657L1.38873 18.3848L3.22225 20.2111L8.86336 14.5921L7.02985 12.7657Z" fill="#2B2B2B"/>
<path d="M6.05025 15.0063L5.41064 14.3692L6.76764 13.0175L7.40724 13.6546C7.49583 13.7419 7.56616 13.8458 7.61416 13.9603C7.66216 14.0749 7.68687 14.1977 7.68687 14.3219C7.68687 14.446 7.66216 14.5688 7.61416 14.6834C7.56616 14.7979 7.49583 14.9018 7.40724 14.9891C7.32052 15.0811 7.21606 15.1547 7.10011 15.2056C6.98416 15.2564 6.8591 15.2835 6.73242 15.2851C6.60573 15.2867 6.48003 15.2628 6.36281 15.2149C6.2456 15.167 6.13929 15.0961 6.05025 15.0063Z" fill="#0F0F0F"/>
<path d="M2.23856 18.7945L1.6076 18.166L2.9646 16.8143L3.59556 17.4428C3.68441 17.5308 3.75492 17.6355 3.80304 17.7507C3.85115 17.866 3.87592 17.9895 3.87592 18.1144C3.87592 18.2392 3.85115 18.3628 3.80304 18.478C3.75492 18.5933 3.68441 18.6979 3.59556 18.7859C3.50763 18.8763 3.4025 18.9483 3.28631 18.9977C3.17013 19.0472 3.04521 19.073 2.91887 19.0738C2.79253 19.0746 2.6673 19.0504 2.55049 19.0024C2.43368 18.9544 2.32764 18.8838 2.23856 18.7945Z" fill="#0F0F0F"/>
<path d="M4.16603 16.8832L3.52643 16.2461L4.88342 14.8944L5.52302 15.5315C5.61161 15.6188 5.68194 15.7227 5.72994 15.8372C5.77794 15.9518 5.80266 16.0746 5.80266 16.1987C5.80266 16.3229 5.77794 16.4457 5.72994 16.5603C5.68194 16.6748 5.61161 16.7787 5.52302 16.866C5.4363 16.958 5.33184 17.0316 5.21589 17.0825C5.09994 17.1333 4.97489 17.1604 4.8482 17.162C4.72152 17.1636 4.59581 17.1397 4.4786 17.0918C4.36138 17.0439 4.25508 16.973 4.16603 16.8832Z" fill="#0F0F0F"/>
</g>
<defs>
<clipPath id="clip0_326_3984">
<rect width="66" height="53" fill="white"/>
</clipPath>
</defs>
</svg>
