<svg width="14" height="14" viewBox="0 0 14 14" fill="none" xmlns="http://www.w3.org/2000/svg">
<g clip-path="url(#clip0_326_6546)">
<path d="M6.99929 14.0001C3.97015 14.0001 1.50574 11.5297 1.50574 8.49318C1.50574 6.13161 2.57898 4.02587 4.15475 2.29649C5.45076 0.874118 6.73343 0.0908836 6.78737 0.0582625C7.07169 -0.11373 7.45328 0.120606 7.45328 0.43752V4.21L9.38334 2.40862C9.55087 2.25224 9.8161 2.26307 9.9697 2.43673C10.7032 3.26593 11.2872 4.14156 11.7052 5.03934C14.0369 10.0466 10.8227 14.0001 6.99929 14.0001Z" fill="url(#paint0_linear_326_6546)"/>
<path d="M11.7053 5.03933C11.2873 4.14155 10.7033 3.26592 9.9698 2.43672C9.81621 2.26303 9.55097 2.25223 9.38344 2.40861L7.45338 4.20999V0.437511C7.45338 0.198909 7.23712 0.00720215 7.00891 0.000366211V14C10.8281 13.9935 14.0351 10.0425 11.7053 5.03933Z" fill="url(#paint1_linear_326_6546)"/>
<path d="M6.99932 14C5.84815 14 4.91162 13.0612 4.91162 11.9072C4.91162 10.0426 6.722 8.9385 6.79905 8.8924C6.93413 8.81165 7.10325 8.81543 7.23461 8.90197C7.31025 8.95184 9.08699 10.1436 9.08699 11.9072C9.08702 13.0612 8.15049 14 6.99932 14Z" fill="#FEC356"/>
<path d="M9.08709 11.9073C9.08709 10.1436 7.31032 8.9519 7.23472 8.90202C7.1663 8.85693 7.08766 8.83454 7.00891 8.83459V13.9998C8.15568 13.9946 9.08709 13.058 9.08709 11.9073Z" fill="#FEB020"/>
<g clip-path="url(#clip1_326_6546)">
<path d="M6.99929 14.0001C3.97015 14.0001 1.50574 11.5297 1.50574 8.49318C1.50574 6.13161 2.57898 4.02587 4.15474 2.29648C5.45076 0.874118 6.73342 0.0908836 6.78737 0.0582625C7.07169 -0.11373 7.45327 0.120606 7.45327 0.43752V4.21L9.38333 2.40862C9.55087 2.25224 9.8161 2.26307 9.96969 2.43673C10.7032 3.26593 11.2872 4.14156 11.7052 5.03934C14.0369 10.0466 10.8227 14.0001 6.99929 14.0001Z" fill="#FE4E33"/>
<path d="M11.7052 5.03933C11.2871 4.14155 10.7032 3.26592 9.96968 2.43672C9.81609 2.26303 9.55085 2.25223 9.38332 2.40861L7.45326 4.20999V0.437511C7.45326 0.198909 7.237 0.00720215 7.00879 0.000366211V14C10.828 13.9935 14.035 10.0425 11.7052 5.03933Z" fill="#FE1600"/>
<path d="M6.99932 14C5.84815 14 4.91162 13.0612 4.91162 11.9072C4.91162 10.0426 6.722 8.9385 6.79905 8.8924C6.93413 8.81165 7.10325 8.81543 7.23461 8.90197C7.31025 8.95184 9.08699 10.1436 9.08699 11.9072C9.08702 13.0612 8.15049 14 6.99932 14Z" fill="#FEC356"/>
<path d="M9.08697 11.9073C9.08697 10.1436 7.3102 8.9519 7.23459 8.90202C7.16618 8.85693 7.08754 8.83454 7.00879 8.83459V13.9998C8.15556 13.9946 9.08697 13.058 9.08697 11.9073Z" fill="#FEB020"/>
</g>
</g>
<defs>
<linearGradient id="paint0_linear_326_6546" x1="12.4943" y1="14.0001" x2="-2.18474" y2="13.1086" gradientUnits="userSpaceOnUse">
<stop stop-color="#F9889C"/>
<stop offset="1" stop-color="#FEAA99"/>
</linearGradient>
<linearGradient id="paint1_linear_326_6546" x1="12.4944" y1="14" x2="5.14635" y2="13.7772" gradientUnits="userSpaceOnUse">
<stop stop-color="#F9889C"/>
<stop offset="1" stop-color="#FEAA99"/>
</linearGradient>
<clipPath id="clip0_326_6546">
<rect width="14" height="14" fill="white"/>
</clipPath>
<clipPath id="clip1_326_6546">
<rect width="14" height="14" fill="white"/>
</clipPath>
</defs>
</svg>
