<svg width="381" height="350" viewBox="0 0 381 350" fill="none" xmlns="http://www.w3.org/2000/svg">
<path fill-rule="evenodd" clip-rule="evenodd" d="M179.79 337.733C160.644 334.451 144.099 323.255 124.756 321.323C94.2973 318.283 49.7321 348.531 34.0638 323.185C16.9959 295.575 78.4425 266.471 71.4264 235.055C64.5479 204.254 4.46773 202.988 0.243705 171.747C-3.25239 145.889 31.6605 128.313 55.2701 115.561C76.4288 104.133 101.829 104.26 126.081 103.782C144.499 103.419 161.75 116.701 179.79 113.106C204.268 108.227 220.391 79.7067 245.386 80.0023C269.041 80.282 305.272 91.8041 305.57 114.593C306.008 148.173 234.284 165.165 246.908 196.469C262.427 234.956 339.072 215.256 360.566 250.977C374.382 273.939 342.441 303.001 321.12 319.808C300.38 336.155 271.708 338.591 245.141 341.961C223.22 344.742 201.558 341.465 179.79 337.733Z" fill="url(#paint0_linear_255_4390)"/>
<mask id="mask0_255_4390" style="mask-type:alpha" maskUnits="userSpaceOnUse" x="47" y="0" width="393" height="350">
<rect x="47.9668" width="391.033" height="350" rx="30" fill="#C4C4C4"/>
</mask>
<g mask="url(#mask0_255_4390)">
<path d="M216.539 73.1283C216.539 73.1283 235.8 77.5818 243.426 86.1766C251.051 94.7713 248.429 116.924 246.442 129.676C244.454 142.429 239.125 151.648 245.431 156.101C251.737 160.555 253.999 156.43 253.999 156.43C253.999 156.43 245.431 170.431 236.4 172.354C227.369 174.277 214.808 163.431 212.82 153.883C210.833 144.335 209.496 129.988 211.107 120.112C212.718 110.235 215.871 106.883 217.464 100.194C219.058 93.5059 217.79 82.364 217.79 82.364L216.539 73.1283Z" fill="#3B2645"/>
<path d="M188.642 314.718C227.161 314.718 258.386 289.621 258.386 258.663C258.386 227.705 227.161 202.608 188.642 202.608C150.124 202.608 118.898 227.705 118.898 258.663C118.898 289.621 150.124 314.718 188.642 314.718Z" fill="#FF8A00"/>
<path d="M129.488 126.85L127.963 125.88L120.852 115.659L126.541 104.648L139.324 103.843L140.849 104.829L129.488 126.85Z" fill="#393762"/>
<path d="M142.271 126.061L129.487 126.85L122.376 116.628L128.048 105.618L140.849 104.829L147.943 115.05L142.271 126.061Z" fill="#636183"/>
<path d="M173.049 122.199C169.852 125.581 167.123 129.342 164.926 133.39C160.608 140.95 149.692 151.467 147.67 153.604C146.718 154.752 145.496 155.67 144.106 156.282C142.18 150.876 140.657 145.346 139.547 139.734C138.536 133.16 137.011 120.244 137.011 120.244L141.073 112.454C141.073 112.454 137.765 106.111 136.497 105.651C135.229 105.19 132.693 105.881 128.889 109.052C125.084 112.224 123.542 115.379 125.324 119.258C127.107 123.136 130.911 127.047 130.465 133.374C130.02 139.701 130.225 161.87 132.504 169.166C134.784 176.463 134.544 176.479 137.645 176.479C140.747 176.479 149.641 172.815 158.98 168.262C164.45 165.642 169.093 161.671 172.432 156.759L173.049 122.199Z" fill="#FFEDE5"/>
<path d="M192.343 118.315C188.082 117.62 183.723 117.698 179.491 118.545C173.185 120.007 169.912 123.869 168.644 130.886C167.376 137.904 162.852 146.613 165.885 153.187C168.918 159.76 171.677 164.805 171.934 170.113C172.057 175.18 171.811 180.248 171.197 185.282C170.696 186.288 170.124 187.259 169.484 188.19C169.484 188.19 168.97 192.052 156.357 188.667C143.745 185.282 127.62 186.251 110.981 189.883C94.3415 193.515 85.5164 196.456 84.7624 201.732C84.0084 207.007 84.0084 239.923 85.5164 249.602C86.3645 256.12 86.197 262.721 85.0195 269.191C80.8403 271.98 76.3588 274.327 71.6532 276.192C64.5931 278.854 60.5661 280.3 61.8171 282.765C63.068 285.23 67.8661 285.674 73.9152 285.674C79.9643 285.674 88.2925 285.198 88.2925 285.198C88.2925 285.198 80.7354 289.782 75.6802 292.921C70.6251 296.06 65.8612 296.8 68.1232 300.185C70.3852 303.57 92.1138 302.601 97.3746 302.601C102.635 302.601 108.719 300.662 109.216 298.492C109.713 296.323 107.708 288.813 107.708 285.921C107.708 283.028 106.954 270.194 109.97 264.393C112.986 258.592 117.544 241.665 117.287 235.141C117.03 228.617 116.533 224.508 116.533 224.508C116.533 224.508 145.493 228.321 156.803 232.183C168.113 236.045 193.354 239.2 205.213 233.645C217.071 228.091 221.852 221.304 220.087 211.641C218.322 201.978 213.524 195.684 214.792 184.312C216.06 172.94 216.043 161.831 219.076 156.276C222.109 150.722 228.912 140.796 228.398 134.272C227.884 127.748 215.289 121.125 208.983 118.791C202.676 116.458 192.343 118.315 192.343 118.315Z" fill="#FFEDE5"/>
<path d="M84.6941 202.313C83.9401 207.621 83.9401 240.505 85.448 250.184C86.2961 256.701 86.1287 263.303 84.9511 269.773C80.7719 272.562 76.2905 274.909 71.5849 276.773C64.5248 279.436 60.4978 280.882 61.7487 283.347C62.9997 285.812 67.7978 286.256 73.8469 286.256C78.9877 286.256 85.7222 285.91 87.6586 285.795C88.8753 285.417 91.2572 284.612 91.2572 284.152C91.2572 283.692 93.2621 266.075 93.5192 249.083C93.7762 232.091 95.7983 212.469 95.7983 212.469L93.5363 203.759C91.461 201.89 89.2254 200.191 86.8532 198.681C85.7002 199.602 84.9334 200.892 84.6941 202.313V202.313Z" fill="#FFEDE5"/>
<path d="M90.7431 277.743C90.7431 277.743 89.9891 276.1 88.7211 272.911C88.4977 272.084 88.0178 271.341 87.3447 270.78C86.6715 270.22 85.8369 269.868 84.9511 269.773C80.7719 272.562 76.2905 274.909 71.5849 276.773C64.5248 279.436 60.4978 280.882 61.7487 283.347C62.9997 285.812 67.7978 286.256 73.8469 286.256C78.9877 286.256 85.7222 285.91 87.6586 285.795C88.8753 285.417 91.2572 284.612 91.2572 284.152C91.2572 283.889 91.4971 281.523 91.8398 277.858L90.7431 277.743Z" fill="#3B2645"/>
<path d="M188.06 196.742C181.566 193.464 175.912 188.844 171.506 183.217C171.369 184.647 171.249 185.649 171.181 185.863C170.68 186.869 170.107 187.84 169.467 188.771C169.467 188.771 168.953 192.633 156.341 189.248C143.729 185.863 127.603 186.832 110.964 190.464C94.325 194.096 85.4999 197.037 84.7459 202.313C84.7459 202.559 84.7459 202.871 84.6431 203.233C85.6138 204.59 86.6606 205.896 87.779 207.144C89.9745 209.503 92.7232 211.328 95.7987 212.469C96.5698 215.854 101.351 226.486 108.411 226.486C115.471 226.486 116.482 225.04 116.482 225.04C116.482 225.04 145.494 228.902 156.804 232.764C168.113 236.626 193.355 239.781 205.213 234.227C217.071 228.672 221.852 221.885 220.087 212.222C219.303 208.509 218.256 204.853 216.952 201.277C209.275 201.672 196.902 201.425 188.06 196.742Z" fill="#3B2645"/>
<path d="M171.198 185.863C170.696 186.869 170.124 187.841 169.484 188.772C169.484 188.772 168.97 192.634 156.358 189.248C143.745 185.863 127.62 186.832 110.981 190.464C94.3418 194.096 85.5167 197.038 84.7627 202.313C84.6085 203.381 84.4885 205.6 84.4028 208.443C87.7182 210.808 91.675 212.206 95.7984 212.469C97.6021 209.482 100.205 207.011 103.338 205.312C106.472 203.613 110.021 202.748 113.62 202.806C126.369 202.806 180.263 203.759 180.263 203.759L187.46 188.032C187.46 188.032 178.892 182.231 171.849 178.451C171.626 182.165 171.318 185.452 171.198 185.863Z" fill="#3B2645"/>
<path d="M214.894 187.128C215.546 184.45 228.398 170.284 229.683 165.354C230.968 160.424 235.681 145.42 231.397 136.792C227.112 128.165 221.749 126.11 221.749 126.11C217.812 123.336 213.529 121.045 209 119.291C202.711 116.875 192.36 118.814 192.36 118.814C188.099 118.119 183.74 118.197 179.508 119.044C173.202 120.507 169.929 124.368 168.661 131.386C167.393 138.403 162.852 147.195 165.885 153.768C168.918 160.342 171.677 165.387 171.934 170.695C172.057 175.761 171.811 180.829 171.197 185.863C170.696 186.869 170.123 187.841 169.484 188.772V188.87C171.351 192.568 175.635 200.374 180.348 203.759C184.771 203.889 189.026 205.42 192.446 208.114C197.587 212.469 203.807 213.422 210.61 213.422C213.839 213.298 217.034 212.745 220.104 211.779C218.39 203.167 214.432 197.169 214.706 187.671C214.806 187.504 214.87 187.319 214.894 187.128V187.128Z" fill="#FF8A00"/>
<path d="M212.153 104.287C212.153 104.287 218.476 94.9688 219.487 86.9986C220.498 79.0283 218.99 71.6003 209.908 66.9332C200.826 62.2661 187.46 66.9332 183.433 71.6003C179.406 76.2674 179.902 85.1416 178.891 87.0807C177.88 89.0199 173.339 92.1587 173.853 93.3748C174.367 94.5909 177.641 96.2506 177.641 96.2506L179.354 103.744C179.851 105.93 181.359 108.822 183.124 108.822C185.523 108.582 187.904 108.198 190.253 107.672C190.253 107.672 190.75 115.231 189.259 118.272C187.254 122.38 176.921 146.997 181.462 149.495C186.003 151.993 205.213 132.667 210.748 128.559C216.283 124.451 209.034 119.373 209.034 119.373C209.034 119.373 206.549 119.274 207.56 113.226C208.004 109.837 209.621 106.689 212.153 104.287Z" fill="#FFEDE5"/>
<path d="M97.3066 303.133C102.602 303.133 108.651 301.194 109.148 299.024C109.559 297.282 108.359 292.172 107.845 288.688C106.802 289.046 105.712 289.268 104.607 289.345C101.901 289.434 99.1942 289.191 96.5526 288.622C96.4928 287.621 96.237 286.64 95.7986 285.73C95.0446 284.086 91.2747 284.086 91.2747 284.086L87.1106 285.828H88.2416C88.2416 285.828 80.6845 290.413 75.6293 293.552C70.5742 296.691 65.8103 297.43 68.0723 300.816C70.3343 304.201 92.0115 303.133 97.3066 303.133Z" fill="#3B2645"/>
<path d="M222.743 88.6747C223.737 80.7045 218.99 71.6003 209.908 66.9332C202.317 63.0877 191.761 65.6842 186.106 69.316C187.236 69.5123 188.254 70.0965 188.968 70.9594C192.618 74.7884 190.681 81.7891 193.954 84.9772C197.227 88.1653 198.924 87.2122 198.924 87.2122C198.924 87.2122 202.591 81.4769 204.236 87.2122C205.881 92.9475 203.585 95.4289 201.923 96.1191C200.74 96.5461 199.518 96.8652 198.273 97.0723C198.273 97.0723 207.183 104.615 212.153 104.352C212.153 104.287 221.732 96.6615 222.743 88.6747Z" fill="#3B2645"/>
<path d="M133.858 130.301L132.35 129.315L125.239 119.093L130.911 108.083L143.694 107.294L145.22 108.263L133.858 130.301Z" fill="#393762"/>
<path d="M146.658 129.496L133.858 130.301L126.763 120.063L132.435 109.052L145.219 108.263L152.33 118.485L146.658 129.496Z" fill="#636183"/>
<path d="M235.612 221.885C233.831 217.865 232.799 213.577 232.561 209.215C232.561 204.761 227.232 193.274 227.232 190.727C227.953 180.72 229.235 170.758 231.071 160.884C233.984 151.484 233.744 141.311 231.396 136.792C229.048 132.273 219.606 133.095 217.036 140.49C214.466 147.885 214.62 162.231 214.62 162.231C213.763 168.673 213.18 183.036 212.906 191.664C212.718 199.338 214.414 207.078 218.253 212.6C223.685 220.422 226.255 230.677 227.917 230.677C229.58 230.677 238.388 229.625 238.388 229.625C238.388 229.625 238.85 228.754 235.612 221.885Z" fill="#FFEDE5"/>
<path d="M240.359 238.007C240.359 238.007 242.073 229.1 241.696 227.177C241.319 225.254 235.715 226.552 233.385 226.552C231.054 226.552 229.409 226.224 229.735 227.505C230.061 228.787 234.722 229.149 234.722 229.149L236.435 229.773L240.359 238.007Z" fill="#FFEDE5"/>
<path d="M251.754 231.696H217.55V236.149H251.754V231.696Z" fill="#636183"/>
<path d="M264.367 221.836H249.424V245.401H264.367V221.836Z" fill="#636183"/>
<path d="M218.202 221.836H203.259V245.401H218.202V221.836Z" fill="#636183"/>
<path d="M223.856 228.195L225.724 236.938C225.847 237.522 226.184 238.044 226.675 238.409C227.166 238.774 227.777 238.958 228.398 238.926C230.728 238.795 234.344 238.598 236.469 238.384C239.793 238.072 240.787 239.025 241.13 236.741C241.284 235.59 241.541 233.454 241.764 231.646C241.808 231.251 241.763 230.85 241.632 230.472C241.501 230.095 241.287 229.748 241.005 229.457C240.722 229.165 240.377 228.936 239.994 228.783C239.61 228.631 239.197 228.559 238.782 228.573C236.194 228.573 232.939 228.77 232.15 228.77C230.831 228.836 226.513 225.336 223.856 228.195Z" fill="#FFEDE5"/>
</g>
<defs>
<linearGradient id="paint0_linear_255_4390" x1="0.000108178" y1="80" x2="482.406" y2="131.653" gradientUnits="userSpaceOnUse">
<stop stop-color="#C150F6"/>
<stop offset="1" stop-color="#EEA4CE"/>
</linearGradient>
</defs>
</svg>
