<svg width="272" height="365" viewBox="0 0 272 365" fill="none" xmlns="http://www.w3.org/2000/svg">
<path d="M131.546 386.745C125.388 386.756 119.246 386.106 113.228 384.807C102.708 382.65 92.7981 378.191 84.2127 371.753C75.6273 365.314 68.5799 357.055 63.578 347.572C59.6089 338.701 56.6605 329.41 54.7891 319.876L54.3574 318.061C48.1897 291.842 40.4184 264.116 26.0786 239.067C23.7658 235.036 21.237 231.005 18.8008 227.128C12.9068 218.348 7.91653 208.997 3.9059 199.217C-2.26176 182.446 -1.12074 165.767 7.29811 154.781C8.4071 153.074 9.85005 151.608 11.5405 150.472C13.2309 149.335 15.1339 148.55 17.1355 148.165C18.3552 148.018 19.5922 148.122 20.7698 148.471C21.9474 148.821 23.0406 149.408 23.9816 150.196C24.7157 150.78 25.3177 151.512 25.7482 152.345C26.1787 153.178 26.4279 154.092 26.4795 155.027H24.475C24.4268 154.375 24.2428 153.74 23.9349 153.162C23.6269 152.585 23.2017 152.077 22.6864 151.673C21.9543 151.066 21.1077 150.612 20.1966 150.337C19.2856 150.062 18.3286 149.972 17.3822 150.073C13.908 150.863 10.8714 152.956 8.9017 155.92C0.914586 166.413 -0.349784 182.323 5.81787 198.447C9.79454 208.158 14.7544 217.438 20.6203 226.143C23.0565 230.051 25.5852 234.082 27.9289 238.144C42.2996 263.378 50.1633 291.258 56.331 317.63L56.7627 319.445C58.5949 328.821 61.4919 337.958 65.3975 346.679C70.2581 355.895 77.1088 363.919 85.4549 370.172C93.801 376.425 103.434 380.751 113.659 382.837C134.336 386.926 155.788 384.024 174.627 374.59C182.17 371.236 188.98 366.437 194.672 360.465C200.461 353.473 204.924 345.485 207.84 336.894C212.99 323.415 217.091 309.198 220.792 295.504C226.497 275.071 232.387 253.93 242.378 234.79C245.462 229.189 248.546 223.681 251.815 218.357C257.936 208.803 263.1 198.671 267.234 188.108C270.78 178.076 270.935 169.644 267.728 163.49C266.601 161.437 265.037 159.657 263.146 158.274C261.254 156.892 259.081 155.941 256.78 155.489C255.174 155.11 253.501 155.11 251.895 155.489C250.289 155.868 248.794 156.616 247.528 157.674L246.202 156.166C247.69 154.895 249.454 153.989 251.355 153.519C253.256 153.049 255.24 153.028 257.15 153.458C259.76 153.995 262.22 155.102 264.352 156.698C266.484 158.293 268.237 160.339 269.485 162.69C272.97 169.46 272.816 178.261 269.084 188.846C264.908 199.543 259.659 209.791 253.419 219.434C250.335 224.758 246.942 230.236 244.167 235.775C234.299 254.731 228.44 275.779 222.765 296.089C218.91 309.875 214.932 324.123 209.721 337.663C206.739 346.491 202.161 354.7 196.214 361.881C190.335 368.043 183.306 372.998 175.521 376.467C161.815 383.125 146.789 386.637 131.546 386.745Z" fill="#FF8A00"/>
<path d="M154.181 28.4287C155.775 25.9031 156.689 23.0093 156.833 20.0277C157.007 18.6887 156.884 17.3278 156.474 16.0411C156.064 14.7545 155.376 13.5732 154.458 12.5807C153.687 11.8422 152.731 11.2575 152.022 10.4574C151.313 9.65734 150.973 8.82648 150.387 8.05716C149.752 7.23182 148.935 6.56371 147.999 6.10473C147.063 5.64576 146.034 5.40827 144.991 5.41072C142.863 5.41072 140.612 6.39544 138.823 5.41072C137.713 4.85681 136.973 3.74899 135.739 3.13354C134.578 2.54392 133.247 2.38052 131.977 2.67195C130.868 3.05792 129.697 3.2353 128.523 3.19508C126.858 2.9489 125.717 1.47181 124.237 0.640953C123.476 0.252749 122.639 0.0353358 121.785 0.00395927C120.931 -0.0274173 120.08 0.128002 119.293 0.459319C118.505 0.790636 117.8 1.28983 117.226 1.9219C116.653 2.55397 116.225 3.30361 115.972 4.11826C115.771 4.89535 115.771 5.71067 115.972 6.48776C116.311 8.36489 117.606 9.87275 117.699 11.7499C117.791 13.627 116.65 15.258 117.699 16.9197C118.747 18.5814 120.289 18.643 121.029 20.2124C122.016 22.3357 121.029 25.1052 121.924 27.3824C122.386 28.8287 122.633 30.8905 123.99 31.8137C125.871 33.1061 129.973 32.0291 132.224 31.8137L140.951 31.1059C144.806 30.7366 149.555 31.1059 153.04 29.198C153.46 29.007 153.846 28.747 154.181 28.4287Z" fill="#3B2645"/>
<path d="M124.576 27.0746C124.27 26.655 123.869 26.3136 123.405 26.0782C122.942 25.8428 122.429 25.72 121.909 25.72C121.389 25.72 120.876 25.8428 120.412 26.0782C119.949 26.3136 119.548 26.655 119.241 27.0746C116.558 30.1519 121.092 36.3064 124.576 36.6757C124.779 33.4785 124.779 30.2718 124.576 27.0746Z" fill="#FFEDE5"/>
<path d="M167.904 78.6187C167.091 83.8021 166 88.9383 164.635 94.005C164.419 94.9589 164.234 95.8821 164.111 96.7745C163.988 97.6669 163.864 98.3439 163.71 99.4825C163.71 99.6979 163.71 99.9441 163.71 100.16C163.71 100.898 163.494 101.667 163.402 102.498L159.516 138.656C135.37 145.272 110.175 138.656 110.175 138.656C110.175 138.656 110.175 138.195 110.175 137.302C109.774 133.209 108.54 120.193 107.307 105.514C107.307 105.514 107.307 105.299 107.307 105.206C107.319 104.981 107.319 104.755 107.307 104.529C106.783 98.3747 106.289 91.8509 105.888 85.6348C105.148 74.8336 104.686 64.8633 104.778 58.678C104.778 56.4008 110.113 56.647 113.752 56.1546C116.435 55.7853 119.18 55.5392 121.554 55.4161C123.929 55.293 125.717 55.2314 126.92 55.2314H128.277C128.277 55.2314 128.585 51.6926 128.585 51.6618L129.418 42.9839C129.823 43.0881 130.235 43.1601 130.652 43.1993C131.415 43.3421 132.188 43.4244 132.964 43.4455C133.982 43.4455 134.938 43.4455 135.832 43.4455L137.158 43.2916H137.929C138.793 43.1378 139.625 42.9531 140.396 42.7377C141.167 42.5223 141.414 42.43 141.908 42.2762C144.16 41.5558 146.299 40.5197 148.26 39.1989L148.538 39.0142L149.062 38.6142L149.432 38.3372C149.432 38.7681 149.432 38.9527 149.432 39.1373C149.185 41.1683 148.908 43.7532 148.784 46.3074C148.784 48.0922 148.599 49.8462 148.538 51.3541C148.476 52.8619 147.983 55.0468 149.062 55.8161C149.447 56.032 149.863 56.1877 150.296 56.2777C151.988 56.5444 153.702 56.6577 155.415 56.6162C155.939 56.6162 156.463 56.6162 156.987 56.6162C158.302 56.5398 159.62 56.5398 160.935 56.6162C161.853 56.6135 162.763 56.7946 163.611 57.1487C164.458 57.5029 165.226 58.0228 165.869 58.678C166.668 59.8325 167.176 61.1627 167.349 62.5553L167.719 65.0787C168.306 69.5696 168.368 74.1134 167.904 78.6187Z" fill="#FFEDE5"/>
<path d="M149.308 38.1216C148.891 40.3238 147.99 42.4065 146.67 44.2199C145.351 46.0332 143.644 47.5323 141.675 48.6092C139.705 49.6861 137.521 50.3142 135.279 50.4482C133.037 50.5822 130.793 50.2189 128.708 49.3844L129.294 43.0144C132.787 43.6867 136.383 43.5975 139.838 42.753C143.292 41.9084 146.523 40.3286 149.308 38.1216Z" fill="#E0855C" fill-opacity="0.1"/>
<path d="M125.193 17.843C123.404 19.6893 123.25 23.8129 123.127 28.3672C122.664 42.2149 126.827 46.5231 133.889 47.2924C140.951 48.0617 148.383 45.3229 149.894 32.5215C150.665 26.09 151.467 20.2124 149.123 17.4121C145.762 13.2886 130.62 12.1808 125.193 17.843Z" fill="#FFEDE5"/>
<path d="M148.846 30.6443C148.846 30.6443 151.005 24.9206 154.428 27.9671C157.851 31.0136 153.133 39.6607 147.89 39.0145C147.952 39.0145 147.242 32.6138 148.846 30.6443Z" fill="#FFEDE5"/>
<path d="M152.917 30.5827C152.107 30.835 151.382 31.3032 150.82 31.9367C150.183 32.4675 149.668 33.1287 149.309 33.8754C149.309 34.0908 149.525 34.2446 149.679 34.0908C150.114 33.6613 150.525 33.2094 150.912 32.7368C151.194 33.0463 151.542 33.2883 151.93 33.4445C152.238 33.4445 152.485 33.1676 152.362 32.9214C152.148 32.5955 151.864 32.322 151.529 32.1213C152.105 31.7535 152.651 31.342 153.164 30.8904C153.173 30.8534 153.174 30.8146 153.166 30.7772C153.158 30.7398 153.141 30.7048 153.117 30.675C153.094 30.6451 153.063 30.6212 153.028 30.6052C152.993 30.5892 152.955 30.5815 152.917 30.5827Z" fill="#E0855C" fill-opacity="0.1"/>
<path d="M129.202 28.0592C129.202 28.0592 127.999 28.49 128.184 26.3667C128.369 24.2434 129.202 24.7357 129.202 24.7357C129.202 24.7357 130.034 24.7357 129.911 26.3975C129.788 28.0592 129.202 28.0592 129.202 28.0592Z" fill="#3B2645"/>
<path d="M141.322 28.0592C141.322 28.0592 140.15 28.49 140.335 26.3667C140.52 24.2434 141.322 24.7357 141.322 24.7357C141.322 24.7357 142.154 24.7357 142.031 26.3975C141.908 28.0592 141.322 28.0592 141.322 28.0592Z" fill="#3B2645"/>
<path d="M130.498 21.628C130.013 21.3542 129.455 21.2395 128.901 21.3003C128.348 21.361 127.827 21.5941 127.414 21.9665C127.393 22.0085 127.383 22.0552 127.385 22.1022C127.387 22.1491 127.401 22.1947 127.426 22.2347C127.451 22.2747 127.485 22.3078 127.526 22.3309C127.567 22.3539 127.614 22.3662 127.661 22.3665C128.092 22.3665 128.462 22.1203 128.894 22.0895C129.346 22.068 129.798 22.1414 130.22 22.305C130.621 22.428 130.899 21.8126 130.498 21.628Z" fill="#3B2645"/>
<path d="M143.141 22.6741C142.648 21.4432 140.52 21.3509 139.595 22.0894C139.55 22.1239 139.514 22.1682 139.489 22.2189C139.464 22.2696 139.451 22.3253 139.451 22.3818C139.451 22.4382 139.464 22.4939 139.489 22.5446C139.514 22.5953 139.55 22.6396 139.595 22.6741C140.149 22.7202 140.706 22.7202 141.26 22.6741C141.708 22.7462 142.144 22.8808 142.555 23.0741C142.608 23.1517 142.69 23.205 142.783 23.2223C142.875 23.2396 142.971 23.2195 143.049 23.1665C143.126 23.1134 143.18 23.0317 143.197 22.9394C143.214 22.8471 143.194 22.7516 143.141 22.6741Z" fill="#3B2645"/>
<path d="M131.638 37.9679C134.24 38.3082 136.883 37.8577 139.224 36.6754C138.874 37.4966 138.356 38.2356 137.703 38.845C137.049 39.4545 136.276 39.9209 135.431 40.2143C132.748 40.9529 131.638 37.9679 131.638 37.9679Z" fill="white"/>
<path d="M116.065 58.6474C123.158 63.6018 123.805 73.2336 120.351 80.9268C118.008 86.0658 113.66 89.6662 111.1 94.5283C108.433 99.2439 105.336 103.704 101.849 107.853C94.2006 117.546 86.9228 126.316 84.1165 129.64C74.4641 141.149 54.1725 156.351 46.8638 161.643C45.1986 162.874 44.2117 163.551 44.2117 163.551C44.2117 163.551 37.2114 159.889 39.0617 153.119C39.0617 153.119 66.8162 123.701 70.9177 117.7C75.4503 109.901 79.5678 101.868 83.253 93.6359C87.9816 84.5067 92.9054 75.5005 98.0246 66.6175C100.368 62.5247 103.36 57.3857 108.51 56.4625C110.588 56.2295 112.686 56.672 114.492 57.7242C115.038 57.9941 115.563 58.3026 116.065 58.6474Z" fill="#FFEDE5"/>
<path d="M39.0618 153.15C39.8213 153.092 40.5843 153.092 41.3438 153.15C41.3438 153.15 48.0049 156.843 46.8639 161.644C46.8639 161.644 46.1546 162.29 45.0444 163.275C43.9342 164.259 42.7315 165.429 41.2821 166.906C39.8327 168.383 36.533 173.06 35.1145 172.66C34.7839 172.538 34.495 172.325 34.2818 172.045L31.4139 168.968C29.8103 167.183 27.1274 164.167 29.1627 161.797C27.6825 162.69 24.2286 164.875 22.5325 163.828L21.8232 162.69C21.8232 162.69 26.9115 158.905 29.0085 157.028C31.8374 154.661 35.3731 153.297 39.0618 153.15Z" fill="#FFEDE5"/>
<path d="M124.484 105.791C124.473 105.955 124.473 106.12 124.484 106.284C124.484 106.284 124.761 106.284 124.7 106.284L124.484 105.791Z" fill="#D6BED3"/>
<path d="M135.925 205.525C133.088 228.205 129.757 247.93 129.757 247.93C130.22 253.408 130.436 259.347 130.436 265.44C130.436 277.379 129.634 290.058 128.616 301.228C127.321 315.476 125.532 327.6 124.761 333.693V334.463C125.902 374.867 114.369 380.222 108.972 371.39C103.576 362.558 108.972 336.524 108.972 336.524C108.99 336.289 108.99 336.052 108.972 335.817C106.702 323.726 105.188 311.506 104.439 299.228C102.589 269.502 105.765 249.161 105.395 245.468C98.9498 180.846 107.955 145.211 107.955 145.211C109.36 140.033 111.899 135.23 115.387 131.148C121.955 124.07 129.85 125.855 134.815 134.502C135.337 135.389 135.81 136.303 136.233 137.241C138.256 142.208 139.404 147.486 139.626 152.843C140.119 166.229 138.238 186.877 135.925 205.525Z" fill="#F5A784"/>
<path d="M167.781 297.658C167.063 310.193 165.56 322.67 163.278 335.016L163.001 336.524C163.001 336.524 168.397 362.65 163.001 371.39C157.604 380.129 146.194 375.021 147.211 335.016C147.211 334.832 147.211 334.647 147.211 334.493C146.348 328.708 144.621 316.183 143.264 301.351C142.216 290.088 141.414 277.472 141.414 265.532C141.414 259.377 141.661 253.469 142.123 247.961C142.123 247.961 138.7 228.235 135.955 205.587C133.643 186.908 131.731 166.259 132.532 152.996C132.763 147.637 133.921 142.359 135.955 137.394C136.359 136.428 136.834 135.492 137.374 134.594C143.079 124.716 152.577 123.854 159.578 134.994C161.583 138.223 163.159 141.699 164.265 145.334C164.265 145.334 173.27 180.876 166.825 245.591C166.362 249.222 169.415 268.855 167.781 297.658Z" fill="#F5A784"/>
<path d="M38.3218 173.121C38.9361 173.831 39.6993 174.397 40.5573 174.78C41.4152 175.163 42.347 175.353 43.2867 175.337C43.7172 175.237 44.1229 175.051 44.4792 174.79C44.8356 174.529 45.1353 174.199 45.3601 173.819C45.5849 173.44 45.7303 173.018 45.7873 172.581C45.8444 172.144 45.812 171.699 45.6921 171.275C45.3335 170.339 44.7513 169.504 43.996 168.844C39.3394 164.228 34.5595 159.612 29.7179 155.335C28.9088 154.425 27.8274 153.799 26.634 153.55C25.5241 153.549 24.4501 153.942 23.603 154.658C22.7559 155.373 22.1908 156.366 22.0083 157.458C22.0083 159.427 23.7044 160.166 25.0921 161.274C29.4712 165.151 33.8502 169.213 38.3218 173.121Z" fill="#3B2645"/>
<path d="M37.6427 167.675C37.8346 167.478 37.9911 167.249 38.1052 166.998C38.1834 166.68 38.1879 166.349 38.1184 166.029C38.049 165.709 37.9073 165.409 37.7043 165.152C36.5633 163.275 34.2196 160.259 31.9067 159.982C31.1431 159.943 30.3826 160.105 29.7009 160.45C29.0193 160.796 28.4401 161.313 28.0211 161.951C27.329 162.945 26.8889 164.091 26.7385 165.292C26.5881 166.492 26.7319 167.712 27.1576 168.844C27.8345 170.883 29.225 172.609 31.0741 173.707C31.9968 174.097 33.0349 174.116 33.9716 173.761C34.9083 173.405 35.6711 172.702 36.1007 171.799C36.5633 170.66 36.4091 169.275 37.1492 168.321C37.2896 168.089 37.4551 167.872 37.6427 167.675Z" fill="#FFEDE5"/>
<path d="M155.661 58.6472C148.538 63.6016 147.89 73.2334 151.375 80.9266C153.688 86.0656 158.036 89.666 160.626 94.5281C163.315 99.23 166.411 103.689 169.878 107.853C177.526 117.546 184.834 126.316 187.61 129.64C197.293 141.21 217.585 156.35 224.893 161.643L227.576 163.551C227.576 163.551 234.546 159.889 232.695 153.119C232.695 153.119 204.941 123.701 200.839 117.7C196.295 109.907 192.177 101.874 188.504 93.6357C183.755 84.4039 178.852 75.5106 173.702 66.6173C171.358 62.5245 168.398 57.3855 163.217 56.4623C161.138 56.2315 159.041 56.6738 157.234 57.724C156.688 57.9926 156.162 58.3011 155.661 58.6472Z" fill="#FFEDE5"/>
<path d="M232.664 153.15C231.895 153.092 231.121 153.092 230.352 153.15C230.352 153.15 223.691 156.843 224.832 161.643C224.832 161.643 225.572 162.289 226.651 163.274C227.73 164.259 228.995 165.428 230.413 166.905C231.832 168.382 235.193 173.06 236.581 172.66C236.907 172.53 237.194 172.318 237.414 172.044L240.251 168.967C241.885 167.182 244.537 164.167 242.533 161.797C243.982 162.69 247.436 164.874 249.163 163.828L249.749 162.69C249.749 162.69 244.661 158.904 242.533 157.027C239.758 154.69 236.291 153.328 232.664 153.15Z" fill="#FFEDE5"/>
<path d="M233.374 173.121C232.759 173.831 231.996 174.398 231.138 174.78C230.28 175.163 229.348 175.353 228.409 175.337C227.973 175.244 227.56 175.063 227.197 174.805C226.834 174.548 226.527 174.218 226.296 173.838C226.065 173.457 225.914 173.034 225.853 172.593C225.792 172.152 225.822 171.704 225.941 171.275C226.326 170.38 226.918 169.589 227.668 168.967C232.335 164.351 237.105 159.848 241.977 155.458C242.782 154.543 243.865 153.916 245.061 153.673C246.168 153.674 247.237 154.067 248.079 154.783C248.921 155.5 249.48 156.491 249.656 157.581C249.656 159.551 247.991 160.289 246.572 161.397C242.224 165.151 237.845 169.213 233.374 173.121Z" fill="#3B2645"/>
<path d="M234.083 167.675C233.873 167.487 233.705 167.256 233.59 166.998C233.525 166.677 233.529 166.347 233.604 166.028C233.678 165.709 233.821 165.41 234.021 165.152C235.132 163.275 237.475 160.259 239.788 159.982C240.552 159.943 241.312 160.105 241.994 160.45C242.676 160.796 243.255 161.313 243.674 161.951C244.358 162.95 244.786 164.1 244.921 165.302C245.055 166.504 244.892 167.72 244.445 168.844C243.788 170.894 242.393 172.626 240.528 173.707C239.606 174.097 238.568 174.116 237.631 173.761C236.694 173.405 235.931 172.702 235.502 171.799C235.07 170.66 235.224 169.275 234.453 168.321L234.083 167.675Z" fill="#FFEDE5"/>
<path d="M168.243 277.934V281.011C168.243 283.073 168.243 285.196 168.243 287.381V289.873C168.243 292.397 168.058 295.012 167.935 297.69C159.95 299.888 151.729 301.117 143.449 301.352C143.11 297.905 142.431 288.735 142.4 287.719C142.4 285.627 141.938 279.718 141.907 278.918C141.722 274.425 141.599 269.933 141.599 265.532C141.599 259.808 141.815 254.208 142.246 249.007C142.246 248.638 142.246 248.299 142.246 247.961C142.246 247.622 138.823 228.266 136.079 205.587C135.77 207.987 135.462 210.388 135.153 212.695C132.563 232.205 129.818 247.961 129.818 247.961C130.281 253.438 130.497 259.378 130.497 265.471C130.497 270.117 130.497 274.702 130.158 279.564C130.158 280.365 129.541 290.643 129.448 291.627C129.233 294.92 128.955 298.151 128.677 301.259C124.36 301.075 120.104 300.798 115.88 300.428C112.549 300.151 108.355 299.967 104.284 299.382C104.099 296.613 103.976 293.966 103.883 291.381C103.883 290.735 103.883 290.089 103.883 289.442C103.883 286.611 103.883 283.934 103.883 281.349V279.318C103.883 260.67 105.703 248.392 105.425 245.468C98.9802 180.846 107.985 145.211 107.985 145.211C109.391 140.033 111.929 135.23 115.417 131.148C118.06 131.556 120.654 132.237 123.157 133.179C126.97 134.173 130.906 134.619 134.845 134.502H137.682C141.105 134.502 144.528 134.102 147.921 134.01H150.203C153.454 133.962 156.702 134.271 159.886 134.933C161.789 138.197 163.261 141.693 164.265 145.334C166.756 156.949 168.221 168.76 168.644 180.63C169.688 202.299 169.08 224.015 166.824 245.591C166.454 248.33 168.089 260.055 168.243 277.934Z" fill="#3B2645"/>
<path d="M124.576 334.462C125.008 350.372 123.497 360.834 121.153 367.143C117.576 376.898 111.902 376.775 108.818 371.513C107.985 370.052 107.411 368.46 107.122 366.804C104.871 355.819 108.818 336.647 108.818 336.647C108.835 336.412 108.835 336.175 108.818 335.939C110.352 337.056 112.092 337.861 113.937 338.309C116.008 338.816 118.187 338.641 120.15 337.809C122.112 336.977 123.752 335.533 124.823 333.693L124.576 334.462Z" fill="#FF8A00"/>
<path d="M164.851 365.943C164.588 367.899 163.961 369.788 163.001 371.513C159.67 376.929 153.935 376.898 150.388 366.405C148.229 360.25 146.842 350.003 147.304 334.986C149.614 337.057 152.589 338.236 155.692 338.31C158.461 338.055 161.091 336.984 163.248 335.232C163.305 335.713 163.305 336.198 163.248 336.679C163.248 336.679 166.763 354.834 164.851 365.943Z" fill="#FF8A00"/>
<path d="M119.919 343.909C118.358 342.98 116.573 342.489 114.754 342.489C112.935 342.489 111.151 342.98 109.589 343.909C109.531 343.974 109.492 344.053 109.477 344.137C109.462 344.222 109.471 344.31 109.503 344.39C109.535 344.47 109.589 344.54 109.659 344.591C109.728 344.642 109.811 344.672 109.897 344.679C111.439 344.679 112.981 344.033 114.43 344.063C116.127 344.207 117.802 344.537 119.426 345.048C119.565 345.065 119.706 345.037 119.827 344.968C119.949 344.898 120.045 344.792 120.1 344.663C120.156 344.535 120.168 344.392 120.136 344.256C120.103 344.12 120.027 343.999 119.919 343.909Z" fill="#291B30"/>
<path d="M119.426 348.833C116.793 347.302 113.702 346.746 110.699 347.264C109.681 347.264 109.65 348.956 110.699 348.864C112.15 348.725 113.613 348.787 115.047 349.049C116.373 349.295 117.576 349.849 118.902 350.126C119.065 350.161 119.235 350.137 119.383 350.059C119.53 349.981 119.645 349.853 119.708 349.699C119.77 349.545 119.777 349.373 119.725 349.215C119.673 349.057 119.568 348.921 119.426 348.833Z" fill="#291B30"/>
<path d="M160.257 343.91C157.913 343.11 152.824 342.802 151.005 344.956C150.758 345.233 151.005 345.818 151.344 345.787C152.794 345.602 154.058 345.017 155.569 344.956C157.08 344.894 158.653 345.294 160.071 345.202C160.157 345.214 160.243 345.21 160.326 345.188C160.41 345.167 160.488 345.13 160.557 345.078C160.625 345.027 160.683 344.962 160.727 344.888C160.771 344.815 160.799 344.733 160.812 344.648C160.824 344.563 160.819 344.477 160.798 344.394C160.776 344.311 160.739 344.233 160.687 344.164C160.636 344.096 160.571 344.038 160.497 343.994C160.423 343.951 160.342 343.922 160.257 343.91Z" fill="#291B30"/>
<path d="M161.397 349.11C158.837 347.972 152.454 347.141 151.159 350.587C150.974 351.049 151.56 351.418 151.93 351.203C153.262 350.462 154.747 350.034 156.27 349.954C157.794 349.874 159.316 350.144 160.719 350.741C161.644 351.111 162.353 349.51 161.397 349.11Z" fill="#291B30"/>
<path d="M44.6435 54.9851C44.6435 54.8005 44.2734 54.8005 44.2426 54.9851C42.7007 65.4786 43.595 76.526 43.595 87.2656C43.595 98.6208 43.2249 110.068 43.9033 121.393C43.9325 121.513 44.0016 121.621 44.0995 121.698C44.1974 121.775 44.3184 121.817 44.443 121.817C44.5676 121.817 44.6886 121.775 44.7865 121.698C44.8844 121.621 44.9535 121.513 44.9827 121.393C45.6303 110.068 45.2602 98.6208 45.2602 87.2656C45.2602 76.7722 46.1545 65.5709 44.6435 54.9851Z" fill="#F7F8F8"/>
<path d="M58.1197 58.555C58.0868 58.4039 58.0031 58.2686 57.8825 58.1715C57.7619 58.0744 57.6116 58.0215 57.4566 58.0215C57.3017 58.0215 57.1514 58.0744 57.0308 58.1715C56.9102 58.2686 56.8265 58.4039 56.7936 58.555C56.7936 68.6484 56.146 78.9265 56.7936 88.9892C56.7936 89.1605 56.8619 89.3249 56.9833 89.4461C57.1048 89.5673 57.2695 89.6354 57.4412 89.6354C57.613 89.6354 57.7777 89.5673 57.8992 89.4461C58.0206 89.3249 58.0888 89.1605 58.0888 88.9892C58.7981 78.9265 58.1814 68.6484 58.1197 58.555Z" fill="#F7F8F8"/>
<path d="M195.998 164.228C195.973 164.137 195.919 164.057 195.844 164C195.768 163.942 195.676 163.911 195.582 163.911C195.487 163.911 195.395 163.942 195.32 164C195.245 164.057 195.191 164.137 195.165 164.228C194.297 177.442 194.122 190.693 194.641 203.925C194.641 217.157 194.641 230.359 195.135 243.591C195.161 243.689 195.219 243.776 195.3 243.838C195.381 243.901 195.48 243.934 195.582 243.934C195.684 243.934 195.783 243.901 195.864 243.838C195.945 243.776 196.003 243.689 196.029 243.591C196.461 230.359 196.461 217.157 196.522 203.925C197.026 190.692 196.851 177.443 195.998 164.228Z" fill="#F7F8F8"/>
<path d="M219.774 86.8352C219.678 78.03 219.101 69.2365 218.047 60.4938C218.047 59.9707 217.214 60.1245 217.184 60.4938C216.946 69.9491 217.224 79.4103 218.016 88.8354C218.417 97.6056 218.325 106.591 219.496 115.269C219.496 116.069 220.853 115.823 220.884 115.084C221.316 105.699 220.329 96.1285 219.774 86.8352Z" fill="#F7F8F8"/>
<path d="M225.942 91.7283C225.92 91.6594 225.877 91.5992 225.819 91.5565C225.761 91.5137 225.69 91.4907 225.618 91.4907C225.546 91.4907 225.475 91.5137 225.417 91.5565C225.359 91.5992 225.316 91.6594 225.294 91.7283C224.477 104.371 224.415 117.051 225.109 129.702C225.09 129.779 225.089 129.859 225.105 129.937C225.122 130.015 225.156 130.087 225.205 130.15C225.254 130.213 225.317 130.263 225.388 130.298C225.46 130.333 225.539 130.351 225.618 130.351C225.698 130.351 225.776 130.333 225.848 130.298C225.919 130.263 225.982 130.213 226.031 130.15C226.08 130.087 226.114 130.015 226.131 129.937C226.147 129.859 226.146 129.779 226.127 129.702C226.821 117.051 226.759 104.371 225.942 91.7283Z" fill="#F7F8F8"/>
<path d="M135 212.664C135.047 210.268 135.357 207.885 135.925 205.556C135.616 207.956 135.308 210.356 135 212.664Z" fill="#291B30"/>
<path d="M168.552 180.63C164.389 155.673 130.004 154.504 130.004 154.504C127.876 144.226 141.753 141.149 141.753 141.149L149.864 134.163C153.116 134.115 156.363 134.425 159.547 135.086C161.556 138.285 163.142 141.729 164.265 145.334C166.706 156.955 168.14 168.764 168.552 180.63Z" fill="#291B30"/>
<path d="M164.759 148.011C137.004 161.028 106.845 149.088 106.845 149.088C109.034 142.934 107.4 111.545 107.245 105.576C107.245 105.576 107.245 105.36 107.245 105.268C107.258 105.042 107.258 104.816 107.245 104.591C113.074 91.1124 113.721 65.1403 113.752 56.2162C116.374 55.8162 119.118 55.6008 121.493 55.4777C122.418 65.448 125.718 91.0201 134.907 89.9123C144.097 88.8045 148.476 66.0327 150.08 56.0624C151.771 56.3454 153.486 56.4588 155.199 56.4009C155.723 56.4009 156.247 56.4009 156.772 56.4009C155.97 70.0332 163.556 98.6825 163.772 99.4826C163.772 99.698 163.772 99.9442 163.772 100.16C163.772 100.898 163.556 101.667 163.464 102.498C163.464 102.498 163.464 102.837 163.464 103.021C161.521 120.377 164.759 148.011 164.759 148.011Z" fill="#FF8A00"/>
</svg>
