<svg width="102" height="112" viewBox="0 0 102 112" fill="none" xmlns="http://www.w3.org/2000/svg">
<g filter="url(#filter0_d_326_3934)">
<rect x="40" y="30" width="32" height="32" rx="8" fill="white"/>
</g>
<path fill-rule="evenodd" clip-rule="evenodd" d="M58.5665 39.6671C58.9871 39.6671 59.4071 39.7265 59.8065 39.8605C62.2671 40.6605 63.1538 43.3605 62.4131 45.7205C61.9931 46.9265 61.3065 48.0271 60.4071 48.9265C59.1198 50.1731 57.7071 51.2798 56.1865 52.2331L56.0198 52.3338L55.8465 52.2265C54.3205 51.2798 52.8998 50.1731 51.6005 48.9198C50.7071 48.0205 50.0198 46.9265 49.5931 45.7205C48.8398 43.3605 49.7265 40.6605 52.2138 39.8465C52.4071 39.7798 52.6065 39.7331 52.8065 39.7071H52.8865C53.0738 39.6798 53.2598 39.6671 53.4465 39.6671H53.5198C53.9398 39.6798 54.3465 39.7531 54.7405 39.8871H54.7798C54.8065 39.8998 54.8265 39.9138 54.8398 39.9265C54.9871 39.9738 55.1265 40.0271 55.2598 40.1005L55.5131 40.2138C55.5744 40.2464 55.6431 40.2963 55.7024 40.3394C55.7401 40.3668 55.774 40.3914 55.7998 40.4071C55.8107 40.4135 55.8217 40.42 55.8329 40.4265C55.8901 40.4599 55.9496 40.4946 55.9998 40.5331C56.7405 39.9671 57.6398 39.6605 58.5665 39.6671ZM60.3398 44.4671C60.6131 44.4598 60.8465 44.2405 60.8665 43.9598V43.8805C60.8865 42.9465 60.3205 42.1005 59.4598 41.7738C59.1865 41.6798 58.8865 41.8271 58.7865 42.1071C58.6931 42.3871 58.8398 42.6938 59.1198 42.7931C59.5471 42.9531 59.8331 43.3738 59.8331 43.8398V43.8605C59.8205 44.0131 59.8665 44.1605 59.9598 44.2738C60.0531 44.3871 60.1931 44.4531 60.3398 44.4671Z" fill="#FF0000"/>
<defs>
<filter id="filter0_d_326_3934" x="0" y="0" width="112" height="112" filterUnits="userSpaceOnUse" color-interpolation-filters="sRGB">
<feFlood flood-opacity="0" result="BackgroundImageFix"/>
<feColorMatrix in="SourceAlpha" type="matrix" values="0 0 0 0 0 0 0 0 0 0 0 0 0 0 0 0 0 0 127 0" result="hardAlpha"/>
<feOffset dy="10"/>
<feGaussianBlur stdDeviation="20"/>
<feColorMatrix type="matrix" values="0 0 0 0 0.113725 0 0 0 0 0.0862745 0 0 0 0 0.0901961 0 0 0 0.07 0"/>
<feBlend mode="normal" in2="BackgroundImageFix" result="effect1_dropShadow_326_3934"/>
<feBlend mode="normal" in="SourceGraphic" in2="effect1_dropShadow_326_3934" result="shape"/>
</filter>
</defs>
</svg>
