<svg width="28" height="18" viewBox="0 0 28 18" fill="none" xmlns="http://www.w3.org/2000/svg">
<g clip-path="url(#clip0_672_4120)">
<path fill-rule="evenodd" clip-rule="evenodd" d="M27.5 13.3904C27.5 15.936 21.4591 17.9998 14.0007 17.9998C6.5423 17.9998 0.5 15.936 0.5 13.3904C0.5 10.8447 6.5409 8.78085 14.0007 8.78085C21.4605 8.78085 27.5 10.8447 27.5 13.3904Z" fill="#E2CAB3"/>
<path fill-rule="evenodd" clip-rule="evenodd" d="M27.5 12.882C27.5 15.4276 21.4591 17.4915 14.0007 17.4915C6.5423 17.4915 0.5 15.4276 0.5 12.882C0.5 10.3363 6.5409 8.27246 14.0007 8.27246C21.4605 8.27246 27.5 10.3363 27.5 12.882Z" fill="white"/>
<path fill-rule="evenodd" clip-rule="evenodd" d="M27.5 12.809C27.5 15.275 21.4591 17.2738 14.0007 17.2738C6.5423 17.2738 0.5 15.275 0.5 12.809C0.5 10.343 6.5409 8.34552 14.0007 8.34552C21.4605 8.34552 27.5 10.3443 27.5 12.809Z" fill="#E7D8C8"/>
<path fill-rule="evenodd" clip-rule="evenodd" d="M26.9016 12.8091C26.9016 14.569 21.7317 15.9945 15.3551 15.9945C8.97842 15.9945 3.80713 14.569 3.80713 12.8091C3.80713 11.0492 8.97701 9.62372 15.3551 9.62372C21.7331 9.62372 26.9016 11.0505 26.9016 12.8091Z" fill="#E2CAB3"/>
<path d="M25.928 12.9232C25.6821 11.8349 24.4852 11.3743 23.5397 11.3014C22.9567 11.2576 22.3737 11.3743 21.7921 11.4049C21.4689 11.4224 21.1447 11.4099 20.8241 11.3677C20.4701 11.3213 20.1315 11.2005 19.7747 11.1726C19.1552 11.1248 18.5412 11.3279 17.9638 11.5403C17.2853 11.7911 16.6067 12.0194 15.9113 12.2132C14.5396 12.608 13.1264 12.8603 11.6968 12.9657C11.1153 13.0157 10.53 13.0126 9.94912 12.9564C9.54171 12.9086 9.13992 12.8237 8.73251 12.7786C8.01884 12.7029 7.22791 12.7918 6.93991 13.5842C6.724 13.5835 6.51106 13.6318 6.31896 13.7249C6.02816 13.843 5.63901 14.0527 5.48869 14.3566C5.17541 14.9924 6.19112 15.2419 6.56762 15.3096C6.92586 15.3733 7.28691 15.3959 7.64655 15.4317C8.14668 15.4821 8.54847 15.7064 8.97134 15.9799C10.0376 16.6687 11.4607 16.7138 12.6745 16.6342C13.3441 16.5867 14.006 16.4697 14.6484 16.2851C15.3269 16.094 16.0251 16.2095 16.7107 16.3196C17.2996 16.4371 17.9112 16.4023 18.4808 16.2188C19.054 16.0263 19.5513 15.6746 20.0416 15.3216C20.6134 14.9101 21.2639 14.8849 21.9368 14.8331C22.6002 14.7942 23.2584 14.6987 23.9036 14.5478C24.4452 14.4184 24.9725 14.2407 25.4784 14.0169C25.9083 13.8032 26.0291 13.405 25.928 12.9232Z" fill="#EEBE30"/>
<path d="M22.0954 11.9769C22.0954 13.6917 18.2418 15.2857 13.6016 15.2857C8.96134 15.2857 5.0769 13.5736 5.0769 11.8588C5.0769 10.144 8.96134 9.07156 13.6016 9.07156C18.2418 9.07156 22.0954 10.2621 22.0954 11.9769Z" fill="#E3AC8A"/>
<path d="M22.0027 11.6462C22.0027 13.361 18.2419 14.7506 13.6017 14.7506C8.96143 14.7506 5.19922 13.361 5.19922 11.6462C5.19922 9.93144 8.96143 8.5405 13.6017 8.5405C18.2419 8.5405 22.0027 9.93144 22.0027 11.6462Z" fill="#DA840D"/>
<path d="M19.7129 11.3517C19.7129 12.6245 16.9229 13.6544 13.4796 13.6544C10.0363 13.6544 7.24341 12.6245 7.24341 11.3517C7.24341 10.0789 10.0377 9.04892 13.4796 9.04892C16.9215 9.04892 19.7129 10.0868 19.7129 11.3517Z" fill="#F0A508"/>
<path d="M9.28454 12.2011C9.28454 12.3338 9.12579 12.4493 8.9291 12.4493C8.73242 12.4493 8.57507 12.3378 8.57507 12.2011C8.57507 12.0644 8.73382 11.9529 8.9291 11.9529C9.12438 11.9529 9.28454 12.0644 9.28454 12.2011Z" fill="#DA840D"/>
<path d="M8.57524 11.1567C8.57332 11.1933 8.56009 11.2285 8.53719 11.258C8.51428 11.2875 8.48272 11.3101 8.4464 11.3228C8.41008 11.3356 8.37059 11.338 8.33284 11.3298C8.29508 11.3215 8.26072 11.303 8.23399 11.2765C8.20726 11.25 8.18935 11.2167 8.18247 11.1806C8.17559 11.1446 8.18004 11.1075 8.19528 11.0738C8.21052 11.0402 8.23587 11.0115 8.2682 10.9913C8.30053 10.9711 8.33841 10.9603 8.37716 10.9603C8.40385 10.9608 8.43017 10.9663 8.45459 10.9765C8.47902 10.9866 8.50108 11.0013 8.51949 11.0195C8.53791 11.0378 8.55231 11.0593 8.56188 11.0828C8.57145 11.1064 8.57599 11.1315 8.57524 11.1567Z" fill="#DA840D"/>
<path d="M11.0365 12.5023C11.041 12.5668 11.0249 12.6311 10.9902 12.6869C10.9556 12.7427 10.904 12.7873 10.8421 12.815C10.7803 12.8427 10.711 12.8522 10.6434 12.8422C10.5758 12.8323 10.5128 12.8034 10.4628 12.7592C10.4128 12.7151 10.378 12.6578 10.3629 12.5947C10.3478 12.5316 10.3531 12.4657 10.3782 12.4055C10.4032 12.3454 10.4468 12.2937 10.5033 12.2572C10.5599 12.2207 10.6267 12.2012 10.6951 12.201C10.7385 12.1996 10.7817 12.2063 10.8224 12.2207C10.863 12.235 10.9002 12.2568 10.9319 12.2848C10.9636 12.3128 10.9892 12.3464 11.0071 12.3837C11.0251 12.421 11.0351 12.4613 11.0365 12.5023Z" fill="#DA840D"/>
<path d="M10.2946 11.3067C10.2946 11.389 10.1976 11.4567 10.0796 11.4567C9.96162 11.4567 9.86328 11.389 9.86328 11.3067C9.86328 11.2244 9.96022 11.1567 10.0796 11.1567C10.199 11.1567 10.2946 11.2231 10.2946 11.3067Z" fill="#DA840D"/>
<path d="M12.4666 12.0181C12.4718 12.0598 12.4634 12.102 12.4425 12.1391C12.4217 12.1762 12.3895 12.2064 12.35 12.2257C12.3106 12.2451 12.2659 12.2527 12.2218 12.2475C12.1778 12.2423 12.1364 12.2246 12.1032 12.1967C12.07 12.1688 12.0466 12.132 12.0361 12.0912C12.0255 12.0505 12.0283 12.0076 12.0441 11.9684C12.0599 11.9292 12.088 11.8954 12.1245 11.8716C12.1611 11.8478 12.2045 11.835 12.2489 11.835C12.3034 11.8324 12.3567 11.8502 12.3974 11.8845C12.4382 11.9187 12.463 11.9667 12.4666 12.0181Z" fill="#DA840D"/>
<path d="M12.5494 13.1238C12.5494 13.2087 12.4455 13.2777 12.3162 13.2777C12.187 13.2777 12.083 13.2087 12.083 13.1238C12.083 13.0388 12.1884 12.9698 12.3162 12.9698C12.4441 12.9698 12.5494 13.0388 12.5494 13.1238Z" fill="#DA840D"/>
<path d="M11.6196 11.4765C11.6172 11.5073 11.6051 11.5368 11.5851 11.5613C11.565 11.5857 11.5378 11.6041 11.5068 11.614C11.4758 11.624 11.4424 11.6251 11.4107 11.6173C11.379 11.6095 11.3505 11.5931 11.3286 11.57C11.3067 11.547 11.2925 11.5185 11.2876 11.4879C11.2828 11.4573 11.2875 11.426 11.3013 11.398C11.3151 11.3699 11.3373 11.3463 11.3652 11.3301C11.3931 11.3138 11.4254 11.3057 11.4581 11.3066C11.503 11.3097 11.545 11.3291 11.5751 11.3608C11.6053 11.3925 11.6212 11.4339 11.6196 11.4765Z" fill="#DA840D"/>
<path d="M14.0388 11.7991C14.0388 11.8841 13.9376 11.9531 13.8126 11.9531C13.6876 11.9531 13.5864 11.8841 13.5864 11.7991C13.5864 11.7142 13.6876 11.6465 13.8126 11.6465C13.9376 11.6465 14.0388 11.7142 14.0388 11.7991Z" fill="#DA840D"/>
<path d="M14.0388 12.5938C14.0388 12.6442 13.9376 12.6854 13.8126 12.6854C13.6876 12.6854 13.5864 12.6442 13.5864 12.5938C13.5864 12.5433 13.6876 12.5022 13.8126 12.5022C13.9376 12.5022 14.0388 12.5433 14.0388 12.5938Z" fill="#DA840D"/>
<path d="M15.5684 12.0776C15.5684 12.1453 15.4771 12.2011 15.3633 12.2011C15.2495 12.2011 15.1595 12.1453 15.1595 12.0776C15.1595 12.01 15.2509 11.9529 15.3633 11.9529C15.4756 11.9529 15.5684 12.0086 15.5684 12.0776Z" fill="#DA840D"/>
<path d="M15.324 12.9645C15.3336 13.0059 15.3294 13.049 15.3119 13.088C15.2945 13.127 15.2646 13.1599 15.2265 13.1822C15.1884 13.2044 15.1439 13.215 15.0992 13.2123C15.0545 13.2097 15.0117 13.194 14.9769 13.1674C14.942 13.1408 14.9167 13.1047 14.9045 13.064C14.8923 13.0232 14.8938 12.9799 14.9088 12.94C14.9238 12.9001 14.9515 12.8656 14.9881 12.8412C15.0248 12.8169 15.0685 12.8038 15.1133 12.8039C15.1637 12.7994 15.2139 12.8137 15.2533 12.8437C15.2926 12.8737 15.318 12.9171 15.324 12.9645Z" fill="#DA840D"/>
<path d="M17.0268 12.7069C17.018 12.7465 16.9975 12.7829 16.9678 12.8119C16.938 12.8409 16.9001 12.8613 16.8585 12.8708C16.8169 12.8803 16.7733 12.8784 16.7328 12.8655C16.6923 12.8525 16.6565 12.8289 16.6296 12.7975C16.6027 12.7661 16.5857 12.7281 16.5808 12.688C16.5758 12.6478 16.583 12.6072 16.6014 12.5707C16.6199 12.5343 16.649 12.5035 16.6852 12.4821C16.7215 12.4606 16.7634 12.4493 16.8062 12.4494C16.8714 12.4564 16.931 12.4873 16.9723 12.5355C17.0135 12.5837 17.0331 12.6452 17.0268 12.7069Z" fill="#DA840D"/>
<path d="M16.9046 11.547C16.9046 11.6001 16.8329 11.6425 16.7444 11.6425C16.6559 11.6425 16.5857 11.6001 16.5857 11.547C16.5857 11.4939 16.6573 11.4528 16.7444 11.4528C16.8315 11.4528 16.9046 11.4992 16.9046 11.547Z" fill="#DA840D"/>
<path d="M18.2533 11.8295C18.2533 12.0352 18.1564 12.2012 18.0384 12.2012C17.9204 12.2012 17.822 12.0352 17.822 11.8295C17.822 11.6238 17.919 11.4566 18.0384 11.4566C18.1578 11.4566 18.2533 11.6238 18.2533 11.8295Z" fill="#DA840D"/>
<path d="M18.794 11.4513C18.794 11.4777 18.7829 11.503 18.7631 11.5217C18.7434 11.5403 18.7166 11.5508 18.6886 11.5508C18.6607 11.5508 18.6339 11.5403 18.6141 11.5217C18.5944 11.503 18.5833 11.4777 18.5833 11.4513C18.5833 11.4249 18.5944 11.3996 18.6141 11.3809C18.6339 11.3622 18.6607 11.3517 18.6886 11.3517C18.7164 11.3521 18.743 11.3627 18.7627 11.3813C18.7824 11.3999 18.7936 11.425 18.794 11.4513Z" fill="#DA840D"/>
<path d="M15.2512 11.1341C15.2512 11.2284 15.1191 11.3067 14.9576 11.3067C14.796 11.3067 14.6639 11.2284 14.6639 11.1341C14.6639 11.0399 14.7946 10.9603 14.9576 10.9603C15.1205 10.9603 15.2512 11.0386 15.2512 11.1341Z" fill="#DA840D"/>
<path d="M9.74265 10.2394C9.74265 10.2978 9.6401 10.3456 9.51366 10.3456C9.38722 10.3456 9.28467 10.2978 9.28467 10.2394C9.28467 10.181 9.38722 10.1332 9.51366 10.1332C9.6401 10.1332 9.74265 10.181 9.74265 10.2394Z" fill="#DA840D"/>
<path d="M11.0913 10.0259C11.0913 10.0856 10.9747 10.1334 10.8314 10.1334C10.6881 10.1334 10.5701 10.0856 10.5701 10.0259C10.5701 9.96619 10.6867 9.91974 10.8314 9.91974C10.9761 9.91974 11.0913 9.96752 11.0913 10.0259Z" fill="#DA840D"/>
<path d="M12.7882 10.2872C12.7882 10.3708 12.6309 10.4398 12.4356 10.4398C12.2404 10.4398 12.083 10.3708 12.083 10.2872C12.083 10.2036 12.2418 10.1332 12.4356 10.1332C12.6295 10.1332 12.7882 10.2022 12.7882 10.2872Z" fill="#DA840D"/>
<path d="M14.0386 10.0259C14.0389 10.0473 14.0324 10.0682 14.02 10.0861C14.0076 10.104 13.9899 10.118 13.969 10.1263C13.9482 10.1346 13.9252 10.1368 13.903 10.1327C13.8808 10.1286 13.8604 10.1183 13.8444 10.1032C13.8284 10.0881 13.8175 10.0688 13.8132 10.0479C13.8088 10.0269 13.8112 10.0052 13.82 9.98547C13.8288 9.96577 13.8436 9.94899 13.8625 9.93728C13.8814 9.92557 13.9036 9.91945 13.9262 9.91972C13.956 9.91972 13.9846 9.9309 14.0057 9.95082C14.0268 9.97073 14.0386 9.99774 14.0386 10.0259Z" fill="#DA840D"/>
<path d="M13.8124 10.8659C13.8124 10.9176 13.7057 10.9601 13.5722 10.9601C13.4387 10.9601 13.3334 10.9176 13.3334 10.8659C13.3334 10.8141 13.4401 10.7716 13.5722 10.7716C13.7043 10.7716 13.8124 10.8141 13.8124 10.8659Z" fill="#DA840D"/>
<path d="M15.6906 9.9792C15.6901 10.01 15.6798 10.04 15.6611 10.0653C15.6425 10.0905 15.6163 10.11 15.5859 10.1212C15.5555 10.1324 15.5222 10.1347 15.4904 10.128C15.4586 10.1213 15.4296 10.1057 15.4071 10.0834C15.3847 10.061 15.3697 10.0329 15.3643 10.0025C15.3588 9.97211 15.363 9.94087 15.3764 9.91276C15.3898 9.88465 15.4117 9.86094 15.4394 9.84464C15.4671 9.82835 15.4993 9.82021 15.5319 9.82126C15.5533 9.82177 15.5744 9.82627 15.594 9.83449C15.6135 9.8427 15.6312 9.85448 15.6459 9.86915C15.6607 9.88382 15.6722 9.90109 15.6799 9.91997C15.6875 9.93885 15.6912 9.95898 15.6906 9.9792Z" fill="#DA840D"/>
<path d="M16.5856 10.6059C16.5856 10.6325 16.5027 10.6537 16.3987 10.6537C16.2947 10.6537 16.2133 10.6325 16.2133 10.6059C16.2133 10.5794 16.2961 10.5581 16.3987 10.5581C16.5013 10.5581 16.5856 10.5794 16.5856 10.6059Z" fill="#DA840D"/>
<path d="M17.1687 10.2926C17.1722 10.3066 17.171 10.3213 17.1652 10.3346C17.1595 10.3479 17.1495 10.3592 17.1367 10.3669C17.1238 10.3745 17.1087 10.3783 17.0936 10.3775C17.0784 10.3767 17.0638 10.3714 17.052 10.3624C17.0401 10.3535 17.0315 10.3412 17.0273 10.3274C17.0232 10.3136 17.0237 10.2989 17.0288 10.2853C17.0339 10.2718 17.0434 10.2601 17.0559 10.2519C17.0683 10.2437 17.0832 10.2394 17.0984 10.2395C17.1151 10.238 17.1318 10.2427 17.1449 10.2526C17.158 10.2625 17.1666 10.2769 17.1687 10.2926Z" fill="#DA840D"/>
<path d="M16.5855 10.6058C16.5823 10.6346 16.5703 10.6618 16.551 10.6843C16.5317 10.7068 16.5059 10.7235 16.4767 10.7325C16.4476 10.7414 16.4164 10.7422 16.3867 10.7348C16.3571 10.7273 16.3305 10.7119 16.3099 10.6904C16.2894 10.669 16.2758 10.6423 16.2709 10.6137C16.2661 10.5852 16.27 10.5559 16.2824 10.5294C16.2948 10.5029 16.315 10.4803 16.3406 10.4645C16.3662 10.4486 16.3961 10.44 16.4268 10.4399C16.4487 10.4409 16.4703 10.446 16.4901 10.4549C16.51 10.4638 16.5278 10.4763 16.5426 10.4917C16.5573 10.5071 16.5687 10.5251 16.5761 10.5447C16.5834 10.5643 16.5867 10.585 16.5855 10.6058Z" fill="#DA840D"/>
<path d="M17.4874 10.3402C17.4874 10.3946 17.4003 10.4397 17.2921 10.4397C17.184 10.4397 17.0983 10.3946 17.0983 10.3402C17.0983 10.2858 17.1854 10.2393 17.2921 10.2393C17.3989 10.2393 17.4874 10.2844 17.4874 10.3402Z" fill="#DA840D"/>
<path d="M22.0954 10.7028C22.0954 12.4163 18.2418 14.0116 13.6016 14.0116C8.96134 14.0116 5.0769 12.2981 5.0769 10.5847C5.0769 8.87122 8.96134 7.79749 13.6016 7.79749C18.2418 7.79749 22.0954 8.98802 22.0954 10.7028Z" fill="#E3AC8A"/>
<path d="M22.0027 10.371C22.0027 12.0858 18.2419 13.4754 13.6017 13.4754C8.96143 13.4754 5.19922 12.0858 5.19922 10.371C5.19922 8.65625 8.96143 7.26663 13.6017 7.26663C18.2419 7.26663 22.0027 8.65625 22.0027 10.371Z" fill="#DA840D"/>
<path d="M13.4796 12.3804C16.9222 12.3804 19.7129 11.3494 19.7129 10.0776C19.7129 8.80585 16.9222 7.77487 13.4796 7.77487C10.037 7.77487 7.24622 8.80585 7.24622 10.0776C7.24622 11.3494 10.037 12.3804 13.4796 12.3804Z" fill="#F0A508"/>
<path d="M9.28454 10.9272C9.28454 11.0599 9.12579 11.1754 8.9291 11.1754C8.73242 11.1754 8.57507 11.0639 8.57507 10.9272C8.57507 10.7905 8.73382 10.679 8.9291 10.679C9.12438 10.679 9.28454 10.7892 9.28454 10.9272Z" fill="#DA840D"/>
<path d="M8.57529 9.8812C8.57418 9.91797 8.56163 9.95362 8.53921 9.98369C8.51678 10.0138 8.48547 10.0369 8.44919 10.0503C8.41292 10.0636 8.37328 10.0666 8.33523 10.0588C8.29718 10.051 8.26241 10.0327 8.23527 10.0064C8.20813 9.97999 8.18981 9.94664 8.18261 9.91049C8.17542 9.87434 8.17965 9.83699 8.1948 9.8031C8.20994 9.76922 8.23532 9.7403 8.26776 9.71996C8.3002 9.69962 8.33827 9.68877 8.3772 9.68875C8.43037 9.6898 8.48096 9.71057 8.51803 9.74659C8.5551 9.78261 8.57567 9.83097 8.57529 9.8812Z" fill="#DA840D"/>
<path d="M11.0365 11.2281C11.041 11.2926 11.0249 11.357 10.9902 11.4127C10.9556 11.4685 10.904 11.5131 10.8421 11.5408C10.7803 11.5685 10.711 11.578 10.6434 11.568C10.5758 11.5581 10.5128 11.5292 10.4628 11.485C10.4128 11.4409 10.378 11.3836 10.3629 11.3205C10.3478 11.2574 10.3531 11.1915 10.3782 11.1313C10.4032 11.0712 10.4468 11.0195 10.5033 10.983C10.5599 10.9466 10.6267 10.927 10.6951 10.9268C10.7826 10.9243 10.8676 10.9546 10.9315 11.011C10.9955 11.0675 11.0332 11.1455 11.0365 11.2281Z" fill="#DA840D"/>
<path d="M10.2946 10.0324C10.2946 10.1147 10.1976 10.1824 10.0796 10.1824C9.96162 10.1824 9.86328 10.1147 9.86328 10.0324C9.86328 9.95009 9.96022 9.88107 10.0796 9.88107C10.199 9.88107 10.2946 9.95407 10.2946 10.0324Z" fill="#DA840D"/>
<path d="M12.4666 10.7507C12.4718 10.7924 12.4634 10.8345 12.4425 10.8716C12.4217 10.9087 12.3895 10.9389 12.35 10.9583C12.3106 10.9776 12.2659 10.9852 12.2218 10.98C12.1778 10.9748 12.1364 10.9571 12.1032 10.9292C12.07 10.9013 12.0466 10.8645 12.0361 10.8237C12.0255 10.783 12.0283 10.7401 12.0441 10.7009C12.0599 10.6617 12.088 10.6279 12.1245 10.6041C12.1611 10.5803 12.2045 10.5675 12.2489 10.5675C12.3034 10.565 12.3567 10.5827 12.3974 10.617C12.4382 10.6512 12.463 10.6993 12.4666 10.7507Z" fill="#DA840D"/>
<path d="M12.5494 11.8481C12.5494 11.933 12.4455 12.002 12.3162 12.002C12.187 12.002 12.083 11.933 12.083 11.8481C12.083 11.7631 12.1884 11.6954 12.3162 11.6954C12.4441 11.6954 12.5494 11.7631 12.5494 11.8481Z" fill="#DA840D"/>
<path d="M11.6194 10.2008C11.6172 10.2317 11.6053 10.2613 11.5854 10.286C11.5655 10.3106 11.5384 10.3292 11.5074 10.3393C11.4764 10.3495 11.4429 10.3508 11.4111 10.3431C11.3794 10.3354 11.3507 10.3191 11.3287 10.2961C11.3066 10.2731 11.2923 10.2446 11.2873 10.2139C11.2824 10.1833 11.2871 10.1519 11.3008 10.1238C11.3146 10.0957 11.3368 10.072 11.3647 10.0557C11.3927 10.0394 11.425 10.0313 11.4578 10.0322C11.5027 10.035 11.5446 10.0541 11.5748 10.0856C11.6049 10.117 11.6209 10.1584 11.6194 10.2008Z" fill="#DA840D"/>
<path d="M14.0388 10.5247C14.0388 10.6097 13.9376 10.6787 13.8126 10.6787C13.6876 10.6787 13.5864 10.6097 13.5864 10.5247C13.5864 10.4398 13.6876 10.3708 13.8126 10.3708C13.9376 10.3708 14.0388 10.4398 14.0388 10.5247Z" fill="#DA840D"/>
<path d="M14.0388 11.3199C14.0388 11.3703 13.9376 11.4115 13.8126 11.4115C13.6876 11.4115 13.5864 11.3703 13.5864 11.3199C13.5864 11.2694 13.6876 11.2283 13.8126 11.2283C13.9376 11.2283 14.0388 11.2694 14.0388 11.3199Z" fill="#DA840D"/>
<path d="M15.5684 10.8024C15.5684 10.8715 15.4771 10.9272 15.3633 10.9272C15.2495 10.9272 15.1595 10.8715 15.1595 10.8024C15.1595 10.7334 15.2509 10.679 15.3633 10.679C15.4756 10.679 15.5684 10.7348 15.5684 10.8024Z" fill="#DA840D"/>
<path d="M15.324 11.6887C15.3339 11.73 15.3299 11.7732 15.3127 11.8123C15.2955 11.8515 15.2658 11.8846 15.2278 11.907C15.1897 11.9295 15.1453 11.9403 15.1005 11.9378C15.0557 11.9354 15.0128 11.9199 14.9778 11.8934C14.9428 11.8669 14.9173 11.8308 14.905 11.7901C14.8926 11.7493 14.894 11.706 14.9088 11.666C14.9237 11.626 14.9514 11.5914 14.988 11.5669C15.0246 11.5425 15.0684 11.5293 15.1132 11.5294C15.1635 11.5245 15.2137 11.5385 15.2531 11.5683C15.2925 11.5981 15.318 11.6413 15.324 11.6887Z" fill="#DA840D"/>
<path d="M17.0269 11.4312C17.0181 11.4704 16.9978 11.5065 16.9682 11.5353C16.9387 11.5641 16.9011 11.5843 16.8598 11.5938C16.8186 11.6032 16.7753 11.6014 16.7351 11.5886C16.6949 11.5758 16.6593 11.5525 16.6326 11.5214C16.6058 11.4903 16.5889 11.4526 16.5838 11.4128C16.5787 11.373 16.5856 11.3327 16.6038 11.2964C16.622 11.2602 16.6507 11.2296 16.6865 11.2081C16.7223 11.1866 16.7639 11.1751 16.8063 11.175C16.8712 11.182 16.9306 11.2128 16.9718 11.2606C17.0131 11.3085 17.0328 11.3697 17.0269 11.4312Z" fill="#DA840D"/>
<path d="M16.9046 10.2767C16.9046 10.3285 16.8329 10.371 16.7444 10.371C16.6559 10.371 16.5857 10.3285 16.5857 10.2767C16.5857 10.225 16.6573 10.1825 16.7444 10.1825C16.8315 10.1825 16.9046 10.2197 16.9046 10.2767Z" fill="#DA840D"/>
<path d="M18.2533 10.5541C18.2533 10.7598 18.1564 10.9271 18.0384 10.9271C17.9204 10.9271 17.822 10.7598 17.822 10.5541C17.822 10.3484 17.919 10.1825 18.0384 10.1825C18.1578 10.1825 18.2533 10.3524 18.2533 10.5541Z" fill="#DA840D"/>
<path d="M18.794 10.1769C18.7936 10.2032 18.7824 10.2283 18.7627 10.2469C18.743 10.2655 18.7165 10.2761 18.6886 10.2764C18.6678 10.2764 18.6474 10.2706 18.6301 10.2597C18.6128 10.2487 18.5992 10.2332 18.5913 10.215C18.5833 10.1968 18.5812 10.1768 18.5853 10.1575C18.5893 10.1382 18.5994 10.1204 18.6141 10.1065C18.6289 10.0926 18.6476 10.0831 18.6681 10.0793C18.6885 10.0754 18.7097 10.0774 18.7289 10.0849C18.7482 10.0925 18.7647 10.1052 18.7762 10.1216C18.7878 10.138 18.794 10.1572 18.794 10.1769Z" fill="#DA840D"/>
<path d="M15.2512 9.85873C15.2512 9.95429 15.1191 10.0326 14.9576 10.0326C14.796 10.0326 14.6639 9.95429 14.6639 9.85873C14.6639 9.76317 14.7946 9.68619 14.9576 9.68619C15.1205 9.68619 15.2512 9.76317 15.2512 9.85873Z" fill="#DA840D"/>
<path d="M9.74265 8.96406C9.74265 9.02378 9.6401 9.07156 9.51366 9.07156C9.38722 9.07156 9.28467 9.02378 9.28467 8.96406C9.28467 8.90433 9.38722 8.85788 9.51366 8.85788C9.6401 8.85788 9.74265 8.90566 9.74265 8.96406Z" fill="#DA840D"/>
<path d="M11.0913 8.75153C11.0913 8.80993 10.9747 8.85771 10.8314 8.85771C10.6881 8.85771 10.5701 8.80993 10.5701 8.75153C10.5701 8.69314 10.6867 8.64536 10.8314 8.64536C10.9761 8.64536 11.0913 8.69314 11.0913 8.75153Z" fill="#DA840D"/>
<path d="M12.7882 9.01184C12.7882 9.09679 12.6309 9.16581 12.4356 9.16581C12.2404 9.16581 12.083 9.09679 12.083 9.01184C12.083 8.9269 12.2418 8.85788 12.4356 8.85788C12.6295 8.85788 12.7882 8.9269 12.7882 9.01184Z" fill="#DA840D"/>
<path d="M14.0386 8.75151C14.0389 8.77289 14.0324 8.79385 14.02 8.81173C14.0076 8.82961 13.9899 8.8436 13.969 8.8519C13.9482 8.8602 13.9252 8.86244 13.903 8.85834C13.8808 8.85423 13.8604 8.84396 13.8444 8.82885C13.8284 8.81374 13.8175 8.79446 13.8132 8.77348C13.8088 8.7525 13.8112 8.73078 13.82 8.71108C13.8288 8.69138 13.8436 8.67461 13.8625 8.6629C13.8814 8.65119 13.9036 8.64507 13.9262 8.64533C13.956 8.64533 13.9846 8.65652 14.0057 8.67643C14.0268 8.69634 14.0386 8.72335 14.0386 8.75151Z" fill="#DA840D"/>
<path d="M13.8124 9.59184C13.8124 9.6436 13.7057 9.68607 13.5722 9.68607C13.4387 9.68607 13.3334 9.6436 13.3334 9.59184C13.3334 9.54007 13.4401 9.49628 13.5722 9.49628C13.7043 9.49628 13.8124 9.53875 13.8124 9.59184Z" fill="#DA840D"/>
<path d="M15.6905 8.70517C15.6908 8.73616 15.6812 8.76651 15.6631 8.79233C15.6449 8.81814 15.619 8.83824 15.5887 8.85003C15.5584 8.86181 15.525 8.86475 15.4929 8.85847C15.4607 8.85218 15.4313 8.83696 15.4084 8.81476C15.3856 8.79256 15.3702 8.7644 15.3644 8.7339C15.3586 8.7034 15.3626 8.67195 15.3759 8.64361C15.3891 8.61526 15.4111 8.59132 15.4389 8.57485C15.4666 8.55838 15.499 8.55015 15.5318 8.55121C15.5744 8.55191 15.615 8.56848 15.6447 8.59731C15.6745 8.62615 15.6909 8.66491 15.6905 8.70517Z" fill="#DA840D"/>
<path d="M16.5856 9.33153C16.5856 9.35675 16.5027 9.37799 16.3987 9.37799C16.2947 9.37799 16.2133 9.35675 16.2133 9.33153C16.2133 9.30632 16.2961 9.28375 16.3987 9.28375C16.5013 9.28375 16.5856 9.30499 16.5856 9.33153Z" fill="#DA840D"/>
<path d="M17.1689 9.02517C17.1721 9.03917 17.1706 9.05376 17.1646 9.06693C17.1586 9.0801 17.1485 9.09119 17.1356 9.09865C17.1226 9.10612 17.1075 9.1096 17.0924 9.10861C17.0773 9.10762 17.0629 9.10221 17.0511 9.09313C17.0394 9.08405 17.031 9.07174 17.027 9.05792C17.023 9.04411 17.0237 9.02946 17.0289 9.01601C17.0341 9.00256 17.0436 8.99098 17.0561 8.98287C17.0686 8.97476 17.0835 8.97052 17.0986 8.97075C17.1156 8.96927 17.1324 8.97415 17.1456 8.98433C17.1587 8.99452 17.1671 9.00919 17.1689 9.02517Z" fill="#DA840D"/>
<path d="M16.5855 9.33168C16.5823 9.36046 16.5703 9.38774 16.551 9.41022C16.5317 9.4327 16.5059 9.44943 16.4767 9.45838C16.4476 9.46733 16.4164 9.46812 16.3867 9.46066C16.3571 9.45319 16.3305 9.4378 16.3099 9.41632C16.2894 9.39485 16.2758 9.36822 16.2709 9.33964C16.2661 9.31106 16.27 9.28176 16.2824 9.25527C16.2948 9.22878 16.315 9.20623 16.3406 9.19035C16.3662 9.17447 16.3961 9.16594 16.4268 9.16577C16.4487 9.16679 16.4703 9.17189 16.4901 9.18079C16.51 9.18968 16.5278 9.2022 16.5426 9.21761C16.5573 9.23302 16.5687 9.25103 16.5761 9.2706C16.5834 9.29017 16.5867 9.31093 16.5855 9.33168Z" fill="#DA840D"/>
<path d="M17.4874 9.06483C17.4874 9.12057 17.4003 9.1657 17.2921 9.1657C17.184 9.1657 17.0983 9.12057 17.0983 9.06483C17.0983 9.00908 17.1854 8.96396 17.2921 8.96396C17.3989 8.96396 17.4874 9.00908 17.4874 9.06483Z" fill="#DA840D"/>
<path d="M22.2289 8.42519C22.2289 10.1387 18.374 11.734 13.7337 11.734C9.09348 11.734 5.21045 10.0205 5.21045 8.30574C5.21045 6.59095 9.09348 5.52518 13.7337 5.52518C18.374 5.52518 22.2289 6.7104 22.2289 8.42519Z" fill="#E3AC8A"/>
<path d="M22.1349 8.09611C22.1349 9.8109 18.3727 11.2005 13.7324 11.2005C9.09217 11.2005 5.33276 9.80825 5.33276 8.09611C5.33276 6.38397 9.09357 4.98904 13.7338 4.98904C18.3741 4.98904 22.1349 6.37866 22.1349 8.09611Z" fill="#DA840D"/>
<path d="M19.8463 7.80006C19.8463 9.07155 17.0548 10.1028 13.6129 10.1028C10.171 10.1028 7.38379 9.07155 7.38379 7.80006C7.38379 6.52856 10.171 5.49597 13.6129 5.49597C17.0548 5.49597 19.8463 6.52723 19.8463 7.80006Z" fill="#F0A508"/>
<path d="M9.41655 8.64959C9.41655 8.78232 9.2592 8.89779 9.06252 8.89779C8.86584 8.89779 8.7085 8.7863 8.7085 8.64959C8.7085 8.51289 8.86725 8.4014 9.06955 8.4014C9.27185 8.4014 9.41655 8.51156 9.41655 8.64959Z" fill="#DA840D"/>
<path d="M8.70837 7.60364C8.70672 7.64016 8.69378 7.67542 8.67116 7.70508C8.64854 7.73473 8.61722 7.75747 8.58107 7.7705C8.54492 7.78353 8.50552 7.78627 8.46774 7.77839C8.42996 7.77051 8.39546 7.75235 8.36848 7.72615C8.3415 7.69995 8.32323 7.66685 8.31593 7.63096C8.30864 7.59506 8.31262 7.55793 8.32741 7.52415C8.34219 7.49038 8.36712 7.46143 8.39912 7.44088C8.43112 7.42033 8.46879 7.40909 8.50747 7.40854C8.53428 7.40871 8.56078 7.41391 8.58544 7.42384C8.6101 7.43377 8.63243 7.44824 8.65112 7.46639C8.66981 7.48454 8.6845 7.50602 8.69433 7.52959C8.70415 7.55315 8.70893 7.57832 8.70837 7.60364Z" fill="#DA840D"/>
<path d="M11.177 8.95081C11.1812 9.01504 11.1649 9.07898 11.1302 9.13435C11.0955 9.18972 11.044 9.23397 10.9824 9.26136C10.9207 9.28875 10.8518 9.29802 10.7845 9.28797C10.7173 9.27792 10.6547 9.249 10.6051 9.20498C10.5554 9.16096 10.5209 9.10385 10.5059 9.04107C10.491 8.97828 10.4964 8.91271 10.5214 8.85285C10.5464 8.79299 10.5898 8.74161 10.6461 8.70535C10.7024 8.6691 10.7689 8.64965 10.837 8.64953C10.9243 8.64702 11.0092 8.67733 11.0729 8.7338C11.1366 8.79027 11.174 8.86831 11.177 8.95081Z" fill="#DA840D"/>
<path d="M10.4282 7.75352C10.4282 7.83714 10.3313 7.90483 10.2119 7.90483C10.0925 7.90483 9.99695 7.83714 9.99695 7.75352C9.99695 7.66991 10.0939 7.60355 10.2119 7.60355C10.3299 7.60355 10.4282 7.67123 10.4282 7.75352Z" fill="#DA840D"/>
<path d="M12.5999 8.46645C12.6051 8.50814 12.5967 8.55031 12.5758 8.58739C12.555 8.62446 12.5228 8.65468 12.4833 8.67404C12.4439 8.6934 12.3992 8.70099 12.3551 8.6958C12.3111 8.69061 12.2697 8.67289 12.2365 8.64498C12.2033 8.61707 12.1799 8.5803 12.1694 8.53953C12.1588 8.49877 12.1616 8.45593 12.1774 8.41671C12.1932 8.37748 12.2213 8.34372 12.2578 8.31989C12.2944 8.29607 12.3378 8.2833 12.3822 8.28329C12.4367 8.28074 12.49 8.29851 12.5307 8.33277C12.5715 8.36703 12.5963 8.41504 12.5999 8.46645Z" fill="#DA840D"/>
<path d="M12.6828 9.57076C12.6828 9.6557 12.5789 9.72471 12.4496 9.72471C12.3204 9.72471 12.2164 9.6557 12.2164 9.57076C12.2164 9.48581 12.3204 9.42343 12.4496 9.42343C12.5789 9.42343 12.6828 9.48714 12.6828 9.57076Z" fill="#DA840D"/>
<path d="M11.7531 7.92348C11.7531 7.96536 11.7354 8.00554 11.7041 8.03516C11.6727 8.06478 11.6302 8.08142 11.5859 8.08142C11.5415 8.08142 11.499 8.06478 11.4677 8.03516C11.4363 8.00554 11.4187 7.96536 11.4187 7.92348C11.4187 7.88159 11.4363 7.84141 11.4677 7.81179C11.499 7.78217 11.5415 7.76553 11.5859 7.76553C11.6302 7.76553 11.6727 7.78217 11.7041 7.81179C11.7354 7.84141 11.7531 7.88159 11.7531 7.92348Z" fill="#DA840D"/>
<path d="M14.172 8.24734C14.172 8.33229 14.0708 8.4013 13.9458 8.4013C13.8208 8.4013 13.7196 8.33229 13.7196 8.24734C13.7196 8.1624 13.8208 8.09604 13.9458 8.09604C14.0708 8.09604 14.172 8.1624 14.172 8.24734Z" fill="#DA840D"/>
<path d="M14.172 9.04229C14.172 9.09273 14.0708 9.13387 13.9458 9.13387C13.8208 9.13387 13.7196 9.09273 13.7196 9.04229C13.7196 8.99186 13.8208 8.95071 13.9458 8.95071C14.0708 8.95071 14.172 8.99186 14.172 9.04229Z" fill="#DA840D"/>
<path d="M15.7021 8.52483C15.7021 8.59384 15.6108 8.64959 15.497 8.64959C15.3832 8.64959 15.2919 8.59384 15.2919 8.52483C15.2919 8.45581 15.3846 8.4014 15.497 8.4014C15.6094 8.4014 15.7021 8.45714 15.7021 8.52483Z" fill="#DA840D"/>
<path d="M15.4575 9.41124C15.4677 9.45283 15.4639 9.49638 15.4467 9.53586C15.4296 9.57535 15.3998 9.60881 15.3616 9.63161C15.3235 9.65441 15.2787 9.66542 15.2336 9.66312C15.1885 9.66082 15.1452 9.64531 15.1099 9.61876C15.0745 9.5922 15.0487 9.5559 15.0362 9.5149C15.0236 9.4739 15.0249 9.43022 15.0397 9.38992C15.0546 9.34961 15.0824 9.31469 15.1193 9.28997C15.1561 9.26525 15.2001 9.25197 15.2453 9.25197C15.2958 9.24674 15.3464 9.26054 15.3861 9.29036C15.4258 9.32019 15.4515 9.36364 15.4575 9.41124Z" fill="#DA840D"/>
<path d="M17.1603 9.15781C17.1501 9.1965 17.1286 9.23171 17.0983 9.25946C17.068 9.28722 17.0301 9.3064 16.9888 9.31485C16.9476 9.32329 16.9046 9.32067 16.8649 9.30726C16.8251 9.29385 16.7901 9.27021 16.7639 9.23899C16.7376 9.20777 16.7211 9.17023 16.7162 9.13062C16.7114 9.09101 16.7183 9.0509 16.7363 9.01483C16.7544 8.97877 16.7827 8.94818 16.8182 8.92654C16.8536 8.9049 16.8948 8.89306 16.937 8.89236C16.9703 8.89548 17.0026 8.90488 17.032 8.92001C17.0614 8.93514 17.0873 8.95569 17.1081 8.98045C17.1289 9.0052 17.1443 9.03365 17.1533 9.06412C17.1622 9.09459 17.1646 9.12645 17.1603 9.15781Z" fill="#DA840D"/>
<path d="M17.0379 7.99908C17.0379 8.05084 16.9663 8.09331 16.8777 8.09331C16.7892 8.09331 16.719 8.05084 16.719 7.99908C16.719 7.94732 16.7892 7.90485 16.8777 7.90485C16.9663 7.90485 17.0379 7.94732 17.0379 7.99908Z" fill="#DA840D"/>
<path d="M18.3866 8.27647C18.3866 8.4822 18.2897 8.64943 18.1703 8.64943C18.0509 8.64943 17.9553 8.4822 17.9553 8.27647C17.9553 8.07075 18.0523 7.90485 18.1703 7.90485C18.2883 7.90485 18.3866 8.07075 18.3866 8.27647Z" fill="#DA840D"/>
<path d="M18.9261 7.89956C18.9258 7.91893 18.9194 7.93778 18.9079 7.95376C18.8963 7.96973 18.8799 7.98212 18.8609 7.98935C18.8419 7.99658 18.821 7.99833 18.801 7.99439C18.7809 7.99046 18.7625 7.981 18.7481 7.96721C18.7337 7.95343 18.7239 7.93592 18.72 7.91691C18.7161 7.8979 18.7183 7.87822 18.7262 7.86035C18.7341 7.84248 18.7474 7.82722 18.7645 7.81648C18.7815 7.80575 18.8016 7.80002 18.8221 7.80002C18.8498 7.80037 18.8762 7.81101 18.8957 7.82964C18.9151 7.84827 18.9261 7.87339 18.9261 7.89956Z" fill="#DA840D"/>
<path d="M15.3832 7.58108C15.3832 7.67664 15.2525 7.75362 15.091 7.75362C14.9294 7.75362 14.7974 7.67664 14.7974 7.58108C14.7974 7.48552 14.928 7.40854 15.091 7.40854C15.2539 7.40854 15.3832 7.48552 15.3832 7.58108Z" fill="#DA840D"/>
<path d="M9.87613 6.68773C9.87613 6.74613 9.77358 6.79391 9.64714 6.79391C9.52071 6.79391 9.41675 6.74613 9.41675 6.68773C9.41675 6.62934 9.5193 6.58023 9.64714 6.58023C9.77498 6.58023 9.87613 6.62801 9.87613 6.68773Z" fill="#DA840D"/>
<path d="M11.2246 6.47419C11.2246 6.53392 11.108 6.58037 10.9633 6.58037C10.8186 6.58037 10.7034 6.53392 10.7034 6.47419C10.7034 6.41446 10.82 6.36801 10.9633 6.36801C11.1066 6.36801 11.2246 6.41579 11.2246 6.47419Z" fill="#DA840D"/>
<path d="M12.9217 6.73419C12.9217 6.81913 12.7643 6.88815 12.5691 6.88815C12.3738 6.88815 12.2164 6.81913 12.2164 6.73419C12.2164 6.64925 12.3752 6.58023 12.5691 6.58023C12.7629 6.58023 12.9217 6.64925 12.9217 6.73419Z" fill="#DA840D"/>
<path d="M14.1722 6.47397C14.1691 6.50025 14.1559 6.52453 14.135 6.54216C14.1141 6.5598 14.0871 6.56955 14.0591 6.56955C14.0311 6.56955 14.0041 6.5598 13.9833 6.54216C13.9624 6.52453 13.9492 6.50025 13.946 6.47397C13.9492 6.44768 13.9624 6.4234 13.9833 6.40577C14.0041 6.38814 14.0311 6.37839 14.0591 6.37839C14.0871 6.37839 14.1141 6.38814 14.135 6.40577C14.1559 6.4234 14.1691 6.44768 14.1722 6.47397Z" fill="#DA840D"/>
<path d="M13.9458 7.31292C13.9458 7.36601 13.839 7.40849 13.7056 7.40849C13.5721 7.40849 13.4653 7.36601 13.4653 7.31292C13.4653 7.25983 13.5735 7.21869 13.7056 7.21869C13.8376 7.21869 13.9458 7.26116 13.9458 7.31292Z" fill="#DA840D"/>
<path d="M15.8242 6.42748C15.8245 6.45825 15.8151 6.4884 15.7972 6.51411C15.7793 6.53982 15.7537 6.55993 15.7237 6.57189C15.6937 6.58384 15.6606 6.58711 15.6286 6.58127C15.5967 6.57543 15.5673 6.56074 15.5441 6.53908C15.521 6.51742 15.5052 6.48975 15.4987 6.45959C15.4923 6.42943 15.4955 6.39814 15.5079 6.36969C15.5203 6.34124 15.5413 6.31691 15.5684 6.29979C15.5954 6.28266 15.6273 6.27352 15.6598 6.27352C15.6814 6.27317 15.7028 6.2769 15.7229 6.28449C15.7429 6.29209 15.7611 6.30339 15.7764 6.31774C15.7917 6.33209 15.8038 6.34919 15.8121 6.36804C15.8203 6.38689 15.8244 6.4071 15.8242 6.42748Z" fill="#DA840D"/>
<path d="M16.719 7.05422C16.719 7.07944 16.6347 7.10067 16.5321 7.10067C16.4296 7.10067 16.3467 7.07944 16.3467 7.05422C16.3467 7.029 16.4296 7.00644 16.5321 7.00644C16.6347 7.00644 16.719 7.03431 16.719 7.05422Z" fill="#DA840D"/>
<path d="M17.302 6.74101C17.2976 6.75543 17.2884 6.76812 17.2758 6.77715C17.2631 6.78618 17.2476 6.79107 17.2318 6.79107C17.2159 6.79107 17.2004 6.78618 17.1878 6.77715C17.1751 6.76812 17.1659 6.75543 17.1615 6.74101C17.1659 6.72659 17.1751 6.7139 17.1878 6.70487C17.2004 6.69583 17.2159 6.69095 17.2318 6.69095C17.2476 6.69095 17.2631 6.69583 17.2758 6.70487C17.2884 6.7139 17.2976 6.72659 17.302 6.74101Z" fill="#DA840D"/>
<path d="M16.719 7.05403C16.7157 7.08281 16.7037 7.11009 16.6844 7.13257C16.6651 7.15505 16.6393 7.17178 16.6102 7.18073C16.581 7.18968 16.5498 7.19047 16.5202 7.18301C16.4906 7.17554 16.4639 7.16015 16.4433 7.13867C16.4228 7.1172 16.4093 7.09057 16.4044 7.06199C16.3995 7.03341 16.4035 7.00411 16.4158 6.97762C16.4282 6.95113 16.4484 6.92858 16.474 6.9127C16.4996 6.89682 16.5296 6.88829 16.5602 6.88812C16.5822 6.88914 16.6037 6.89425 16.6236 6.90314C16.6434 6.91204 16.6613 6.92455 16.676 6.93996C16.6908 6.95537 16.7021 6.97338 16.7095 6.99295C16.7169 7.01252 16.7201 7.03328 16.719 7.05403Z" fill="#DA840D"/>
<path d="M17.6209 6.78738C17.6209 6.84312 17.5338 6.88825 17.4256 6.88825C17.3174 6.88825 17.2303 6.84312 17.2303 6.78738C17.2303 6.73163 17.3174 6.68784 17.4256 6.68784C17.5338 6.68784 17.6209 6.73163 17.6209 6.78738Z" fill="#DA840D"/>
<path d="M22.2289 6.9612C22.2289 8.67599 18.374 10.27 13.7337 10.27C9.09348 10.27 5.21045 8.55787 5.21045 6.84308C5.21045 5.12829 9.09348 4.05588 13.7337 4.05588C18.374 4.05588 22.2289 5.24641 22.2289 6.9612Z" fill="#E3AC8A"/>
<path d="M22.1349 6.6361C22.1349 8.34957 18.3727 9.74051 13.7324 9.74051C9.09217 9.74051 5.33276 8.34426 5.33276 6.6361C5.33276 4.92795 9.09357 3.53036 13.7338 3.53036C18.3741 3.53036 22.1349 4.91069 22.1349 6.6361Z" fill="#DA840D"/>
<path d="M19.8463 6.33607C19.8463 7.60756 17.0548 8.63882 13.6129 8.63882C10.171 8.63882 7.38379 7.60756 7.38379 6.33607C7.38379 5.06457 10.171 4.03198 13.6129 4.03198C17.0548 4.03198 19.8463 5.06325 19.8463 6.33607Z" fill="#F0A508"/>
<path d="M9.41655 7.1856C9.41655 7.31833 9.2592 7.4338 9.06252 7.4338C8.86584 7.4338 8.7085 7.32231 8.7085 7.1856C8.7085 7.0489 8.86725 6.93741 9.06252 6.93741C9.2578 6.93741 9.41655 7.0489 9.41655 7.1856Z" fill="#DA840D"/>
<path d="M8.70837 6.13968C8.70672 6.1762 8.69378 6.21147 8.67116 6.24112C8.64854 6.27077 8.61722 6.29352 8.58107 6.30655C8.54492 6.31957 8.50552 6.32232 8.46774 6.31443C8.42996 6.30655 8.39546 6.28839 8.36848 6.26219C8.3415 6.23599 8.32323 6.2029 8.31593 6.167C8.30864 6.1311 8.31262 6.09398 8.32741 6.0602C8.34219 6.02642 8.36712 5.99747 8.39912 5.97692C8.43112 5.95637 8.46879 5.94513 8.50747 5.94458C8.53428 5.94475 8.56078 5.94995 8.58544 5.95988C8.6101 5.96981 8.63243 5.98428 8.65112 6.00243C8.66981 6.02058 8.6845 6.04207 8.69433 6.06563C8.70415 6.08919 8.70893 6.11436 8.70837 6.13968Z" fill="#DA840D"/>
<path d="M10.8329 7.78796C11.0207 7.78796 11.1729 7.65307 11.1729 7.48668C11.1729 7.32028 11.0207 7.18539 10.8329 7.18539C10.6451 7.18539 10.4929 7.32028 10.4929 7.48668C10.4929 7.65307 10.6451 7.78796 10.8329 7.78796Z" fill="#DA840D"/>
<path d="M10.4282 6.29111C10.4282 6.3734 10.3313 6.44108 10.2119 6.44108C10.0925 6.44108 9.99695 6.37074 9.99695 6.29111C9.99695 6.21147 10.0939 6.1398 10.2119 6.1398C10.3299 6.1398 10.4282 6.20749 10.4282 6.29111Z" fill="#DA840D"/>
<path d="M12.5999 7.00249C12.6051 7.04418 12.5967 7.08635 12.5758 7.12343C12.555 7.1605 12.5228 7.19072 12.4833 7.21008C12.4439 7.22944 12.3992 7.23703 12.3551 7.23184C12.3111 7.22665 12.2697 7.20893 12.2365 7.18102C12.2033 7.15311 12.1799 7.11634 12.1694 7.07557C12.1588 7.03481 12.1616 6.99197 12.1774 6.95275C12.1932 6.91352 12.2213 6.87976 12.2578 6.85594C12.2944 6.83211 12.3378 6.81934 12.3822 6.81933C12.4367 6.81678 12.49 6.83455 12.5307 6.86881C12.5715 6.90307 12.5963 6.95108 12.5999 7.00249Z" fill="#DA840D"/>
<path d="M12.6828 8.10646C12.6828 8.1914 12.5789 8.26042 12.4496 8.26042C12.3204 8.26042 12.2164 8.1914 12.2164 8.10646C12.2164 8.02152 12.3204 7.95383 12.4496 7.95383C12.5789 7.95383 12.6828 8.02284 12.6828 8.10646Z" fill="#DA840D"/>
<path d="M11.7528 6.46069C11.7504 6.49131 11.7385 6.52059 11.7187 6.54494C11.6989 6.5693 11.672 6.58767 11.6413 6.59782C11.6107 6.60796 11.5775 6.60943 11.546 6.60206C11.5144 6.59468 11.4858 6.57877 11.4637 6.55628C11.4416 6.53379 11.4268 6.50569 11.4213 6.47542C11.4159 6.44515 11.4198 6.41403 11.4328 6.38586C11.4457 6.35769 11.4671 6.33369 11.4942 6.31681C11.5214 6.29993 11.5531 6.29089 11.5856 6.2908C11.6316 6.29253 11.675 6.31136 11.7063 6.34319C11.7376 6.37502 11.7543 6.41725 11.7528 6.46069Z" fill="#DA840D"/>
<path d="M14.172 6.78343C14.172 6.86837 14.0708 6.93739 13.9458 6.93739C13.8208 6.93739 13.7196 6.86837 13.7196 6.78343C13.7196 6.69849 13.8208 6.63611 13.9458 6.63611C14.0708 6.63611 14.172 6.69849 14.172 6.78343Z" fill="#DA840D"/>
<path d="M14.172 7.5783C14.172 7.62874 14.0708 7.66988 13.9458 7.66988C13.8208 7.66988 13.7196 7.62874 13.7196 7.5783C13.7196 7.52787 13.8208 7.48672 13.9458 7.48672C14.0708 7.48672 14.172 7.52787 14.172 7.5783Z" fill="#DA840D"/>
<path d="M15.7021 7.06084C15.7021 7.12986 15.6108 7.1856 15.497 7.1856C15.3832 7.1856 15.2919 7.12986 15.2919 7.06084C15.2919 6.99183 15.3846 6.93741 15.497 6.93741C15.6094 6.93741 15.7021 6.99315 15.7021 7.06084Z" fill="#DA840D"/>
<path d="M15.4575 7.94743C15.4677 7.98902 15.4639 8.03257 15.4467 8.07205C15.4296 8.11154 15.3998 8.145 15.3616 8.1678C15.3235 8.1906 15.2787 8.20161 15.2336 8.19931C15.1885 8.197 15.1452 8.1815 15.1099 8.15494C15.0745 8.12839 15.0487 8.09209 15.0362 8.05109C15.0236 8.01009 15.0249 7.96641 15.0397 7.92611C15.0546 7.88581 15.0824 7.85088 15.1193 7.82616C15.1561 7.80145 15.2001 7.78817 15.2453 7.78817C15.2958 7.78293 15.3464 7.79673 15.3861 7.82656C15.4258 7.85638 15.4515 7.89983 15.4575 7.94743Z" fill="#DA840D"/>
<path d="M17.1603 7.69788C17.1501 7.73658 17.1286 7.77179 17.0983 7.79954C17.068 7.8273 17.0301 7.84648 16.9888 7.85493C16.9476 7.86338 16.9046 7.86075 16.8649 7.84734C16.8251 7.83394 16.7901 7.81029 16.7639 7.77907C16.7376 7.74785 16.7211 7.71031 16.7162 7.6707C16.7114 7.63108 16.7183 7.59097 16.7363 7.55491C16.7544 7.51884 16.7827 7.48825 16.8182 7.46661C16.8536 7.44497 16.8948 7.43313 16.937 7.43243C16.9704 7.43537 17.0028 7.44465 17.0323 7.45973C17.0617 7.4748 17.0877 7.49536 17.1086 7.52015C17.1294 7.54495 17.1448 7.57348 17.1537 7.60402C17.1626 7.63457 17.1648 7.66649 17.1603 7.69788Z" fill="#DA840D"/>
<path d="M17.0379 6.53534C17.0379 6.58843 16.9663 6.6309 16.8777 6.6309C16.7892 6.6309 16.719 6.58843 16.719 6.53534C16.719 6.48225 16.7892 6.4411 16.8777 6.4411C16.9663 6.4411 17.0379 6.48357 17.0379 6.53534Z" fill="#DA840D"/>
<path d="M18.3866 6.81273C18.3866 7.01845 18.2897 7.18568 18.1703 7.18568C18.0509 7.18568 17.9553 7.01845 17.9553 6.81273C17.9553 6.60701 18.0523 6.4411 18.1703 6.4411C18.2883 6.4411 18.3866 6.60833 18.3866 6.81273Z" fill="#DA840D"/>
<path d="M18.9261 6.43582C18.9258 6.45519 18.9195 6.47404 18.9079 6.49002C18.8963 6.506 18.8799 6.51838 18.8609 6.52561C18.8419 6.53284 18.821 6.5346 18.801 6.53066C18.7809 6.52672 18.7625 6.51726 18.7481 6.50348C18.7337 6.48969 18.7239 6.47219 18.72 6.45317C18.7161 6.43416 18.7183 6.41448 18.7262 6.39661C18.7341 6.37874 18.7474 6.36347 18.7645 6.35274C18.7815 6.342 18.8016 6.33627 18.8221 6.33627C18.8359 6.33627 18.8495 6.33886 18.8622 6.34387C18.8749 6.34889 18.8864 6.35625 18.8961 6.36551C18.9058 6.37477 18.9134 6.38575 18.9186 6.39782C18.9237 6.40989 18.9262 6.42281 18.9261 6.43582Z" fill="#DA840D"/>
<path d="M15.3832 6.11712C15.3832 6.21268 15.2525 6.29099 15.091 6.29099C14.9294 6.29099 14.7974 6.21268 14.7974 6.11712C14.7974 6.02156 14.928 5.94458 15.091 5.94458C15.2539 5.94458 15.3832 6.02156 15.3832 6.11712Z" fill="#DA840D"/>
<path d="M9.87613 5.22392C9.87613 5.28231 9.77358 5.33009 9.64714 5.33009C9.52071 5.33009 9.41675 5.28231 9.41675 5.22392C9.41675 5.16552 9.5193 5.11774 9.64714 5.11774C9.77498 5.11774 9.87613 5.16552 9.87613 5.22392Z" fill="#DA840D"/>
<path d="M11.2246 5.01014C11.2246 5.06987 11.108 5.11765 10.9633 5.11765C10.8186 5.11765 10.7034 5.06987 10.7034 5.01014C10.7034 4.95041 10.82 4.90396 10.9633 4.90396C11.1066 4.90396 11.2246 4.95174 11.2246 5.01014Z" fill="#DA840D"/>
<path d="M12.9217 5.27037C12.9217 5.35531 12.7643 5.42433 12.5691 5.42433C12.3738 5.42433 12.2164 5.35531 12.2164 5.27037C12.2164 5.18543 12.3752 5.11774 12.5691 5.11774C12.7629 5.11774 12.9217 5.18543 12.9217 5.27037Z" fill="#DA840D"/>
<path d="M14.172 5.01021C14.1723 5.03158 14.1658 5.05255 14.1534 5.07043C14.141 5.08831 14.1233 5.1023 14.1024 5.1106C14.0816 5.1189 14.0586 5.12114 14.0364 5.11703C14.0142 5.11293 13.9938 5.10266 13.9778 5.08755C13.9618 5.07243 13.9509 5.05316 13.9466 5.03218C13.9422 5.0112 13.9446 4.98948 13.9534 4.96978C13.9622 4.95008 13.977 4.93331 13.9959 4.92159C14.0148 4.90988 14.037 4.90377 14.0596 4.90403C14.0895 4.90403 14.118 4.91522 14.1391 4.93513C14.1602 4.95504 14.172 4.98205 14.172 5.01021Z" fill="#DA840D"/>
<path d="M13.9458 5.85023C13.9458 5.90199 13.839 5.94446 13.7056 5.94446C13.5721 5.94446 13.4653 5.90199 13.4653 5.85023C13.4653 5.79847 13.5735 5.75467 13.7056 5.75467C13.8376 5.75467 13.9458 5.79714 13.9458 5.85023Z" fill="#DA840D"/>
<path d="M15.8242 4.96378C15.8245 4.99455 15.8151 5.0247 15.7972 5.05041C15.7793 5.07612 15.7537 5.09623 15.7237 5.10819C15.6937 5.12015 15.6606 5.12341 15.6286 5.11757C15.5967 5.11173 15.5673 5.09705 15.5441 5.07538C15.521 5.05372 15.5052 5.02605 15.4987 4.9959C15.4923 4.96574 15.4955 4.93445 15.5079 4.90599C15.5203 4.87754 15.5413 4.85321 15.5684 4.83609C15.5954 4.81896 15.6273 4.80982 15.6598 4.80982C15.6814 4.80964 15.7027 4.8135 15.7226 4.82116C15.7426 4.82882 15.7607 4.84013 15.776 4.85444C15.7913 4.86876 15.8034 4.88579 15.8117 4.90455C15.8199 4.92332 15.8242 4.94345 15.8242 4.96378Z" fill="#DA840D"/>
<path d="M16.719 5.59026C16.719 5.61548 16.6347 5.63672 16.5321 5.63672C16.4296 5.63672 16.3467 5.61548 16.3467 5.59026C16.3467 5.56504 16.4296 5.54248 16.5321 5.54248C16.6347 5.54248 16.719 5.56372 16.719 5.59026Z" fill="#DA840D"/>
<path d="M17.3023 5.27695C17.3058 5.29087 17.3047 5.30548 17.299 5.31875C17.2933 5.33202 17.2834 5.34329 17.2706 5.35101C17.2579 5.35872 17.2429 5.3625 17.2278 5.36181C17.2126 5.36113 17.1981 5.35601 17.1862 5.34718C17.1743 5.33835 17.1655 5.32623 17.1612 5.31251C17.1569 5.29879 17.1572 5.28414 17.1621 5.2706C17.167 5.25705 17.1762 5.24527 17.1885 5.2369C17.2008 5.22853 17.2155 5.22397 17.2307 5.22386C17.2476 5.22233 17.2644 5.22699 17.2778 5.23687C17.2911 5.24675 17.2999 5.2611 17.3023 5.27695Z" fill="#DA840D"/>
<path d="M16.719 5.59007C16.7157 5.61885 16.7037 5.64613 16.6844 5.66861C16.6651 5.69109 16.6393 5.70782 16.6102 5.71677C16.581 5.72572 16.5498 5.72651 16.5202 5.71904C16.4906 5.71158 16.4639 5.69618 16.4433 5.67471C16.4228 5.65324 16.4093 5.62661 16.4044 5.59803C16.3995 5.56945 16.4035 5.54015 16.4158 5.51366C16.4282 5.48717 16.4484 5.46463 16.474 5.44875C16.4996 5.43286 16.5296 5.42433 16.5602 5.42416C16.5822 5.42518 16.6037 5.43029 16.6236 5.43918C16.6434 5.44808 16.6613 5.46059 16.676 5.476C16.6908 5.49141 16.7021 5.50942 16.7095 5.52899C16.7169 5.54856 16.7201 5.56932 16.719 5.59007Z" fill="#DA840D"/>
<path d="M17.6209 5.32339C17.6209 5.37914 17.5338 5.42426 17.4256 5.42426C17.3174 5.42426 17.2303 5.37914 17.2303 5.32339C17.2303 5.26765 17.3174 5.22385 17.4256 5.22385C17.5338 5.22385 17.6209 5.26897 17.6209 5.32339Z" fill="#DA840D"/>
<path d="M21.9045 5.45361C21.7078 3.80518 18.1844 2.49387 13.8659 2.49387C9.82548 2.49387 6.48191 3.64193 5.90592 5.13772C5.77287 5.33988 5.70096 5.5726 5.698 5.81063C5.698 7.52543 9.42088 9.23889 13.8659 9.23889C18.3108 9.23889 22.0028 7.6462 22.0028 5.92876C22.0025 5.76589 21.9691 5.60459 21.9045 5.45361Z" fill="#C66720"/>
<path d="M22.4003 5.1563C22.4003 6.87109 18.5454 8.46643 13.9051 8.46643C9.26487 8.46643 5.38184 6.75297 5.38184 5.04349C5.38184 3.334 9.26487 2.25629 13.9051 2.25629C18.5454 2.25629 22.4003 3.44151 22.4003 5.1563Z" fill="#E3AC8A"/>
<path d="M22.3257 4.82587C22.3257 6.54066 18.6731 7.83605 14.037 7.83605C9.40101 7.83605 5.63599 6.44643 5.63599 4.73164C5.63599 3.01685 9.3968 1.62723 14.037 1.62723C18.6773 1.62723 22.3257 3.11108 22.3257 4.82587Z" fill="#DA840D"/>
<path d="M13.7845 6.83385C17.2271 6.83385 20.0179 5.80287 20.0179 4.53109C20.0179 3.25931 17.2271 2.22833 13.7845 2.22833C10.3419 2.22833 7.55115 3.25931 7.55115 4.53109C7.55115 5.80287 10.3419 6.83385 13.7845 6.83385Z" fill="#F0A508"/>
<path d="M9.58805 5.3804C9.58805 5.51312 9.4293 5.62992 9.23403 5.62992C9.03875 5.62992 8.88 5.51843 8.88 5.3804C8.88 5.24236 9.03875 5.1322 9.23403 5.1322C9.4293 5.1322 9.58805 5.24369 9.58805 5.3804Z" fill="#DA840D"/>
<path d="M8.87982 4.33581C8.8779 4.37237 8.86467 4.4076 8.84176 4.43713C8.81886 4.46665 8.78729 4.48919 8.75097 4.50194C8.71465 4.51469 8.67516 4.5171 8.63741 4.50886C8.59965 4.50062 8.56528 4.48211 8.53856 4.4556C8.51183 4.4291 8.49391 4.39577 8.48703 4.35974C8.48015 4.32372 8.48461 4.28658 8.49985 4.25292C8.51509 4.21926 8.54044 4.19056 8.57277 4.17038C8.6051 4.1502 8.64298 4.13942 8.68173 4.13937C8.70842 4.13989 8.73474 4.14539 8.75917 4.15556C8.7836 4.16573 8.80566 4.18036 8.82407 4.19862C8.84248 4.21688 8.85689 4.23841 8.86646 4.26195C8.87603 4.2855 8.88057 4.3106 8.87982 4.33581Z" fill="#DA840D"/>
<path d="M11.3441 5.68297C11.348 5.74716 11.3314 5.81099 11.2966 5.86619C11.2617 5.9214 11.2101 5.96544 11.1484 5.99263C11.0867 6.01981 11.0178 6.02888 10.9506 6.01867C10.8834 6.00845 10.821 5.97942 10.7715 5.93533C10.722 5.89124 10.6876 5.83412 10.6728 5.77137C10.658 5.70861 10.6635 5.6431 10.6885 5.58332C10.7136 5.52354 10.7571 5.47224 10.8133 5.43605C10.8696 5.39987 10.936 5.38047 11.0041 5.38036C11.0474 5.37912 11.0906 5.38597 11.1312 5.40051C11.1717 5.41505 11.2089 5.437 11.2404 5.4651C11.272 5.49321 11.2974 5.52691 11.3152 5.5643C11.333 5.60168 11.3428 5.64201 11.3441 5.68297Z" fill="#DA840D"/>
<path d="M10.5996 4.48582C10.5996 4.56944 10.5027 4.6358 10.3833 4.6358C10.2639 4.6358 10.1683 4.56944 10.1683 4.48582C10.1683 4.40221 10.2653 4.33585 10.3833 4.33585C10.5013 4.33585 10.5996 4.40354 10.5996 4.48582Z" fill="#DA840D"/>
<path d="M12.7716 5.19729C12.7767 5.23898 12.7683 5.28116 12.7475 5.31823C12.7266 5.3553 12.6944 5.38552 12.655 5.40489C12.6156 5.42425 12.5709 5.43184 12.5268 5.42665C12.4827 5.42146 12.4413 5.40373 12.4081 5.37583C12.375 5.34792 12.3515 5.31114 12.341 5.27038C12.3304 5.22961 12.3332 5.18678 12.349 5.14755C12.3648 5.10833 12.3929 5.07456 12.4295 5.05074C12.466 5.02691 12.5094 5.01414 12.5538 5.01413C12.6084 5.01123 12.6619 5.02888 12.7027 5.06321C12.7436 5.09754 12.7683 5.14576 12.7716 5.19729Z" fill="#DA840D"/>
<path d="M12.8542 6.30289C12.8542 6.38783 12.7503 6.45684 12.621 6.45684C12.4918 6.45684 12.3878 6.38783 12.3878 6.30289C12.3878 6.21794 12.4918 6.14893 12.621 6.14893C12.7503 6.14893 12.8542 6.21794 12.8542 6.30289Z" fill="#DA840D"/>
<path d="M11.9243 4.65582C11.9219 4.68644 11.91 4.71572 11.8902 4.74008C11.8704 4.76443 11.8435 4.78281 11.8129 4.79295C11.7822 4.80309 11.749 4.80457 11.7175 4.79719C11.6859 4.78981 11.6573 4.77391 11.6352 4.75141C11.6131 4.72892 11.5983 4.70082 11.5929 4.67056C11.5874 4.64029 11.5913 4.60916 11.6043 4.58099C11.6172 4.55282 11.6386 4.52883 11.6657 4.51194C11.6929 4.49506 11.7246 4.48602 11.7572 4.48593C11.78 4.48661 11.8024 4.49156 11.8232 4.50049C11.844 4.50942 11.8627 4.52215 11.8782 4.53794C11.8938 4.55374 11.9059 4.57229 11.9138 4.59252C11.9217 4.61276 11.9253 4.63427 11.9243 4.65582Z" fill="#DA840D"/>
<path d="M14.3437 4.97955C14.3437 5.06449 14.2426 5.13218 14.1175 5.13218C13.9925 5.13218 13.8914 5.06449 13.8914 4.97955C13.8914 4.89461 13.9925 4.82559 14.1175 4.82559C14.2426 4.82559 14.3437 4.89461 14.3437 4.97955Z" fill="#DA840D"/>
<path d="M14.3437 5.77468C14.3437 5.82512 14.2426 5.86626 14.1175 5.86626C13.9925 5.86626 13.8914 5.82512 13.8914 5.77468C13.8914 5.72425 13.9925 5.68311 14.1175 5.68311C14.2426 5.68311 14.3437 5.72425 14.3437 5.77468Z" fill="#DA840D"/>
<path d="M15.8735 5.25696C15.8735 5.32598 15.7808 5.38039 15.6684 5.38039C15.556 5.38039 15.4633 5.32598 15.4633 5.25696C15.4633 5.18795 15.556 5.1322 15.6684 5.1322C15.7808 5.1322 15.8735 5.18795 15.8735 5.25696Z" fill="#DA840D"/>
<path d="M15.6289 6.14372C15.6391 6.1853 15.6353 6.22885 15.6182 6.26834C15.601 6.30782 15.5712 6.34128 15.533 6.36408C15.4949 6.38689 15.4501 6.3979 15.405 6.39559C15.3599 6.39329 15.3166 6.37779 15.2813 6.35123C15.2459 6.32467 15.2201 6.28838 15.2076 6.24737C15.195 6.20637 15.1962 6.16269 15.2111 6.12239C15.226 6.08209 15.2538 6.04716 15.2906 6.02244C15.3275 5.99773 15.3715 5.98445 15.4167 5.98445C15.4671 5.97956 15.5175 5.99349 15.5571 6.02326C15.5968 6.05302 15.6225 6.09626 15.6289 6.14372Z" fill="#DA840D"/>
<path d="M17.3317 5.88616C17.3229 5.9254 17.3026 5.96149 17.273 5.99026C17.2435 6.01904 17.2059 6.03932 17.1646 6.04875C17.1234 6.05819 17.0802 6.0564 17.0399 6.04359C16.9997 6.03078 16.9642 6.00748 16.9374 5.97637C16.9106 5.94526 16.8937 5.90763 16.8886 5.86782C16.8835 5.82801 16.8904 5.78765 16.9086 5.75142C16.9268 5.71518 16.9555 5.68455 16.9913 5.66306C17.0271 5.64158 17.0687 5.63012 17.1111 5.63C17.176 5.63703 17.2354 5.66776 17.2766 5.71563C17.3178 5.7635 17.3376 5.82471 17.3317 5.88616Z" fill="#DA840D"/>
<path d="M17.2081 4.73146C17.2081 4.78322 17.1379 4.82569 17.0494 4.82569C16.9609 4.82569 16.8906 4.78322 16.8906 4.73146C16.8906 4.67969 16.9609 4.63589 17.0494 4.63589C17.1379 4.63589 17.2081 4.67837 17.2081 4.73146Z" fill="#DA840D"/>
<path d="M18.558 5.00885C18.558 5.21457 18.4611 5.38048 18.3416 5.38048C18.2222 5.38048 18.1267 5.21457 18.1267 5.00885C18.1267 4.80313 18.2236 4.63589 18.3416 4.63589C18.4597 4.63589 18.558 4.80313 18.558 5.00885Z" fill="#DA840D"/>
<path d="M19.0974 4.63191C19.0969 4.65121 19.0903 4.66993 19.0785 4.68573C19.0668 4.70153 19.0504 4.7137 19.0313 4.72073C19.0123 4.72776 18.9915 4.72933 18.9715 4.72525C18.9515 4.72116 18.9333 4.71161 18.919 4.69777C18.9047 4.68393 18.8951 4.66643 18.8913 4.64746C18.8875 4.62848 18.8898 4.60887 18.8977 4.59108C18.9056 4.57329 18.919 4.5581 18.936 4.54742C18.953 4.53674 18.973 4.53104 18.9934 4.53104C19.0073 4.53121 19.021 4.53396 19.0337 4.53912C19.0464 4.54428 19.0579 4.55176 19.0675 4.56113C19.0772 4.5705 19.0848 4.58157 19.0899 4.59371C19.0951 4.60586 19.0976 4.61884 19.0974 4.63191Z" fill="#DA840D"/>
<path d="M15.5545 4.31324C15.5545 4.4088 15.4239 4.48578 15.2623 4.48578C15.1007 4.48578 14.9701 4.4088 14.9701 4.31324C14.9701 4.21768 15.1007 4.13937 15.2637 4.13937C15.4267 4.13937 15.5545 4.21768 15.5545 4.31324Z" fill="#DA840D"/>
<path d="M10.0531 3.41901C10.0531 3.47741 9.95059 3.52519 9.82415 3.52519C9.69771 3.52519 9.59375 3.47741 9.59375 3.41901C9.59375 3.36062 9.69631 3.31284 9.82415 3.31284C9.95199 3.31284 10.0531 3.36062 10.0531 3.41901Z" fill="#DA840D"/>
<path d="M11.3963 3.20649C11.3963 3.26489 11.2797 3.31267 11.135 3.31267C10.9903 3.31267 10.8751 3.26489 10.8751 3.20649C10.8751 3.14809 10.9917 3.10031 11.135 3.10031C11.2783 3.10031 11.3963 3.14809 11.3963 3.20649Z" fill="#DA840D"/>
<path d="M13.0931 3.46655C13.0931 3.5515 12.9357 3.62051 12.7404 3.62051C12.5452 3.62051 12.3878 3.5515 12.3878 3.46655C12.3878 3.38161 12.5452 3.3179 12.7404 3.3179C12.9357 3.3179 13.0931 3.38161 13.0931 3.46655Z" fill="#DA840D"/>
<path d="M14.3435 3.20628C14.3438 3.2276 14.3374 3.24852 14.3251 3.26637C14.3127 3.28422 14.295 3.29821 14.2743 3.30655C14.2535 3.31489 14.2306 3.31721 14.2084 3.31321C14.1863 3.30921 14.1659 3.29908 14.1498 3.2841C14.1337 3.26912 14.1228 3.24997 14.1183 3.22908C14.1138 3.20819 14.1159 3.18651 14.1245 3.16678C14.1331 3.14706 14.1476 3.13019 14.1664 3.11832C14.1851 3.10645 14.2072 3.10011 14.2298 3.10011C14.2446 3.09993 14.2594 3.10255 14.2732 3.1078C14.287 3.11306 14.2995 3.12085 14.3101 3.13073C14.3207 3.14061 14.3291 3.15237 14.3349 3.16534C14.3406 3.17831 14.3435 3.19223 14.3435 3.20628Z" fill="#DA840D"/>
<path d="M14.1172 4.04531C14.1172 4.0984 14.0104 4.13955 13.8769 4.13955C13.7435 4.13955 13.6367 4.0984 13.6367 4.04531C13.6367 3.99222 13.7449 3.95108 13.8769 3.95108C14.009 3.95108 14.1172 3.99355 14.1172 4.04531Z" fill="#DA840D"/>
<path d="M15.9956 3.1585C15.9961 3.18932 15.987 3.2196 15.9692 3.24548C15.9515 3.27137 15.9261 3.29168 15.8961 3.30384C15.8661 3.31601 15.833 3.31946 15.8009 3.31377C15.7688 3.30808 15.7393 3.29351 15.716 3.2719C15.6927 3.25029 15.6768 3.22263 15.6702 3.19244C15.6637 3.16224 15.6668 3.13089 15.6791 3.10236C15.6915 3.07383 15.7125 3.04942 15.7396 3.03223C15.7667 3.01505 15.7986 3.00587 15.8312 3.00587C15.8526 3.00569 15.8738 3.0095 15.8937 3.01708C15.9135 3.02465 15.9316 3.03585 15.9469 3.05002C15.9621 3.06419 15.9743 3.08107 15.9826 3.09968C15.991 3.11829 15.9954 3.13828 15.9956 3.1585Z" fill="#DA840D"/>
<path d="M16.8904 3.78501C16.8904 3.81155 16.8061 3.83279 16.7035 3.83279C16.601 3.83279 16.5181 3.81155 16.5181 3.78501C16.5181 3.75846 16.601 3.73856 16.7035 3.73856C16.8061 3.73856 16.8904 3.75979 16.8904 3.78501Z" fill="#DA840D"/>
<path d="M17.4734 3.47202C17.4768 3.48594 17.4757 3.50055 17.47 3.51382C17.4643 3.52709 17.4544 3.53836 17.4416 3.54607C17.4289 3.55379 17.4139 3.55757 17.3988 3.55688C17.3836 3.55619 17.3691 3.55108 17.3572 3.54225C17.3453 3.53341 17.3366 3.5213 17.3322 3.50758C17.3279 3.49386 17.3282 3.47921 17.3331 3.46566C17.338 3.45212 17.3472 3.44034 17.3595 3.43197C17.3718 3.42359 17.3866 3.41904 17.4017 3.41893C17.4186 3.4174 17.4354 3.42205 17.4488 3.43194C17.4621 3.44182 17.4709 3.45617 17.4734 3.47202Z" fill="#DA840D"/>
<path d="M16.8904 3.78516C16.8925 3.80596 16.8899 3.82693 16.8829 3.84674C16.8759 3.86655 16.8646 3.88476 16.8498 3.9002C16.8349 3.91565 16.8168 3.92799 16.7965 3.93643C16.7763 3.94487 16.7545 3.94924 16.7324 3.94924C16.7103 3.94924 16.6884 3.94487 16.6682 3.93643C16.648 3.92799 16.6298 3.91565 16.6149 3.9002C16.6001 3.88476 16.5888 3.86655 16.5818 3.84674C16.5748 3.82693 16.5722 3.80596 16.5743 3.78516C16.5722 3.76437 16.5748 3.7434 16.5818 3.72359C16.5888 3.70378 16.6001 3.68557 16.6149 3.67013C16.6298 3.65468 16.648 3.64234 16.6682 3.6339C16.6884 3.62546 16.7103 3.62109 16.7324 3.62109C16.7545 3.62109 16.7763 3.62546 16.7965 3.6339C16.8168 3.64234 16.8349 3.65468 16.8498 3.67013C16.8646 3.68557 16.8759 3.70378 16.8829 3.72359C16.8899 3.7434 16.8925 3.76437 16.8904 3.78516Z" fill="#DA840D"/>
<path d="M17.7911 3.51982C17.7911 3.57556 17.7054 3.62069 17.5973 3.62069C17.4891 3.62069 17.402 3.57556 17.402 3.51982C17.402 3.46407 17.4891 3.41895 17.5973 3.41895C17.7054 3.41895 17.7911 3.46407 17.7911 3.51982Z" fill="#DA840D"/>
<path d="M22.3637 3.50264C22.3637 4.54851 20.9307 5.54924 18.7602 6.17039C17.171 6.60606 15.5233 6.82199 13.8685 6.81145C12.1447 6.81145 10.7286 6.38275 9.29849 6.28055C6.91304 6.10536 5.34521 4.46224 5.34521 3.38452C5.34521 1.66973 9.22965 0.597321 13.8685 0.597321C18.5073 0.597321 22.3637 1.78785 22.3637 3.50264Z" fill="#E3AC8A"/>
<path d="M22.2569 3.27549C22.2569 4.99028 18.4947 6.3799 13.8544 6.3799C9.21418 6.3799 5.45337 4.99028 5.45337 3.27549C5.45337 1.5607 9.20996 0.171082 13.8544 0.171082C18.4989 0.171082 22.2569 1.5607 22.2569 3.27549Z" fill="#DA840D"/>
<path d="M19.9672 2.98212C19.9672 4.25362 17.1758 5.28488 13.7339 5.28488C10.2919 5.28488 7.50049 4.25362 7.50049 2.98212C7.50049 1.71063 10.2905 0.67804 13.7339 0.67804C17.1772 0.67804 19.9672 1.7093 19.9672 2.98212Z" fill="#F0A508"/>
<path d="M9.5374 3.83166C9.5374 3.96438 9.37865 4.07985 9.18337 4.07985C8.9881 4.07985 8.82935 3.96837 8.82935 3.83166C8.82935 3.69495 8.9881 3.58347 9.18337 3.58347C9.37865 3.58347 9.5374 3.69363 9.5374 3.83166Z" fill="#DA840D"/>
<path d="M8.82947 2.78724C8.82782 2.82387 8.81481 2.85924 8.79207 2.88895C8.76932 2.91866 8.73784 2.9414 8.70153 2.95435C8.66522 2.9673 8.62568 2.96989 8.58783 2.96179C8.54997 2.9537 8.51547 2.93528 8.4886 2.90881C8.46174 2.88235 8.44369 2.84902 8.43671 2.81295C8.42972 2.77688 8.43411 2.73967 8.44931 2.70594C8.46452 2.6722 8.48989 2.64343 8.52226 2.6232C8.55462 2.60297 8.59257 2.59217 8.63138 2.59213C8.65795 2.59265 8.68415 2.59811 8.70849 2.60819C8.73282 2.61828 8.75482 2.6328 8.77321 2.65091C8.79161 2.66903 8.80604 2.6904 8.8157 2.71379C8.82535 2.73718 8.83003 2.76214 8.82947 2.78724Z" fill="#DA840D"/>
<path d="M11.2937 4.13288C11.2979 4.1971 11.2816 4.26105 11.2469 4.31642C11.2122 4.37179 11.1607 4.41604 11.0991 4.44343C11.0374 4.47082 10.9685 4.48009 10.9012 4.47004C10.834 4.45998 10.7714 4.43107 10.7218 4.38705C10.6721 4.34302 10.6376 4.28592 10.6226 4.22313C10.6077 4.16035 10.6131 4.09478 10.6381 4.03492C10.6631 3.97506 10.7065 3.92367 10.7628 3.88742C10.8191 3.85117 10.8856 3.83172 10.9537 3.8316C11.041 3.82909 11.1259 3.85939 11.1896 3.91587C11.2533 3.97234 11.2907 4.05038 11.2937 4.13288Z" fill="#DA840D"/>
<path d="M10.5488 2.93709C10.5488 3.01938 10.4519 3.08706 10.3325 3.08706C10.2131 3.08706 10.1176 3.01938 10.1176 2.93709C10.1176 2.8548 10.2145 2.78711 10.3339 2.78711C10.4533 2.78711 10.5488 2.85347 10.5488 2.93709Z" fill="#DA840D"/>
<path d="M12.7223 3.64821C12.7271 3.68961 12.7185 3.73143 12.6977 3.76812C12.6768 3.80482 12.6446 3.83467 12.6054 3.85372C12.5662 3.87277 12.5218 3.88013 12.4781 3.87482C12.4344 3.86951 12.3934 3.85178 12.3605 3.82398C12.3277 3.79618 12.3046 3.75962 12.2942 3.71913C12.2838 3.67865 12.2867 3.63614 12.3025 3.59724C12.3182 3.55834 12.3461 3.52487 12.3825 3.50127C12.4188 3.47766 12.4618 3.46503 12.5059 3.46505C12.5603 3.46251 12.6134 3.48032 12.654 3.51462C12.6945 3.54891 12.719 3.59692 12.7223 3.64821Z" fill="#DA840D"/>
<path d="M12.8036 4.75251C12.8036 4.83746 12.6996 4.90647 12.5704 4.90647C12.4411 4.90647 12.3372 4.83746 12.3372 4.75251C12.3372 4.66757 12.4411 4.59988 12.5704 4.59988C12.6996 4.59988 12.8036 4.6689 12.8036 4.75251Z" fill="#DA840D"/>
<path d="M11.8793 3.10566C11.8771 3.13636 11.8654 3.16579 11.8458 3.19033C11.8261 3.21487 11.7993 3.23345 11.7687 3.2438C11.738 3.25414 11.7048 3.25579 11.6731 3.24855C11.6415 3.24131 11.6127 3.22549 11.5905 3.20304C11.5682 3.18058 11.5534 3.15247 11.5478 3.12216C11.5422 3.09185 11.5461 3.06065 11.559 3.0324C11.5719 3.00416 11.5933 2.98009 11.6205 2.96316C11.6477 2.94623 11.6795 2.93717 11.7121 2.9371C11.7348 2.93779 11.7571 2.94269 11.7778 2.95154C11.7985 2.96038 11.8171 2.97299 11.8327 2.98865C11.8482 3.0043 11.8603 3.02269 11.8683 3.04277C11.8763 3.06285 11.88 3.08422 11.8793 3.10566Z" fill="#DA840D"/>
<path d="M14.2931 3.42944C14.2931 3.51439 14.1919 3.5834 14.0669 3.5834C13.9418 3.5834 13.8463 3.51439 13.8463 3.42944C13.8463 3.3445 13.9475 3.27548 14.0725 3.27548C14.1975 3.27548 14.2931 3.3445 14.2931 3.42944Z" fill="#DA840D"/>
<path d="M14.2931 4.22436C14.2931 4.2748 14.1919 4.31594 14.0669 4.31594C13.9418 4.31594 13.8463 4.2748 13.8463 4.22436C13.8463 4.17393 13.9475 4.13278 14.0725 4.13278C14.1975 4.13278 14.2931 4.17393 14.2931 4.22436Z" fill="#DA840D"/>
<path d="M15.8228 3.7069C15.8228 3.77592 15.7301 3.83166 15.6177 3.83166C15.5053 3.83166 15.4126 3.77592 15.4126 3.7069C15.4126 3.63788 15.5053 3.58347 15.6177 3.58347C15.7301 3.58347 15.8228 3.63921 15.8228 3.7069Z" fill="#DA840D"/>
<path d="M15.5786 4.59334C15.5664 4.63741 15.5391 4.67643 15.501 4.70428C15.4629 4.73213 15.416 4.74724 15.3678 4.74724C15.3196 4.74724 15.2728 4.73213 15.2347 4.70428C15.1965 4.67643 15.1692 4.63741 15.1571 4.59334C15.1692 4.54928 15.1965 4.51026 15.2347 4.48241C15.2728 4.45456 15.3196 4.43945 15.3678 4.43945C15.416 4.43945 15.4629 4.45456 15.501 4.48241C15.5391 4.51026 15.5664 4.54928 15.5786 4.59334Z" fill="#DA840D"/>
<path d="M17.2811 4.33729C17.2875 4.36805 17.2866 4.39978 17.2785 4.43018C17.2704 4.46059 17.2552 4.48891 17.2341 4.51313C17.213 4.53735 17.1865 4.55685 17.1565 4.57024C17.1265 4.58363 17.0937 4.59057 17.0605 4.59057C17.0273 4.59057 16.9946 4.58363 16.9645 4.57024C16.9345 4.55685 16.908 4.53735 16.8869 4.51313C16.8659 4.48891 16.8507 4.46059 16.8426 4.43018C16.8345 4.39978 16.8336 4.36805 16.84 4.33729C16.8324 4.306 16.8325 4.27351 16.8401 4.24224C16.8476 4.21097 16.8626 4.18171 16.8838 4.15663C16.905 4.13156 16.9318 4.11131 16.9624 4.0974C16.993 4.08349 17.0266 4.07626 17.0605 4.07626C17.0945 4.07626 17.128 4.08349 17.1586 4.0974C17.1892 4.11131 17.2161 4.13156 17.2373 4.15663C17.2585 4.18171 17.2734 4.21097 17.281 4.24224C17.2886 4.27351 17.2886 4.306 17.2811 4.33729Z" fill="#DA840D"/>
<path d="M17.1575 3.18521C17.1575 3.23697 17.0872 3.27944 16.9987 3.27944C16.9102 3.27944 16.84 3.23697 16.84 3.18521C16.84 3.13344 16.9102 3.09097 16.9987 3.09097C17.0872 3.09097 17.1575 3.12946 17.1575 3.18521Z" fill="#DA840D"/>
<path d="M18.5077 3.45878C18.5077 3.66451 18.4108 3.83174 18.2914 3.83174C18.1719 3.83174 18.0764 3.66451 18.0764 3.45878C18.0764 3.25306 18.1719 3.08716 18.2914 3.08716C18.4108 3.08716 18.5077 3.25306 18.5077 3.45878Z" fill="#DA840D"/>
<path d="M19.0442 3.08187C19.0439 3.10124 19.0376 3.1201 19.026 3.13607C19.0144 3.15205 18.9981 3.16443 18.9791 3.17166C18.9601 3.17889 18.9392 3.18065 18.9191 3.17671C18.8991 3.17277 18.8807 3.16331 18.8663 3.14953C18.8519 3.13574 18.8421 3.11824 18.8382 3.09922C18.8343 3.08021 18.8364 3.06053 18.8443 3.04266C18.8523 3.02479 18.8656 3.00953 18.8826 2.99879C18.8997 2.98806 18.9198 2.98233 18.9403 2.98233C18.968 2.98268 18.9944 2.99332 19.0139 3.01195C19.0333 3.03058 19.0442 3.0557 19.0442 3.08187Z" fill="#DA840D"/>
<path d="M15.5039 2.76315C15.5039 2.85871 15.3733 2.93702 15.2103 2.93702C15.0473 2.93702 14.9181 2.85871 14.9181 2.76315C14.9181 2.66759 15.0487 2.59061 15.2103 2.59061C15.3719 2.59061 15.5039 2.66759 15.5039 2.76315Z" fill="#DA840D"/>
<path d="M9.99686 1.87002C9.99686 1.92842 9.89431 1.9762 9.76647 1.9762C9.63863 1.9762 9.53748 1.92842 9.53748 1.87002C9.53748 1.81162 9.64003 1.76251 9.76647 1.76251C9.8929 1.76251 9.99686 1.81029 9.99686 1.87002Z" fill="#DA840D"/>
<path d="M11.3455 1.6562C11.3455 1.71592 11.2289 1.76238 11.0842 1.76238C10.9395 1.76238 10.8229 1.71592 10.8229 1.6562C10.8229 1.59647 10.9409 1.55002 11.0842 1.55002C11.2275 1.55002 11.3455 1.59249 11.3455 1.6562Z" fill="#DA840D"/>
<path d="M13.0424 1.91647C13.0424 2.00141 12.8851 2.07043 12.6898 2.07043C12.4945 2.07043 12.3372 2.00141 12.3372 1.91647C12.3372 1.83153 12.4945 1.76251 12.6898 1.76251C12.8851 1.76251 13.0424 1.83153 13.0424 1.91647Z" fill="#DA840D"/>
<path d="M14.2928 1.65627C14.293 1.67758 14.2866 1.6985 14.2743 1.71635C14.2619 1.7342 14.2443 1.74819 14.2235 1.75653C14.2027 1.76487 14.1798 1.76719 14.1576 1.76319C14.1355 1.7592 14.1151 1.74906 14.099 1.73408C14.083 1.7191 14.072 1.69995 14.0675 1.67906C14.063 1.65817 14.0651 1.63649 14.0737 1.61677C14.0823 1.59704 14.0969 1.58017 14.1156 1.5683C14.1343 1.55643 14.1564 1.55009 14.179 1.55009C14.1938 1.54991 14.2086 1.55253 14.2224 1.55779C14.2362 1.56304 14.2488 1.57084 14.2594 1.58071C14.2699 1.59059 14.2783 1.60236 14.2841 1.61532C14.2898 1.62829 14.2928 1.64221 14.2928 1.65627Z" fill="#DA840D"/>
<path d="M14.0669 2.49629C14.0669 2.54805 13.9587 2.59052 13.8267 2.59052C13.6946 2.59052 13.5864 2.54805 13.5864 2.49629C13.5864 2.44453 13.6946 2.40073 13.8267 2.40073C13.9587 2.40073 14.0669 2.4432 14.0669 2.49629Z" fill="#DA840D"/>
<path d="M15.9437 1.60991C15.9445 1.64052 15.9357 1.67067 15.9183 1.69651C15.9009 1.72234 15.8757 1.74269 15.846 1.75496C15.8164 1.76723 15.7835 1.77085 15.7516 1.76537C15.7197 1.75988 15.6903 1.74554 15.667 1.72418C15.6438 1.70281 15.6279 1.67539 15.6213 1.64543C15.6146 1.61546 15.6176 1.5843 15.6298 1.55593C15.642 1.52757 15.6629 1.50329 15.6897 1.48619C15.7166 1.46909 15.7483 1.45995 15.7807 1.45994C15.8233 1.45958 15.8643 1.47514 15.8949 1.50323C15.9254 1.53132 15.9429 1.56966 15.9437 1.60991Z" fill="#DA840D"/>
<path d="M16.8399 2.23629C16.8399 2.26151 16.7556 2.28274 16.653 2.28274C16.5505 2.28274 16.4662 2.26151 16.4662 2.23629C16.4662 2.21107 16.5505 2.18851 16.653 2.18851C16.7556 2.18851 16.8399 2.20974 16.8399 2.23629Z" fill="#DA840D"/>
<path d="M17.4231 1.92297C17.4266 1.9369 17.4254 1.95151 17.4197 1.96478C17.414 1.97804 17.4041 1.98932 17.3914 1.99703C17.3786 2.00474 17.3636 2.00852 17.3485 2.00784C17.3333 2.00715 17.3188 2.00204 17.3069 1.9932C17.295 1.98437 17.2863 1.97226 17.2819 1.95853C17.2776 1.94481 17.278 1.93017 17.2828 1.91662C17.2877 1.90307 17.297 1.8913 17.3092 1.88293C17.3215 1.87455 17.3363 1.87 17.3514 1.86988C17.3683 1.86835 17.3851 1.87301 17.3985 1.88289C17.4118 1.89278 17.4206 1.90713 17.4231 1.92297Z" fill="#DA840D"/>
<path d="M16.84 2.23631C16.8368 2.26509 16.8248 2.29237 16.8055 2.31485C16.7862 2.33734 16.7604 2.35406 16.7313 2.36301C16.7021 2.37196 16.6709 2.37275 16.6413 2.36529C16.6117 2.35783 16.585 2.34243 16.5644 2.32096C16.5439 2.29948 16.5303 2.27285 16.5255 2.24427C16.5206 2.21569 16.5246 2.18639 16.5369 2.1599C16.5493 2.13341 16.5695 2.11087 16.5951 2.09499C16.6207 2.07911 16.6506 2.07057 16.6813 2.0704C16.7032 2.07142 16.7248 2.07653 16.7447 2.08542C16.7645 2.09432 16.7823 2.10683 16.7971 2.12224C16.8118 2.13765 16.8232 2.15566 16.8306 2.17523C16.838 2.19481 16.8412 2.21556 16.84 2.23631Z" fill="#DA840D"/>
<path d="M17.7405 1.96945C17.7405 2.02519 17.6534 2.07032 17.5466 2.07032C17.4398 2.07032 17.3513 2.02519 17.3513 1.96945C17.3513 1.9137 17.4384 1.8699 17.5466 1.8699C17.6548 1.8699 17.7405 1.9137 17.7405 1.96945Z" fill="#DA840D"/>
<path d="M15.13 10.2635C15.0982 10.1489 15.0241 10.0487 14.9211 9.98107C14.8181 9.91343 14.6929 9.88275 14.5681 9.89452C13.7252 9.9516 13.6549 11.2855 13.9514 11.8681C14.0396 11.9326 14.1506 11.9627 14.2616 11.9524C14.3726 11.942 14.4752 11.8919 14.5484 11.8124C14.8182 11.527 14.9038 11.1143 14.9994 10.7506C15.0462 10.5896 15.0898 10.4272 15.13 10.2635Z" fill="#EEBE30"/>
<path d="M21.3873 3.33255C21.0942 3.22554 20.8239 3.06953 20.5893 2.872C20.309 2.61519 20.0507 2.33781 19.8167 2.04248C19.4669 1.63634 18.9583 1.47708 18.4245 1.41735C17.8302 1.34966 17.2163 1.47442 16.6178 1.44522C16.2969 1.43696 15.9823 1.35836 15.699 1.21561C15.4181 1.0643 15.1975 0.817438 14.9573 0.603753C14.4866 0.205582 13.8896 0.205582 13.2953 0.115329C12.9017 0.0496827 12.5035 0.0110916 12.104 -0.000140328C11.6952 -0.00943099 10.9801 -0.0147399 10.7062 0.352905C10.4027 0.485629 10.2959 0.838674 10.2271 1.13598C10.1883 1.38129 10.1267 1.62289 10.0431 1.85799C9.91824 2.12537 9.72516 2.35931 9.48112 2.53887C8.94587 2.9596 8.28418 3.18523 7.67868 3.47855C7.18698 3.71613 6.5843 4.05324 6.32018 4.52972C6.16143 4.81508 6.1797 5.3035 6.46067 5.51453C6.80767 5.76671 7.07178 5.29156 7.14624 5.05133C7.21508 4.83366 7.24037 4.61201 7.42721 4.44876C7.67892 4.24232 7.97812 4.09417 8.30103 4.01608C8.57217 3.94441 8.86298 3.94441 9.1299 3.8661C9.4503 3.75216 9.75169 3.59527 10.0248 3.40024C10.3451 3.1985 10.657 3.00207 11.0377 2.91447C11.3538 2.84546 11.8427 2.85608 12.0913 3.08436C12.2277 3.24042 12.3451 3.41049 12.4412 3.59136C12.5693 3.76007 12.739 3.89673 12.9357 3.98954C13.3318 4.20322 13.7856 4.29746 14.2 4.49123C14.3386 4.5593 14.4581 4.65757 14.5484 4.77792C14.5625 4.79782 14.5751 4.81773 14.5878 4.83897C14.598 4.854 14.6073 4.8695 14.6159 4.88542C15.0682 5.6738 14.4993 6.50863 14.5147 7.34081C14.5147 7.78942 14.8589 8.52338 15.4405 8.1637C15.4799 8.13981 15.5164 8.11326 15.5529 8.08672C15.6189 7.50539 15.6723 6.90946 15.8859 6.36131C16.0868 5.85165 16.3607 5.38048 16.3312 4.81906C16.3144 4.50981 16.1584 4.22578 16.1205 3.92052C16.0671 3.4958 16.4717 3.30335 16.8356 3.21974C17.3547 3.08922 17.905 3.12469 18.4006 3.32061C19.3334 3.68294 20.0864 4.43018 21.1232 4.55361C21.5334 4.60272 22.1277 4.54167 22.2906 4.11828C22.4536 3.69489 21.6795 3.45068 21.3873 3.33255Z" fill="#EEBE30"/>
<path opacity="0.5" d="M15.6794 3.88615C15.6369 3.74308 15.5583 3.61186 15.4504 3.5037C15.3425 3.39553 15.2085 3.31364 15.0599 3.265C14.8463 3.21192 14.5092 3.34597 14.5359 3.59018C14.5363 3.59507 14.5377 3.59983 14.5401 3.60416C14.5425 3.6085 14.5459 3.61232 14.5499 3.6154C14.4094 3.8981 14.8168 4.38519 14.9573 4.59224C15.0602 4.72481 15.1251 4.88026 15.1456 5.0435C15.1695 5.25454 15.0978 5.46291 15.1189 5.67129C15.1273 5.76419 15.2018 6.16104 15.3999 6.00177C15.626 5.82127 15.6499 5.41248 15.6963 5.15499C15.7897 4.73604 15.784 4.30275 15.6794 3.88615Z" fill="white"/>
<path opacity="0.5" d="M19.7649 2.51225C19.5352 2.15223 19.169 1.88837 18.7408 1.7743C18.3081 1.65618 17.2699 1.52876 17.1603 2.12735C17.1594 2.13943 17.1626 2.15148 17.1694 2.16174C17.1762 2.172 17.1863 2.17994 17.1982 2.18442C17.2259 2.20351 17.2506 2.22631 17.2713 2.25211C17.2772 2.26294 17.2865 2.27175 17.298 2.27732C17.3093 2.28117 17.3218 2.28117 17.3331 2.27732C17.4133 2.34676 17.5095 2.39765 17.6141 2.42598C17.8716 2.47986 18.1342 2.50921 18.398 2.51357C18.7633 2.54675 18.967 2.69541 19.2212 2.92634C19.3617 3.05907 19.7467 3.33779 19.9447 3.12676C20.0965 2.97811 19.8478 2.63435 19.7649 2.51225Z" fill="white"/>
<path opacity="0.5" d="M7.27979 4.17947C7.21822 4.1722 7.15593 4.1722 7.09435 4.17947C7.0946 4.17686 7.09421 4.17422 7.09322 4.17177C7.09223 4.16931 7.09066 4.16711 7.08862 4.16532C7.08659 4.16352 7.08415 4.16219 7.08149 4.16143C7.07883 4.16066 7.07602 4.16048 7.07328 4.16089C6.9706 4.17635 6.87312 4.21413 6.78852 4.27125C6.70393 4.32837 6.63453 4.40327 6.58579 4.49005C6.55208 4.55641 6.48605 4.78867 6.63075 4.80062C6.77545 4.81256 6.88924 4.66789 6.97072 4.59224C7.08882 4.47708 7.20043 4.35614 7.30508 4.22991C7.30819 4.22519 7.30999 4.21982 7.31033 4.21427C7.31066 4.20873 7.30952 4.20319 7.307 4.19817C7.30449 4.19315 7.30068 4.18881 7.29592 4.18554C7.29117 4.18228 7.28562 4.18019 7.27979 4.17947Z" fill="white"/>
<path opacity="0.5" d="M24.2253 11.8322C24.1008 11.8072 23.9722 11.806 23.8473 11.8288C23.7223 11.8515 23.6034 11.8978 23.4977 11.9647C23.392 12.0317 23.3015 12.118 23.2318 12.2186C23.162 12.3192 23.1143 12.4319 23.0916 12.5502C23.0907 12.5545 23.0909 12.5589 23.0921 12.5631C23.0932 12.5672 23.0954 12.5711 23.0983 12.5744C23.1013 12.5777 23.105 12.5804 23.1092 12.5822C23.1133 12.5839 23.1179 12.5848 23.1225 12.5848C23.1231 12.5936 23.1231 12.6025 23.1225 12.6113C23.0733 12.8183 22.8134 12.9139 22.649 13.0015C22.5268 13.0652 22.4004 13.1223 22.2739 13.1807C21.8525 13.3824 21.1894 13.6426 21.0587 14.1774C21.0566 14.1833 21.0564 14.1895 21.0582 14.1955C21.06 14.2014 21.0636 14.2067 21.0686 14.2106C21.3214 14.3752 21.6122 14.1297 21.8103 13.9757C22.2101 13.6764 22.6789 13.4705 23.1787 13.3745C23.7322 13.2603 24.7647 13.2948 24.9642 12.5781C25.085 12.1335 24.5498 11.8866 24.2253 11.8322Z" fill="white"/>
<path d="M15.1709 1.5381C15.1217 1.47306 14.9967 1.3337 14.9124 1.32441C14.8646 1.32441 14.8464 1.23416 14.8014 1.24743C14.7565 1.26071 14.6876 1.29389 14.6258 1.24743C14.6051 1.22919 14.583 1.21234 14.5598 1.197C14.5469 1.18844 14.5321 1.18269 14.5166 1.18017C14.501 1.17764 14.4851 1.17841 14.4699 1.1824C14.4305 1.197 14.4151 1.25274 14.3673 1.21691C14.3196 1.18107 14.2058 1.23549 14.1777 1.28858C14.1682 1.30314 14.1606 1.31874 14.1552 1.33503C13.988 1.35759 13.8194 1.60048 13.7562 1.71329C13.6971 1.82186 13.6695 1.94328 13.6761 2.0652C13.6828 2.18712 13.7235 2.3052 13.7941 2.40744C13.9473 2.65431 14.2591 2.68749 14.5345 2.69545C14.643 2.70733 14.7529 2.6983 14.8576 2.66891C14.9545 2.62878 15.0383 2.56512 15.1007 2.48442C15.3788 2.16057 15.4322 1.8792 15.1709 1.5381Z" fill="#48264C"/>
<path d="M15.1711 1.53822C15.1232 1.47437 15.0665 1.41679 15.0025 1.367C15.0084 1.58632 14.9334 1.80075 14.7904 1.97361C14.6474 2.14648 14.4453 2.26703 14.2186 2.31465C14.0588 2.34786 13.8926 2.34284 13.7354 2.30005C13.7522 2.3385 13.7719 2.37575 13.7944 2.41154C13.9475 2.65841 14.2594 2.69159 14.5347 2.69955C14.6432 2.71143 14.7531 2.7024 14.8578 2.67301C14.9547 2.63288 15.0385 2.56922 15.1009 2.48852C15.379 2.16069 15.4324 1.87932 15.1711 1.53822Z" fill="#300D33"/>
<path d="M15.418 14.7493C15.3729 14.6397 15.3 14.5422 15.2059 14.4653C15.1904 14.383 15.1708 14.302 15.1525 14.2198C15.1511 14.2117 15.1477 14.2041 15.1427 14.1974C15.1377 14.1908 15.1312 14.1853 15.1236 14.1813C15.1161 14.1774 15.1077 14.1751 15.0991 14.1746C15.0904 14.1741 15.0818 14.1755 15.0738 14.1786C14.9474 14.2344 14.9193 14.1627 14.8322 14.0977C14.8183 14.0896 14.8022 14.0853 14.7858 14.0853C14.7695 14.0853 14.7534 14.0896 14.7395 14.0977C14.599 14.1879 14.4501 13.9742 14.3405 14.0977C14.2764 14.1907 14.2055 14.2794 14.1284 14.3631C14.0372 14.4176 13.9532 14.4822 13.8783 14.5556C13.8245 14.6008 13.7772 14.6525 13.7378 14.7095C13.7219 14.7336 13.7074 14.7584 13.6943 14.7838C13.683 14.8077 13.6732 14.8329 13.6648 14.8568C13.6642 14.8595 13.6642 14.8622 13.6648 14.8648C13.6079 15.0382 13.6114 15.2243 13.6746 15.3957C13.7814 15.7023 14.1185 15.8111 14.4206 15.8815C14.5374 15.9194 14.6612 15.9348 14.7844 15.9266C14.9024 15.9037 15.0118 15.852 15.1019 15.7766C15.4897 15.4846 15.6189 15.186 15.418 14.7493Z" fill="#48264C"/>
<path d="M15.4183 14.7493C15.3823 14.6681 15.3351 14.5918 15.2778 14.5224C15.2282 14.7663 15.0903 14.9863 14.8878 15.1447C14.6853 15.303 14.4308 15.3899 14.1679 15.3904C13.982 15.3907 13.7989 15.3469 13.6355 15.263C13.6444 15.308 13.6566 15.3523 13.672 15.3957C13.7788 15.7023 14.116 15.8111 14.418 15.8815C14.5348 15.9194 14.6586 15.9348 14.7819 15.9266C14.8998 15.9037 15.0093 15.852 15.0994 15.7766C15.4899 15.4846 15.6191 15.186 15.4183 14.7493Z" fill="#300D33"/>
<path d="M12.8781 1.30718C12.8346 1.22622 12.7222 1.0497 12.6295 1.02448C12.5817 1.01253 12.5817 0.928919 12.5353 0.920955C12.5213 0.801504 12.4637 0.676743 12.3162 0.701961C12.2825 0.701961 12.1926 0.790886 12.1574 0.740451C12.1402 0.710652 12.1123 0.687605 12.0788 0.675416C12.0099 0.650198 11.9495 0.70727 11.9102 0.751069C11.8441 0.824067 11.7599 0.71656 11.6742 0.751069C11.6331 0.773943 11.5997 0.807186 11.5776 0.847052C11.5555 0.886917 11.5457 0.93182 11.5491 0.976699C11.5491 0.984663 11.5491 0.989972 11.5491 0.997935C11.4431 1.0739 11.3486 1.16321 11.2682 1.26338C11.1812 1.37391 11.1268 1.50425 11.1105 1.64111C11.0942 1.77796 11.1166 1.91646 11.1754 2.04247C11.2991 2.34376 11.6419 2.44064 11.9467 2.49241C12.0617 2.523 12.1818 2.53291 12.3007 2.5216C12.4166 2.49276 12.5226 2.43606 12.6084 2.35703C12.9891 2.03716 13.1015 1.73323 12.8781 1.30718Z" fill="#48264C"/>
<path d="M12.8783 1.30705C12.8361 1.22783 12.7837 1.15383 12.7223 1.08673C12.6872 1.33385 12.5621 1.56172 12.3686 1.73124C12.1751 1.90077 11.9251 2.00137 11.6617 2.0158C11.4767 2.02484 11.2922 1.99018 11.125 1.91493C11.1362 1.96009 11.1507 2.00445 11.1686 2.04765C11.2922 2.34893 11.635 2.44582 11.9398 2.49758C12.0574 2.52724 12.18 2.53535 12.3009 2.52147C12.4167 2.49263 12.5227 2.43593 12.6085 2.3569C12.9892 2.03703 13.1016 1.7331 12.8783 1.30705Z" fill="#300D33"/>
<path d="M18.3418 2.37959C18.2982 2.2774 18.1788 2.05309 18.072 2.01593C18.0116 1.99602 18.0144 1.87524 17.9526 1.88321C17.8683 1.89117 17.7883 1.91241 17.7222 1.83675C17.7013 1.80659 17.6783 1.77777 17.6534 1.75048C17.6397 1.73497 17.6225 1.72261 17.603 1.71433C17.5836 1.70605 17.5624 1.70207 17.541 1.7027C17.4848 1.71199 17.4469 1.78366 17.4005 1.71996C17.3345 1.63501 17.1842 1.69872 17.1308 1.76243C17.1143 1.77954 17.0997 1.79822 17.0872 1.81817C16.8625 1.80092 16.566 2.08362 16.4494 2.21634C16.3382 2.34793 16.2644 2.50413 16.2349 2.67018C16.2054 2.83623 16.2212 3.00665 16.2809 3.16532C16.4017 3.54358 16.7992 3.68029 17.1533 3.77187C17.2883 3.8175 17.4316 3.83691 17.5747 3.82894C17.7148 3.80214 17.8445 3.73973 17.9498 3.64843C18.4219 3.28212 18.5792 2.91978 18.3418 2.37959Z" fill="#48264C"/>
<path d="M18.3416 2.37969C18.2991 2.28009 18.2434 2.18599 18.1758 2.09964C18.121 2.39304 17.9593 2.65907 17.7186 2.85156C17.4779 3.04405 17.1734 3.15087 16.8581 3.15347C16.6395 3.15208 16.4251 3.09721 16.2357 2.9942C16.2451 3.05034 16.2587 3.10578 16.2765 3.1601C16.3973 3.53836 16.7949 3.67507 17.1489 3.76665C17.2839 3.81228 17.4272 3.83169 17.5703 3.82372C17.7104 3.79692 17.8401 3.73451 17.9454 3.64322C18.4217 3.28221 18.579 2.91987 18.3416 2.37969Z" fill="#300D33"/>
<path d="M18.1353 13.6145C18.0805 13.4964 17.9358 13.2389 17.8079 13.1978C17.7349 13.1752 17.7349 13.0345 17.6675 13.0425C17.5677 13.0531 17.4722 13.0783 17.3865 12.9921C17.3612 12.9569 17.333 12.9236 17.3022 12.8925C17.2845 12.8743 17.2627 12.86 17.2384 12.8508C17.214 12.8416 17.1878 12.8377 17.1617 12.8394C17.0943 12.85 17.0493 12.9323 16.9889 12.8607C16.9074 12.7624 16.729 12.8381 16.6644 12.9111C16.6451 12.9318 16.6277 12.954 16.6124 12.9775C16.3427 12.9589 15.9901 13.2907 15.851 13.4393C15.7197 13.59 15.6329 13.7707 15.5993 13.9632C15.5658 14.1557 15.5867 14.3532 15.6599 14.5356C15.8102 14.971 16.2893 15.1236 16.715 15.2245C16.8811 15.278 17.0569 15.2993 17.2319 15.2869C17.3985 15.2552 17.5531 15.1824 17.6801 15.0758C18.2364 14.6538 18.4191 14.2317 18.1353 13.6145Z" fill="#48264C"/>
<path d="M18.1353 13.6147C18.0833 13.4992 18.0152 13.3908 17.933 13.2922C17.8624 13.6373 17.6673 13.9486 17.3809 14.173C17.0944 14.3974 16.7345 14.5209 16.3624 14.5225C16.1004 14.5229 15.8425 14.4613 15.6122 14.3433C15.6234 14.4087 15.6403 14.4731 15.6628 14.5358C15.8131 14.9711 16.2921 15.1238 16.7178 15.2246C16.8839 15.2782 17.0598 15.2994 17.2348 15.287C17.4013 15.2554 17.556 15.1826 17.6829 15.076C18.2365 14.6539 18.4191 14.2319 18.1353 13.6147Z" fill="#300D33"/>
<path d="M11.7823 12.6591C11.7823 12.6591 12.1574 12.5263 12.3751 12.9949C12.5929 13.4634 12.6715 13.9239 12.8893 14.1429C12.9491 14.1921 12.9963 14.2535 13.0272 14.3225C13.0582 14.3915 13.072 14.4663 13.0677 14.5411C13.0677 14.5411 12.4538 14.2239 12.2964 14.0553C12.063 13.8263 11.8631 13.5688 11.7022 13.2895C11.5252 12.9524 11.4001 12.6365 11.4001 12.6365L11.7823 12.6591Z" fill="#5F825C"/>
<path d="M11.635 12.5767C11.635 12.5767 11.7291 12.209 11.2136 12.059C10.698 11.9091 10.2021 11.8865 9.94919 11.7073C9.88999 11.6563 9.81915 11.6189 9.74216 11.5979C9.66516 11.577 9.58409 11.5731 9.50525 11.5866C9.50525 11.5866 9.90844 12.1267 10.1037 12.2502C10.3717 12.4423 10.6656 12.5998 10.9775 12.7187C11.3512 12.8514 11.6982 12.9284 11.6982 12.9284L11.635 12.5767Z" fill="#5F825C"/>
<path d="M11.5618 12.7561C11.5618 12.7561 12.2544 13.2233 12.2347 13.859C12.215 14.4948 12.215 14.812 11.8132 15.1664C11.4114 15.5208 10.6472 15.5407 10.251 15.7079C9.85486 15.8751 9.38142 16.0264 9.26763 16.1193C9.15383 16.2122 8.91219 16.3065 8.55676 16.1193C8.20133 15.9322 7.99482 15.9521 8.06225 15.4278C8.16307 14.7532 8.33533 14.0898 8.57643 13.4476C8.77311 12.9618 8.94732 12.5876 9.50364 12.4389C10.0369 12.3094 10.6005 12.3486 11.108 12.5504C11.4578 12.719 11.5618 12.7561 11.5618 12.7561Z" fill="#ED6366"/>
<path d="M8.14514 14.9222C8.45955 15.0338 8.79268 15.0909 9.12854 15.0908C10.5053 15.0908 11.6208 14.1763 11.6208 13.0495C11.6211 12.9566 11.6136 12.8638 11.5983 12.7721C11.7472 12.8849 12.2459 13.303 12.2291 13.8445C12.2094 14.4789 12.2094 14.7974 11.8076 15.1518C11.4058 15.5062 10.6416 15.5261 10.2454 15.6933C9.84924 15.8606 9.3758 16.0119 9.26201 16.1048C9.14821 16.1977 8.90658 16.2919 8.55115 16.1048C8.19572 15.9176 7.9892 15.9362 8.05664 15.4133C8.07771 15.2752 8.10721 15.1067 8.14514 14.9222Z" fill="#C73A54"/>
<path d="M11.8697 14.1495C11.9638 14.1615 11.9863 14.0088 11.9933 13.8974C12.0005 13.8694 12.0005 13.8403 11.9933 13.8124V13.8031C11.9933 13.7925 11.9779 13.7898 11.9765 13.8031C11.9733 13.8034 11.9702 13.8043 11.9675 13.806C11.9648 13.8076 11.9626 13.8098 11.961 13.8124C11.9442 13.8482 11.7391 14.1336 11.8697 14.1495Z" fill="#E7D8C8"/>
<path d="M11.673 13.5736C11.6743 13.5752 11.676 13.5766 11.678 13.5775C11.6799 13.5784 11.6821 13.5789 11.6842 13.5789C11.6864 13.5789 11.6886 13.5784 11.6905 13.5775C11.6925 13.5766 11.6942 13.5752 11.6955 13.5736C11.7231 13.5523 11.7454 13.5256 11.7609 13.4954C11.7765 13.4651 11.7848 13.432 11.7854 13.3984C11.7929 13.3801 11.7972 13.3608 11.798 13.3413C11.7983 13.3385 11.7978 13.3357 11.7966 13.3331C11.7953 13.3306 11.7934 13.3284 11.791 13.3268C11.7885 13.3252 11.7857 13.3242 11.7828 13.3239C11.7798 13.3237 11.7768 13.3242 11.7741 13.3254C11.7741 13.3254 11.7573 13.3254 11.7587 13.3254C11.7184 13.3528 11.6885 13.3917 11.6731 13.4363C11.6577 13.4809 11.6576 13.5289 11.673 13.5736Z" fill="#E7D8C8"/>
<path d="M11.2669 13.272C11.3484 13.3331 11.3863 13.1937 11.4074 13.1021C11.4194 13.0744 11.4279 13.0455 11.4327 13.0159C11.433 13.0125 11.4322 13.0091 11.4304 13.0062C11.4285 13.0033 11.4258 13.0011 11.4225 12.9997C11.4192 12.9984 11.4156 12.9981 11.4121 12.9988C11.4086 12.9996 11.4055 13.0014 11.4032 13.0039C11.3638 13.0477 11.1868 13.2163 11.2669 13.272Z" fill="#E7D8C8"/>
<path d="M11.2147 13.8641C11.2159 13.8655 11.2174 13.8667 11.2191 13.8674C11.2208 13.8682 11.2227 13.8686 11.2246 13.8686C11.2265 13.8686 11.2283 13.8682 11.23 13.8674C11.2317 13.8667 11.2332 13.8655 11.2344 13.8641C11.2612 13.8395 11.2848 13.8119 11.3046 13.7819C11.3535 13.7301 11.384 13.6651 11.3917 13.5961C11.3917 13.5854 11.3805 13.5722 11.3679 13.5775L11.3426 13.5934C11.2527 13.6558 11.1459 13.7766 11.2147 13.8641Z" fill="#E7D8C8"/>
<path d="M11.3555 14.4576C11.4074 14.4881 11.4383 14.4178 11.4552 14.3448C11.4782 14.3075 11.4917 14.2657 11.4945 14.2227C11.4948 14.2199 11.4943 14.2171 11.4931 14.2146C11.4918 14.212 11.4899 14.2098 11.4875 14.2082C11.4851 14.2066 11.4822 14.2056 11.4793 14.2054C11.4763 14.2051 11.4733 14.2056 11.4707 14.2068H11.4538C11.4538 14.2068 11.4538 14.2068 11.4538 14.2161C11.4168 14.2519 11.3877 14.2943 11.3681 14.3408C11.3541 14.3714 11.3175 14.4377 11.3555 14.4576Z" fill="#E7D8C8"/>
<path d="M11.6209 14.7865C11.6771 14.821 11.7361 14.7719 11.7614 14.7241C11.7752 14.6916 11.7856 14.6578 11.7923 14.6233C11.809 14.5966 11.8191 14.5666 11.8218 14.5357C11.8251 14.5322 11.827 14.5277 11.827 14.5231C11.827 14.5184 11.8251 14.5139 11.8218 14.5105V14.5012C11.8218 14.4905 11.8035 14.4799 11.7923 14.4892C11.7459 14.5211 11.5352 14.7321 11.6209 14.7865Z" fill="#E7D8C8"/>
<path d="M11.0758 14.9696C11.1236 15.032 11.1699 14.9696 11.2022 14.9085C11.2221 14.8919 11.2378 14.8715 11.2485 14.8486C11.2592 14.8256 11.2645 14.8008 11.2641 14.7758C11.264 14.7735 11.2634 14.7712 11.2622 14.7691C11.261 14.767 11.2593 14.7653 11.2572 14.764C11.2551 14.7627 11.2527 14.7619 11.2503 14.7616C11.2478 14.7614 11.2453 14.7617 11.243 14.7625C11.177 14.7864 11.0168 14.8926 11.0758 14.9696Z" fill="#E7D8C8"/>
<path d="M10.8117 14.2013C10.8524 14.1547 10.8997 14.1136 10.9522 14.0792C10.955 14.077 10.9585 14.0757 10.9622 14.0754C10.9658 14.0752 10.9695 14.0759 10.9727 14.0777C10.9758 14.0794 10.9784 14.082 10.98 14.0851C10.9816 14.0882 10.9822 14.0917 10.9817 14.0951C10.9802 14.1148 10.975 14.1342 10.9662 14.1522V14.1721C10.9591 14.2276 10.9346 14.2798 10.896 14.3221C10.8665 14.3539 10.7976 14.3698 10.7695 14.3221C10.7415 14.2743 10.7864 14.2238 10.8117 14.2013Z" fill="#E7D8C8"/>
<path d="M10.7332 13.7329C10.7444 13.774 10.8006 13.7701 10.8287 13.7488C10.8475 13.7328 10.8628 13.7134 10.8737 13.6918C10.8998 13.6615 10.9155 13.6245 10.9186 13.5856C10.9188 13.5826 10.9181 13.5797 10.9168 13.577C10.9155 13.5743 10.9135 13.572 10.911 13.5701C10.9086 13.5683 10.9057 13.5671 10.9026 13.5665C10.8995 13.566 10.8963 13.5662 10.8933 13.567C10.8534 13.5819 10.8177 13.6055 10.7894 13.636C10.7641 13.6586 10.722 13.6957 10.7332 13.7329Z" fill="#E7D8C8"/>
<path d="M10.9748 12.7415C10.9795 12.7402 10.9845 12.7405 10.9889 12.7425C10.9934 12.7444 10.9968 12.7479 10.9987 12.7521C11.0093 12.7917 11.0075 12.8333 10.9935 12.872C10.9796 12.9106 10.954 12.9446 10.9201 12.9698C10.9174 12.9716 10.9144 12.9728 10.9111 12.9734C10.9079 12.9739 10.9046 12.9737 10.9014 12.9728C10.8983 12.9719 10.8954 12.9703 10.893 12.9682C10.8907 12.966 10.8889 12.9634 10.8877 12.9605C10.8835 12.9512 10.8806 12.9414 10.8793 12.9313C10.8665 12.8941 10.8692 12.8537 10.887 12.8184C10.9048 12.7831 10.9362 12.7556 10.9748 12.7415Z" fill="#E7D8C8"/>
<path d="M10.4899 13.4713C10.532 13.5045 10.5672 13.4713 10.5924 13.4182C10.6245 13.388 10.6482 13.3507 10.6612 13.3097C10.6742 13.2687 10.6761 13.2252 10.6669 13.1833C10.665 13.1796 10.662 13.1765 10.6582 13.1744C10.6545 13.1723 10.6502 13.1712 10.6458 13.1714C10.5826 13.1793 10.5292 13.263 10.5053 13.3041C10.4815 13.3452 10.4365 13.4315 10.4899 13.4713Z" fill="#E7D8C8"/>
<path d="M10.4745 12.7093C10.4827 12.6998 10.4916 12.6909 10.5012 12.6827C10.5044 12.6807 10.5081 12.6794 10.5119 12.679C10.5157 12.6787 10.5196 12.6793 10.5231 12.6807C10.5267 12.6822 10.5297 12.6845 10.532 12.6874C10.5344 12.6903 10.5358 12.6937 10.5364 12.6973C10.5403 12.728 10.5368 12.7592 10.5261 12.7884C10.5154 12.8176 10.4977 12.8441 10.4745 12.8659C10.4748 12.8694 10.4748 12.873 10.4745 12.8765C10.4703 12.8847 10.4638 12.8916 10.4559 12.8968C10.4479 12.9019 10.4387 12.905 10.4291 12.9058C10.4195 12.9066 10.4099 12.9051 10.4011 12.9013C10.3923 12.8976 10.3847 12.8918 10.379 12.8845C10.3186 12.8261 10.4043 12.7411 10.4745 12.7093Z" fill="#E7D8C8"/>
<path d="M9.99703 13.1953C10.0251 13.1403 10.0695 13.0941 10.1249 13.0626C10.1281 13.0604 10.1319 13.0591 10.1358 13.059C10.1398 13.0589 10.1437 13.0599 10.147 13.0619C10.1504 13.0639 10.153 13.0668 10.1546 13.0702C10.1561 13.0737 10.1565 13.0775 10.1558 13.0812C10.154 13.1059 10.1479 13.1301 10.1375 13.1528C10.1375 13.1608 10.1375 13.1687 10.1375 13.1754C10.1345 13.2048 10.1279 13.2337 10.1178 13.2617C10.1088 13.2887 10.0892 13.3115 10.0631 13.3254C10.0611 13.3287 10.0583 13.3314 10.0548 13.3334C10.0513 13.3353 10.0474 13.3363 10.0434 13.3363C10.0394 13.3363 10.0354 13.3353 10.032 13.3334C10.0285 13.3314 10.0257 13.3287 10.0237 13.3254C9.96893 13.2975 9.98579 13.2285 9.99703 13.1953Z" fill="#E7D8C8"/>
<path d="M9.89713 12.8741C9.89943 12.8756 9.90211 12.8763 9.90486 12.8763C9.90761 12.8763 9.91029 12.8756 9.91259 12.8741C9.93133 12.8572 9.9487 12.839 9.96457 12.8197C10 12.7917 10.03 12.758 10.0531 12.7202C10.0627 12.7036 10.0666 12.6846 10.0643 12.6658V12.6565C10.0643 12.6472 10.0643 12.6405 10.0503 12.6445C10.045 12.6385 10.0383 12.6338 10.0308 12.6308C10.0232 12.6278 10.0149 12.6266 10.0067 12.6273C9.91259 12.6286 9.81425 12.8091 9.89713 12.8741Z" fill="#E7D8C8"/>
<path d="M9.32948 13.0401C9.35758 13.0906 9.4236 13.0401 9.44749 13.0123C9.48576 12.9705 9.51232 12.9203 9.52475 12.8663C9.53457 12.8482 9.53986 12.8282 9.54021 12.8079C9.54064 12.8049 9.54036 12.8019 9.53941 12.7991C9.53845 12.7963 9.53683 12.7937 9.53468 12.7915C9.53252 12.7893 9.52988 12.7877 9.52695 12.7866C9.52402 12.7855 9.52087 12.7851 9.51773 12.7853C9.48492 12.7897 9.45376 12.8017 9.42704 12.8202C9.40033 12.8387 9.37887 12.8632 9.3646 12.8915C9.34072 12.93 9.30419 12.995 9.32948 13.0401Z" fill="#E7D8C8"/>
<path d="M9.46874 13.5737C9.4856 13.6148 9.53056 13.5949 9.54742 13.5737C9.56428 13.5524 9.56287 13.5458 9.56989 13.5325C9.5977 13.5038 9.61742 13.4689 9.62724 13.4311C9.63706 13.3933 9.63666 13.3538 9.62609 13.3162C9.62512 13.3136 9.62354 13.3114 9.62147 13.3095C9.6194 13.3076 9.61689 13.3063 9.61416 13.3055C9.61143 13.3047 9.60855 13.3046 9.60574 13.305C9.60293 13.3055 9.60028 13.3066 9.59799 13.3082C9.55863 13.342 9.52788 13.3837 9.50808 13.4303C9.49122 13.4648 9.44908 13.5259 9.46874 13.5737Z" fill="#E7D8C8"/>
<path d="M10.0402 13.8032C10.0552 13.7365 10.0945 13.6768 10.1512 13.6346C10.1537 13.6321 10.1568 13.6303 10.1603 13.6294C10.1639 13.6285 10.1676 13.6285 10.1711 13.6295C10.1746 13.6304 10.1777 13.6323 10.1801 13.6348C10.1826 13.6374 10.1842 13.6405 10.1849 13.6439C10.1873 13.6686 10.1839 13.6935 10.1751 13.7169C10.1716 13.7463 10.1596 13.7741 10.1406 13.7975C10.1215 13.8209 10.096 13.8389 10.0669 13.8496H10.0528C10.0494 13.8501 10.0459 13.8498 10.0426 13.8487C10.0394 13.8477 10.0364 13.8459 10.0339 13.8436C10.0315 13.8413 10.0296 13.8385 10.0285 13.8354C10.0274 13.8323 10.0271 13.829 10.0275 13.8258L10.0402 13.8032Z" fill="#E7D8C8"/>
<path d="M10.4506 13.9597C10.4535 13.9579 10.4569 13.9568 10.4604 13.9565C10.4638 13.9562 10.4673 13.9568 10.4705 13.9581C10.4737 13.9594 10.4766 13.9615 10.4787 13.9641C10.4809 13.9667 10.4823 13.9697 10.4829 13.973C10.4829 13.973 10.4829 13.973 10.4829 13.9823C10.4829 14.0566 10.4281 14.176 10.3424 14.1827C10.3401 14.1831 10.3377 14.183 10.3354 14.1824C10.3331 14.1819 10.331 14.1809 10.3292 14.1795C10.3273 14.1781 10.3258 14.1764 10.3247 14.1744C10.3236 14.1725 10.3229 14.1703 10.3228 14.1681C10.3252 14.1263 10.338 14.0856 10.3602 14.0494C10.3824 14.0132 10.4134 13.9825 10.4506 13.9597Z" fill="#E7D8C8"/>
<path d="M9.96868 14.2011C9.98628 14.1845 10.0061 14.1702 10.0277 14.1586C10.0389 14.1586 10.0586 14.1586 10.0586 14.1705C10.0558 14.2237 10.0329 14.2741 9.99397 14.3126C9.97788 14.3371 9.9544 14.3565 9.92654 14.3683C9.92281 14.3696 9.91868 14.3695 9.91501 14.368C9.91134 14.3666 9.90843 14.3638 9.90687 14.3603C9.90687 14.3603 9.90687 14.351 9.90687 14.3457C9.90607 14.3422 9.90607 14.3386 9.90687 14.3351C9.90215 14.3095 9.90549 14.2832 9.91648 14.2593C9.92746 14.2355 9.94562 14.2152 9.96868 14.2011Z" fill="#E7D8C8"/>
<path d="M9.59936 13.8284C9.60511 13.828 9.61079 13.8297 9.61523 13.8332C9.61967 13.8366 9.62254 13.8416 9.62325 13.847C9.62535 13.8584 9.62535 13.8701 9.62325 13.8815C9.6259 13.9008 9.624 13.9205 9.61769 13.9391C9.61138 13.9577 9.6008 13.9747 9.58672 13.989C9.56799 14.0213 9.539 14.0473 9.50383 14.0633C9.4954 14.0633 9.48557 14.0633 9.48135 14.054C9.45045 13.985 9.49821 13.8271 9.59936 13.8284Z" fill="#E7D8C8"/>
<path d="M8.96581 13.7449C8.96675 13.7476 8.96828 13.7502 8.9703 13.7523C8.97231 13.7545 8.97478 13.7563 8.97754 13.7575C8.9803 13.7588 8.9833 13.7595 8.98636 13.7596C8.98941 13.7597 8.99246 13.7592 8.99531 13.7581C9.03885 13.7389 9.07406 13.7061 9.09504 13.6653C9.11601 13.6245 9.12147 13.578 9.11051 13.5338C9.10919 13.5311 9.10726 13.5286 9.10486 13.5266C9.10246 13.5246 9.09964 13.5232 9.09658 13.5223C9.09352 13.5214 9.0903 13.5212 9.08713 13.5215C9.08396 13.5219 9.08092 13.523 9.0782 13.5245C9.04643 13.5457 9.01964 13.5728 8.99953 13.6042C8.98269 13.6235 8.97087 13.6463 8.96501 13.6707C8.95916 13.6952 8.95943 13.7206 8.96581 13.7449Z" fill="#E7D8C8"/>
<path d="M9.02735 14.2572C9.02714 14.2299 9.0349 14.203 9.04977 14.1796C9.06463 14.1562 9.08604 14.1371 9.11164 14.1244C9.11476 14.1232 9.11818 14.1226 9.12158 14.1228C9.12499 14.123 9.12828 14.1241 9.13118 14.1258C9.13409 14.1274 9.13651 14.1298 9.13824 14.1326C9.13998 14.1353 9.14097 14.1385 9.14114 14.1417C9.14497 14.1681 9.14213 14.1949 9.13285 14.2201C9.12357 14.2452 9.10812 14.2679 9.08776 14.2864C9.0817 14.2943 9.07406 14.3011 9.06528 14.3063C9.06262 14.3076 9.05969 14.3085 9.05667 14.3088C9.05366 14.309 9.05062 14.3087 9.04773 14.3079C9.04484 14.307 9.04217 14.3056 9.03988 14.3037C9.03758 14.3018 9.03571 14.2996 9.03437 14.297C9.03371 14.2955 9.03338 14.2939 9.03338 14.2923C9.03338 14.2907 9.03371 14.2892 9.03437 14.2877C9.03056 14.2779 9.0282 14.2676 9.02735 14.2572Z" fill="#E7D8C8"/>
<path d="M10.3143 14.4496C10.3168 14.4494 10.3194 14.4497 10.3217 14.4505C10.3241 14.4513 10.3263 14.4525 10.3282 14.4541C10.33 14.4558 10.3315 14.4577 10.3325 14.4599C10.3335 14.4621 10.334 14.4644 10.334 14.4668C10.3338 14.5022 10.3231 14.5368 10.3029 14.5667C10.2828 14.5965 10.2541 14.6203 10.2202 14.6354C10.2156 14.6367 10.2107 14.6367 10.2061 14.6354H10.1865C10.1842 14.6358 10.1819 14.6357 10.1797 14.6351C10.1775 14.6346 10.1754 14.6336 10.1737 14.6322C10.1719 14.6308 10.1705 14.629 10.1696 14.6271C10.1686 14.6251 10.1682 14.623 10.1682 14.6208C10.1759 14.5832 10.1933 14.5479 10.2188 14.518C10.2442 14.4882 10.277 14.4647 10.3143 14.4496Z" fill="#E7D8C8"/>
<path d="M10.4632 14.8197C10.4627 14.8232 10.4632 14.8268 10.4647 14.8301C10.4661 14.8335 10.4684 14.8364 10.4713 14.8386C10.4743 14.8409 10.4778 14.8424 10.4815 14.843C10.4852 14.8436 10.4891 14.8434 10.4927 14.8422H10.5025C10.5046 14.8436 10.507 14.8443 10.5095 14.8443C10.512 14.8443 10.5145 14.8436 10.5165 14.8422L10.5264 14.8329C10.5537 14.8149 10.5768 14.7919 10.5944 14.7652C10.6121 14.7385 10.6238 14.7087 10.6289 14.6777C10.6295 14.6746 10.6291 14.6715 10.6279 14.6686C10.6267 14.6657 10.6247 14.6632 10.6221 14.6613C10.6195 14.6594 10.6165 14.6582 10.6132 14.6578C10.61 14.6574 10.6067 14.6578 10.6036 14.6591C10.5587 14.6788 10.5214 14.7113 10.4969 14.752C10.4809 14.7722 10.4694 14.7952 10.4632 14.8197Z" fill="#E7D8C8"/>
<path d="M10.3804 15.2872C10.3982 15.2517 10.4241 15.2204 10.4562 15.1956C10.4699 15.1814 10.4849 15.1685 10.5012 15.1571C10.5058 15.1557 10.5107 15.1557 10.5153 15.1571C10.5181 15.1549 10.5216 15.1536 10.5252 15.1533C10.5289 15.1531 10.5326 15.1538 10.5357 15.1556C10.5389 15.1573 10.5415 15.1599 10.5431 15.163C10.5447 15.1661 10.5453 15.1696 10.5448 15.173C10.5393 15.2044 10.5244 15.2337 10.5017 15.2573C10.479 15.2808 10.4495 15.2977 10.4169 15.3057H10.4057C10.4027 15.3076 10.3992 15.3086 10.3957 15.3084C10.3921 15.3083 10.3887 15.3072 10.3859 15.3051C10.3831 15.303 10.3811 15.3002 10.3801 15.297C10.3791 15.2937 10.3792 15.2903 10.3804 15.2872Z" fill="#E7D8C8"/>
<path d="M9.92512 15.0587C9.92638 15.0394 9.93205 15.0207 9.94176 15.0037C9.95146 14.9868 9.96496 14.972 9.98132 14.9605C10.003 14.9393 10.0301 14.9238 10.06 14.9153C10.0726 14.9153 10.0895 14.9153 10.0895 14.9313C10.0873 14.969 10.0725 15.0051 10.0473 15.0344C10.022 15.0638 9.98765 15.0848 9.94901 15.0945C9.94605 15.0949 9.94305 15.0947 9.94017 15.094C9.93729 15.0932 9.9346 15.092 9.93224 15.0902C9.92989 15.0885 9.92793 15.0864 9.92646 15.0839C9.925 15.0814 9.92407 15.0787 9.92372 15.0759C9.92234 15.0749 9.92126 15.0735 9.92056 15.0719C9.91987 15.0704 9.91957 15.0687 9.91971 15.067C9.91985 15.0653 9.92041 15.0637 9.92135 15.0622C9.92229 15.0608 9.92359 15.0596 9.92512 15.0587Z" fill="#E7D8C8"/>
<path d="M9.60075 14.5147H9.61199C9.61652 14.513 9.62139 14.5123 9.62623 14.5128C9.63107 14.5132 9.63573 14.5147 9.63984 14.5172C9.64394 14.5196 9.64738 14.523 9.64986 14.5269C9.65235 14.5309 9.65381 14.5353 9.65414 14.5399C9.64571 14.6076 9.5853 14.6952 9.51366 14.6991C9.50242 14.6991 9.48697 14.6912 9.48837 14.6792C9.48781 14.6444 9.49819 14.6102 9.51819 14.5809C9.53819 14.5516 9.56692 14.5285 9.60075 14.5147Z" fill="#E7D8C8"/>
<path d="M9.37307 15.1304C9.40156 15.091 9.4423 15.0608 9.48968 15.0441C9.49334 15.0427 9.49734 15.0422 9.50127 15.0427C9.50521 15.0432 9.50893 15.0447 9.51207 15.0469C9.51521 15.0492 9.51765 15.0523 9.51915 15.0557C9.52064 15.0592 9.52114 15.063 9.52059 15.0667C9.49457 15.144 9.43829 15.2091 9.36324 15.2485C9.36007 15.251 9.35627 15.2525 9.35224 15.2531C9.3482 15.2536 9.34409 15.2531 9.34034 15.2516C9.33659 15.2501 9.33334 15.2477 9.33094 15.2445C9.32854 15.2414 9.32708 15.2378 9.32671 15.2339C9.32533 15.2145 9.3288 15.1949 9.33685 15.177C9.3449 15.159 9.35731 15.143 9.37307 15.1304Z" fill="#E7D8C8"/>
<path d="M9.00206 14.7057C9.00309 14.6789 9.01106 14.6528 9.02527 14.6297C9.03947 14.6065 9.05949 14.5871 9.08354 14.5729C9.09478 14.5729 9.11585 14.5729 9.12007 14.5822C9.12522 14.6174 9.11962 14.6531 9.10394 14.6854C9.08826 14.7176 9.06314 14.7449 9.03156 14.7641C9.02756 14.7671 9.02269 14.7689 9.01759 14.7692C9.01249 14.7696 9.00739 14.7685 9.00298 14.766C8.99856 14.7636 8.99504 14.7599 8.99287 14.7555C8.9907 14.7512 8.98998 14.7463 8.99082 14.7415C8.99378 14.7293 8.99754 14.7174 9.00206 14.7057Z" fill="#E7D8C8"/>
<path d="M8.6482 14.293C8.65276 14.2772 8.66262 14.2632 8.6763 14.2532L8.68473 14.2439C8.69456 14.232 8.72125 14.2359 8.72125 14.2532C8.72029 14.2822 8.71054 14.3103 8.69315 14.3341C8.6922 14.3516 8.68732 14.3687 8.67884 14.3843C8.67037 14.3998 8.65849 14.4135 8.64399 14.4244C8.64132 14.426 8.63826 14.427 8.63509 14.4271C8.63193 14.4273 8.62877 14.4267 8.62594 14.4253C8.6231 14.424 8.62069 14.422 8.61892 14.4195C8.61716 14.417 8.61612 14.4141 8.61589 14.4111C8.61228 14.3694 8.62366 14.3278 8.6482 14.293Z" fill="#E7D8C8"/>
<path d="M8.99817 13.1463L9.01643 13.1237C9.02627 13.1144 9.04875 13.1237 9.04875 13.133C9.05138 13.1594 9.04756 13.1861 9.03757 13.211C9.02759 13.2358 9.01171 13.2582 8.99115 13.2763V13.2843C8.98899 13.2862 8.98633 13.2876 8.98343 13.2883C8.98053 13.2889 8.9775 13.2889 8.97464 13.288C8.97179 13.2872 8.96921 13.2857 8.96717 13.2837C8.96514 13.2816 8.96371 13.2791 8.96305 13.2763C8.96166 13.268 8.96166 13.2595 8.96305 13.2511C8.95736 13.2323 8.95765 13.2123 8.96389 13.1937C8.97014 13.175 8.98206 13.1585 8.99817 13.1463Z" fill="#E7D8C8"/>
<path d="M8.82935 15.3336C8.83081 15.3361 8.83295 15.3381 8.83554 15.3396C8.83814 15.341 8.84109 15.3418 8.8441 15.3418C8.84712 15.3418 8.85007 15.341 8.85267 15.3396C8.85526 15.3381 8.8574 15.3361 8.85886 15.3336L8.87009 15.3216C8.89855 15.3006 8.92192 15.2742 8.93864 15.2439C8.95536 15.2137 8.96504 15.1805 8.96703 15.1464C8.96739 15.1427 8.96663 15.139 8.96486 15.1357C8.96309 15.1324 8.96037 15.1296 8.957 15.1276C8.95364 15.1257 8.94977 15.1247 8.94583 15.1247C8.94189 15.1248 8.93804 15.1258 8.93472 15.1278C8.87431 15.169 8.80266 15.2632 8.82935 15.3336Z" fill="#E7D8C8"/>
<path d="M8.49372 15.0548C8.49716 15.0374 8.50653 15.0215 8.52041 15.0096C8.52581 15.0009 8.53243 14.9929 8.54007 14.9858C8.54215 14.983 8.5449 14.9808 8.54807 14.9792C8.55125 14.9777 8.55477 14.9769 8.55834 14.9769C8.56191 14.9769 8.56542 14.9777 8.5686 14.9792C8.57177 14.9808 8.57452 14.983 8.5766 14.9858C8.58776 15.0149 8.58776 15.0468 8.5766 15.076C8.56917 15.106 8.55256 15.1332 8.52884 15.1543C8.52655 15.1559 8.5239 15.157 8.52109 15.1575C8.51828 15.1579 8.5154 15.1578 8.51267 15.157C8.50994 15.1562 8.50744 15.1549 8.50536 15.153C8.50329 15.1512 8.50171 15.1489 8.50074 15.1463C8.49258 15.1325 8.48772 15.1171 8.48651 15.1013C8.48529 15.0855 8.48776 15.0696 8.49372 15.0548Z" fill="#E7D8C8"/>
<path d="M8.5513 15.5073C8.55434 15.5051 8.55793 15.5038 8.56171 15.5034C8.56549 15.503 8.56931 15.5036 8.57277 15.5051C8.57622 15.5066 8.57919 15.509 8.58134 15.5119C8.5835 15.5149 8.58477 15.5183 8.58502 15.5219C8.58858 15.5539 8.58478 15.5862 8.57386 15.6167C8.56295 15.6472 8.54519 15.6751 8.5218 15.6984C8.5218 15.6984 8.5218 15.7064 8.5218 15.709C8.52041 15.7122 8.51807 15.7149 8.51507 15.7168C8.51207 15.7187 8.50855 15.7197 8.50494 15.7197C8.50134 15.7197 8.49781 15.7187 8.49481 15.7168C8.49181 15.7149 8.48947 15.7122 8.48808 15.709C8.47873 15.6731 8.47965 15.6355 8.49076 15.6001C8.50187 15.5646 8.52277 15.5326 8.5513 15.5073Z" fill="#E7D8C8"/>
<path d="M9.0696 15.7025C9.07431 15.7012 9.07933 15.7014 9.08389 15.7031C9.08846 15.7048 9.09232 15.7078 9.09488 15.7118C9.0964 15.7139 9.0972 15.7165 9.0972 15.7191C9.0972 15.7217 9.0964 15.7242 9.09488 15.7264C9.09535 15.7294 9.09535 15.7326 9.09488 15.7357C9.09472 15.7615 9.08816 15.787 9.07572 15.81C9.06328 15.8331 9.0453 15.8531 9.02324 15.8684C9.02069 15.8702 9.01772 15.8715 9.01456 15.8721C9.0114 15.8728 9.00813 15.8727 9.00501 15.8719C9.00189 15.8711 8.99899 15.8697 8.99655 15.8677C8.99411 15.8657 8.99218 15.8632 8.99092 15.8604C8.99027 15.8578 8.99027 15.8551 8.99092 15.8524C8.98834 15.8527 8.98573 15.8524 8.9833 15.8515C8.98087 15.8506 8.97868 15.8492 8.97692 15.8474C8.97515 15.8456 8.97384 15.8435 8.97311 15.8411C8.97237 15.8388 8.97222 15.8363 8.97266 15.8339C8.97626 15.8062 8.98697 15.7797 9.00386 15.7568C9.02076 15.7339 9.04333 15.7152 9.0696 15.7025Z" fill="#E7D8C8"/>
<path d="M9.73834 15.3826C9.74126 15.3808 9.74462 15.3797 9.7481 15.3794C9.75158 15.3791 9.75508 15.3797 9.75829 15.381C9.76149 15.3823 9.7643 15.3844 9.76646 15.3869C9.76862 15.3895 9.77006 15.3926 9.77065 15.3959C9.77204 15.4362 9.76095 15.476 9.73874 15.5104C9.71653 15.5448 9.68416 15.5723 9.64562 15.5896C9.63883 15.5921 9.63133 15.5921 9.62454 15.5896L9.60768 15.6003C9.60518 15.6011 9.60249 15.6014 9.59986 15.601C9.59722 15.6007 9.5947 15.5998 9.59251 15.5984C9.59032 15.5969 9.58851 15.5951 9.58724 15.5928C9.58597 15.5906 9.58527 15.5882 9.58521 15.5857C9.59118 15.5426 9.60826 15.5015 9.63496 15.4661C9.66167 15.4307 9.69716 15.402 9.73834 15.3826Z" fill="#E7D8C8"/>
<path d="M10.879 15.2909C10.8819 15.2847 10.8856 15.2789 10.8902 15.2736C10.8879 15.264 10.8879 15.254 10.8902 15.2444C10.906 15.2155 10.9318 15.1926 10.9632 15.1794C10.9745 15.1794 10.9899 15.1794 10.9942 15.1873C10.9997 15.206 10.9997 15.2258 10.9942 15.2444C10.9897 15.266 10.9768 15.2852 10.9581 15.2982C10.9394 15.3113 10.9161 15.3172 10.893 15.3148C10.8881 15.313 10.8839 15.3096 10.8814 15.3052C10.8788 15.3009 10.8779 15.2958 10.879 15.2909Z" fill="#E7D8C8"/>
</g>
<defs>
<clipPath id="clip0_672_4120">
<rect width="27" height="18" fill="white" transform="translate(0.5)"/>
</clipPath>
</defs>
</svg>
