<svg width="26" height="17" viewBox="0 0 26 17" fill="none" xmlns="http://www.w3.org/2000/svg">
<path fill-rule="evenodd" clip-rule="evenodd" d="M23.9834 13.8977C23.9834 15.0193 18.8854 16.249 13.4781 16.249C8.07081 16.249 3.64966 14.2999 3.64966 13.1783C3.64966 12.0567 8.78765 11.8679 14.1936 11.8679C19.5995 11.8679 23.9834 12.7761 23.9834 13.8977Z" fill="#E2CAB3"/>
<path fill-rule="evenodd" clip-rule="evenodd" d="M24.8202 15.0426C24.8354 15.6417 23.5329 16.1614 21.91 16.2025C20.2871 16.2435 18.9584 15.7921 18.9432 15.1917C18.9281 14.5912 20.2305 14.0728 21.8534 14.0318C23.4763 13.9907 24.805 14.4421 24.8202 15.0426Z" fill="#E2CAB3"/>
<path fill-rule="evenodd" clip-rule="evenodd" d="M1.19108 10.7791C0.326459 12.8089 1.37892 13.8717 2.78082 14.0468C3.33329 14.1152 4.16199 13.7363 4.77524 13.4997C5.2742 13.2802 5.7479 13.0083 6.18818 12.6886C6.39674 12.4766 6.64259 12.188 6.69232 11.8679C6.699 11.7442 6.6723 11.621 6.61497 11.5109C6.63056 11.4648 6.6534 11.4214 6.68265 11.3823C6.75723 11.2456 6.55558 11.1402 6.6564 10.987C6.81662 10.7422 6.6053 10.4782 6.50171 10.2607C6.46718 10.191 5.57632 9.40724 5.53489 9.33201C4.79181 8.55373 4.59154 8.18716 3.56947 8.02713C2.28635 7.8247 1.04191 8.28838 1.19108 10.7791Z" fill="#5F825C"/>
<g style="mix-blend-mode:multiply" opacity="0.4">
<path fill-rule="evenodd" clip-rule="evenodd" d="M1.6552 10.0296C1.8016 10.0474 1.87342 10.4399 1.81265 10.9105C1.75188 11.381 1.58614 11.7421 1.43835 11.7243C1.29057 11.7065 1.22151 11.314 1.2809 10.8434C1.34029 10.3729 1.50051 10.0104 1.6552 10.0296Z" fill="#5F825C"/>
</g>
<path fill-rule="evenodd" clip-rule="evenodd" d="M1.79322 12.2304C1.47969 12.3671 1.50869 12.7679 1.63576 13.0278C1.63888 13.0319 1.64122 13.0365 1.64267 13.0415C1.67251 13.1013 1.70961 13.1574 1.75316 13.2083C1.90708 13.4024 2.11949 13.5428 2.3595 13.6091C2.6606 13.6843 3.00589 13.6337 3.17992 13.3971C3.18418 13.3898 3.1911 13.3844 3.19926 13.382V13.352C3.16058 13.1988 2.92302 13.1687 2.79595 13.1495C2.51972 13.1071 2.43823 12.8664 2.35398 12.6434C2.26972 12.4205 2.06945 12.1045 1.79322 12.2304Z" fill="#8DB54F"/>
<g style="mix-blend-mode:multiply" opacity="0.4">
<path fill-rule="evenodd" clip-rule="evenodd" d="M4.63011 9.21575C4.37459 9.35252 4.61215 9.66165 4.73508 9.808C5.01131 10.1472 5.38975 10.3907 5.62041 10.7764C5.85107 11.1621 5.54997 11.7598 5.91875 12.0854C5.93652 12.1011 5.95728 12.1132 5.97981 12.1209C6.00234 12.1286 6.0262 12.1317 6.04998 12.1302C6.07376 12.1287 6.097 12.1225 6.11834 12.112C6.13968 12.1014 6.15869 12.0868 6.17427 12.069C6.19042 12.0431 6.20253 12.015 6.21018 11.9855C6.25506 11.9288 6.29007 11.865 6.31376 11.7968C6.3759 11.5828 6.36768 11.3548 6.29028 11.1457C6.23227 10.9583 6.36211 10.7764 6.30548 10.589C6.27953 10.5192 6.23798 10.4561 6.18393 10.4044C6.12728 10.3393 6.06227 10.2818 5.99057 10.2334C5.85688 10.1233 5.73346 10.0015 5.62179 9.86955C5.48803 9.71256 5.34111 9.56705 5.18258 9.43459C5.01546 9.2773 4.79861 9.1241 4.63011 9.21575Z" fill="#5F825C"/>
</g>
<path fill-rule="evenodd" clip-rule="evenodd" d="M1.4259 10.905C1.28778 10.8818 1.20076 10.827 0.754643 10.7176C0.308522 10.6082 0.0820084 10.5836 0.0129494 10.5425C-0.0561096 10.5015 0.137256 10.2868 0.137256 10.2868C0.137256 10.2868 0.471501 10.414 0.746356 10.5152C1.02121 10.6164 1.52396 10.7504 1.52396 10.7504C1.52396 10.7504 1.60269 10.7942 1.57092 10.8653C1.53915 10.9365 1.4259 10.905 1.4259 10.905Z" fill="#300D33"/>
<path fill-rule="evenodd" clip-rule="evenodd" d="M24.8591 6.9507C24.4848 7.03687 24.1685 7.26119 23.779 7.28033C23.3646 7.30085 22.9503 7.12988 22.5456 7.05191C21.6658 6.88231 20.7653 6.78793 19.8758 6.69081C18.0803 6.49385 16.2612 6.40905 14.4588 6.20388C12.6564 5.99871 10.8677 5.76482 9.06392 5.77302C8.19491 5.77519 7.32766 5.85023 6.47144 5.99734C5.76566 6.11907 5.04745 6.26133 4.4563 6.68124C4.00133 7.01267 3.65846 7.47287 3.4729 8.00116C3.23258 8.64403 4.50188 12.5805 4.69387 12.8391C6.36233 15.0275 9.16336 15.5063 13.7724 15.4146C18.6976 15.3161 20.6009 14.7731 21.9959 13.5531C22.7459 12.8979 23.3771 11.2128 23.4903 10.8831C23.6823 10.3018 23.895 9.72869 24.0939 9.15011C24.2196 8.78354 24.3508 8.42108 24.5083 8.06682C24.6749 7.73401 24.8135 7.38815 24.9226 7.03276C24.9258 7.02308 24.9265 7.0128 24.9247 7.00278C24.923 6.99277 24.9188 6.98333 24.9125 6.97526C24.9063 6.96719 24.8982 6.96075 24.8889 6.95647C24.8796 6.95219 24.8693 6.95021 24.8591 6.9507Z" fill="#DA840D"/>
<path fill-rule="evenodd" clip-rule="evenodd" d="M24.1131 7.22014C23.4847 7.65783 22.58 7.67562 21.8438 7.81923C20.0262 8.17486 18.2141 8.4197 16.3592 8.37593C14.5443 8.33489 12.7281 8.12289 10.9201 7.97516C9.07208 7.82471 7.21992 7.71665 5.36638 7.80008C4.95691 7.81491 4.55071 7.87828 4.15646 7.98884C3.95481 8.04629 3.65371 8.12562 3.55289 8.33079C3.52802 8.38404 3.51439 8.44175 3.51283 8.5004V8.50997C3.42168 8.81362 3.52803 9.06803 3.633 9.33749C3.65786 9.45102 3.68548 9.56454 3.71172 9.67807C3.66476 9.67807 3.65786 9.7492 3.71172 9.75056H3.72692C3.73262 9.75697 3.73963 9.7621 3.74749 9.76561C3.75535 9.76912 3.76387 9.77094 3.7725 9.77094C3.78112 9.77094 3.78964 9.76912 3.7975 9.76561C3.80536 9.7621 3.81237 9.75697 3.81807 9.75056C4.14403 9.75056 4.46723 9.69038 4.79457 9.68217C5.28627 9.6685 5.70338 9.91743 6.13293 10.1226C6.90363 10.4864 7.63151 10.9118 8.41188 11.2346C8.76005 11.3789 9.11823 11.4982 9.48367 11.5916C9.84804 11.6692 10.2171 11.7231 10.5886 11.753C10.9836 11.8036 11.3745 11.8898 11.7681 11.9431C12.209 11.9949 12.6535 12.0091 13.0968 11.9855C14.8574 11.9548 16.6126 11.7833 18.3453 11.4726C19.9199 11.1799 21.4944 10.7395 22.8659 9.89829C23.4082 9.57178 23.8675 9.12628 24.2084 8.59614C24.3659 8.35131 24.4999 8.08732 24.6463 7.83565C24.754 7.64826 24.8838 7.42531 24.8645 7.20783C24.8327 6.73457 24.3065 7.08746 24.1131 7.22014Z" fill="#C66720"/>
<path opacity="0.4" fill-rule="evenodd" clip-rule="evenodd" d="M13.5223 14.4954C6.68546 15.4529 4.63855 12.7269 4.70071 12.8076C6.36917 14.9961 9.17159 15.4748 13.7792 15.3831C18.7045 15.286 20.7058 14.7102 22.1022 13.4901C22.8094 12.8705 23.5925 10.5849 23.7486 10.1404C20.3274 12.928 19.3509 13.6748 13.5223 14.4954Z" fill="#C66720"/>
<path fill-rule="evenodd" clip-rule="evenodd" d="M25.9943 4.72117C25.9156 4.24108 25.1656 4.17406 24.7954 4.03728C24.4681 3.91691 24.243 3.62694 23.9764 3.40946C23.6887 3.17396 23.3688 2.98008 23.0261 2.83361C22.2458 2.49987 21.464 2.23315 20.7527 1.76126C20.098 1.32493 19.2942 1.26885 18.5428 1.14712C18.0784 1.07531 17.6237 0.950937 17.1879 0.776448C16.8007 0.59626 16.3918 0.466163 15.9711 0.389361C15.5374 0.331914 15.0913 0.430395 14.6576 0.448176C14.1769 0.467326 13.7349 0.311397 13.2833 0.174617C12.9146 0.0423829 12.523 -0.0157412 12.1314 0.00364233C11.7668 0.0337339 11.4408 0.225225 11.1342 0.413982C11.1265 0.418214 11.12 0.424342 11.1154 0.43177C11.1108 0.439198 11.1083 0.447676 11.1079 0.456383C10.7613 0.635565 10.4284 0.835263 10.0803 1.01581C9.78991 1.17445 9.4784 1.29186 9.15496 1.3646C8.75856 1.44667 8.38564 1.38101 7.992 1.33041C7.30141 1.2415 6.64811 1.22509 5.99344 1.47539C5.21445 1.77357 4.5943 2.38087 3.82222 2.70641C3.15787 2.97997 2.57916 3.30414 2.16481 3.91007C1.99234 4.16438 1.87479 4.45123 1.81951 4.75263C1.76841 5.0768 1.84713 5.37088 1.91619 5.68821C2.00735 6.09855 1.92586 6.42682 1.80708 6.82211C1.70586 7.08276 1.71331 7.37254 1.8278 7.62774C1.93553 7.83565 2.16481 7.96969 2.36508 8.07638C2.56535 8.18307 3.07638 8.29796 3.1192 8.5469C3.30152 9.60284 4.50038 9.1077 5.20616 9.36758C5.55284 9.49752 5.87327 9.69449 6.22547 9.82169C6.63016 9.96805 7.05418 10.0775 7.46853 10.1883C8.29724 10.4098 9.09556 10.7053 9.90079 11.0089C10.2558 11.1457 10.5914 11.3153 10.9712 11.3837C11.351 11.4521 11.7433 11.3906 12.119 11.3577C12.8993 11.288 15.3675 11.4945 15.6948 11.329C16.1189 11.1225 16.5125 11.1416 16.9711 11.1799C17.3288 11.21 17.6382 10.9474 17.9973 10.9187C18.4101 10.8784 18.8172 10.7935 19.2113 10.6656C19.5629 10.5311 19.9211 10.4142 20.2845 10.3155C20.6989 10.2238 21.0607 9.92701 21.4792 9.87093C22.2927 9.76014 22.8894 9.30877 23.5192 8.7849C24.091 8.31028 25.4432 6.67439 25.5606 6.35022C25.678 6.02605 25.765 5.66632 25.8603 5.33121C25.9128 5.14382 26.0274 4.92087 25.9943 4.72117Z" fill="#F0A508"/>
<g opacity="0.5">
<path opacity="0.5" fill-rule="evenodd" clip-rule="evenodd" d="M13.2335 2.30975C13.1189 2.45884 12.9808 2.49987 12.9932 3.42724C13.0056 4.35461 13.0954 4.70476 12.7349 5.40781C12.3744 6.11086 11.6755 6.79339 11.4283 7.54157C11.1811 8.28976 10.8689 9.51804 11.1852 9.9954C11.5015 10.4728 12.6534 10.708 14.2238 10.7504C15.7942 10.7928 17.5165 10.5384 18.4848 10.2402C19.453 9.94206 20.0123 9.81896 20.2319 9.55634C20.4516 9.29372 19.3563 7.05054 18.5897 6.17514C17.8232 5.29975 17.4558 5.00978 16.5912 4.28485C15.7265 3.55992 15.3481 3.27131 14.9213 2.68589C14.4945 2.10048 14.384 2.06902 13.9352 2.07586C13.6816 2.07514 13.435 2.15736 13.2335 2.30975Z" fill="#E2CAB3"/>
<path opacity="0.5" fill-rule="evenodd" clip-rule="evenodd" d="M4.50989 8.20359C5.11899 6.81254 5.92283 6.17926 6.14797 5.86466C6.76812 4.99885 7.13551 4.61997 7.95731 4.49687C8.77911 4.37376 8.32885 4.37787 9.26253 4.24793C10.1962 4.11799 10.9793 3.91692 11.6105 3.42725C12.2417 2.93758 12.5677 2.55596 12.9033 2.43696C13.2389 2.31796 13.7569 2.05261 13.3895 2.42739C13.0221 2.80216 13.5124 2.94442 12.8218 3.96069C12.1312 4.97696 11.8025 5.5022 11.5567 6.28594C11.3108 7.06969 11.0567 9.51531 10.4945 9.70817C9.9324 9.90103 8.59127 9.93523 7.34545 9.47701C6.37874 9.10121 5.43229 8.67617 4.50989 8.20359Z" fill="#E2CAB3"/>
<path opacity="0.5" fill-rule="evenodd" clip-rule="evenodd" d="M21.3465 8.8287C21.3465 8.8287 22.5012 8.4717 23.1642 7.90133C23.8271 7.33096 24.4901 6.79889 24.7 6.01514C24.91 5.23139 25.1475 5.0358 24.8906 4.80327C24.6337 4.57074 23.2595 3.33562 22.1283 2.72695C20.9971 2.11828 19.5593 1.73393 18.2803 1.46721C17.0013 1.20049 16.3232 1.35642 15.6561 1.33043C14.989 1.30445 13.9324 2.06631 13.9475 2.07452C14.3169 2.42628 14.7278 2.7326 15.1713 2.98684C15.7707 3.29869 17.1685 3.82666 17.8508 4.21785C18.5331 4.60904 19.0745 5.47349 19.2319 5.87836C19.3894 6.28323 19.6104 6.40906 19.8355 7.1846C20.0607 7.96015 20.6849 9.20894 20.6849 9.20894L21.3465 8.8287Z" fill="#E2CAB3"/>
<path opacity="0.5" fill-rule="evenodd" clip-rule="evenodd" d="M2.62879 4.11663C2.62879 4.11663 2.09565 5.53504 2.37189 6.21757C2.56346 6.66526 2.82442 7.0806 3.14535 7.44859C3.14535 7.44859 3.83594 8.10239 4.30692 7.42533C4.77791 6.74828 5.7986 5.1671 6.60935 4.55706C7.4201 3.94703 8.42974 3.81572 9.17834 3.72681C9.92694 3.63791 11.6852 3.33836 12.1714 2.9458C12.6575 2.55324 13.9476 2.07451 13.9476 2.07451C13.3895 1.82077 12.8081 1.62061 12.2114 1.47679C11.3081 1.27162 9.86341 1.8201 8.69079 1.54654C7.51817 1.27298 6.37455 1.88986 5.07624 2.5464C4.2141 2.99535 3.39491 3.52092 2.62879 4.11663Z" fill="#E2CAB3"/>
<path opacity="0.5" fill-rule="evenodd" clip-rule="evenodd" d="M10.3634 1.21281C10.3634 1.21281 11.5775 0.0789098 12.402 0.0994267C13.4448 0.126783 13.7832 0.353837 14.2818 0.509766C14.8495 0.684844 15.076 0.754602 14.9296 0.980288C14.7832 1.20597 14.0926 2.21131 14.0926 2.21131C14.0926 2.21131 12.4352 1.40567 11.8275 1.31266C11.3427 1.24263 10.8533 1.20925 10.3634 1.21281Z" fill="#E2CAB3"/>
</g>
<path opacity="0.4" fill-rule="evenodd" clip-rule="evenodd" d="M22.3038 2.46841C21.9765 2.33163 21.6477 2.2181 21.3259 2.06628C20.949 1.87464 20.5617 1.70386 20.1657 1.55472C19.8085 1.44616 19.4418 1.37061 19.0705 1.32903C18.2307 1.19225 17.46 0.848935 16.6548 0.602732C16.1931 0.462069 15.7107 0.400092 15.228 0.419447C14.8081 0.446803 14.3869 0.446803 13.967 0.419447C13.5526 0.375678 13.188 0.185554 12.7847 0.0802335C12.2944 -0.0483395 11.8869 0.0802335 11.4519 0.311391C10.8096 0.64103 10.1688 1.04316 9.47264 1.2538C9.10086 1.37389 8.71177 1.43302 8.32074 1.42888C7.90639 1.4152 7.51137 1.33314 7.10392 1.30578C6.65506 1.25832 6.2019 1.34 5.79871 1.54104C5.4927 1.70165 5.20433 1.89326 4.93823 2.11278C4.93685 2.13693 4.93685 2.16113 4.93823 2.18527C4.85791 2.41765 4.82917 2.66446 4.85398 2.90884C4.86613 3.15821 4.93208 3.40211 5.04739 3.62412C5.1627 3.84614 5.3247 4.04112 5.52247 4.19594C5.80976 4.43667 6.11085 4.62132 6.35118 4.90993C6.5915 5.19853 6.76553 5.49945 7.04177 5.7306C7.49203 6.11085 8.09008 6.14094 8.65637 6.14094C8.9547 6.14094 9.25166 6.1259 9.54861 6.14094C9.95619 6.18344 10.357 6.27532 10.7419 6.4145C11.5375 6.66071 12.3179 7.00129 13.1397 7.16132C13.9615 7.32135 14.7764 7.12849 15.5747 6.91648C16.373 6.70448 17.1603 6.56222 17.942 6.35706C18.6488 6.18499 19.3197 5.89148 19.924 5.48987C20.569 5.02585 21.1523 4.48311 21.6602 3.8745C21.8549 3.65018 22.04 3.41766 22.232 3.1906C22.4027 3.0195 22.5169 2.80102 22.5593 2.56415C22.4726 2.53651 22.3873 2.50456 22.3038 2.46841Z" fill="#E2CAB3"/>
<path fill-rule="evenodd" clip-rule="evenodd" d="M11.2833 3.4081C11.2198 3.42177 11.1563 3.43272 11.0969 3.44092H11.0775C10.6439 3.52436 10.2143 3.62831 9.76819 3.59412C9.46709 3.57223 8.29033 3.60369 8.56656 4.14123C8.56982 4.15054 8.56982 4.16066 8.56656 4.16996C8.80965 4.32315 9.34969 4.26023 9.53339 4.24656C9.68913 4.23602 9.84382 4.21361 9.99608 4.17953C10.4293 4.0094 10.8413 3.79048 11.2239 3.52709C11.2487 3.49004 11.2686 3.45006 11.2833 3.4081Z" fill="#C66720"/>
<path fill-rule="evenodd" clip-rule="evenodd" d="M12.9961 4.51051C13.0247 4.22412 13.0144 3.93524 12.9657 3.65154C12.7812 4.0856 12.5447 4.49614 12.2613 4.87435C12.0956 5.08088 11.876 5.26006 11.742 5.48985C11.6702 5.61296 11.5707 5.79624 11.6232 5.9467C11.7061 6.18333 11.8525 6.18196 12.0086 6.1505C12.2765 5.98636 12.5224 5.60338 12.655 5.40642C12.7776 5.22397 12.8773 5.02737 12.9519 4.821C12.9671 4.71842 12.9809 4.61583 12.9961 4.51051Z" fill="#C66720"/>
<path fill-rule="evenodd" clip-rule="evenodd" d="M17.4117 3.68986C17.0878 3.55925 16.7573 3.44557 16.4214 3.34928C16.2163 3.29647 16.0158 3.2274 15.8219 3.14275C15.6731 3.05425 15.5049 3.00264 15.3316 2.99229C15.3211 2.9916 15.3107 2.99362 15.3012 2.99813C15.2918 3.00264 15.2837 3.0095 15.2777 3.01804C15.2717 3.02658 15.2681 3.03651 15.2671 3.04685C15.2661 3.0572 15.2679 3.06762 15.2722 3.07709C15.2859 3.12062 15.313 3.15885 15.3496 3.18651C15.5555 3.47176 15.7837 3.74067 16.0319 3.99078C16.2542 4.23972 16.4462 4.50781 16.6948 4.73896C17.0318 5.0604 17.6409 5.25599 17.9862 4.81283C18.3674 4.31905 17.8481 3.87178 17.4117 3.68986Z" fill="#C66720"/>
<path fill-rule="evenodd" clip-rule="evenodd" d="M16.0194 1.26613C15.902 1.01583 15.5208 1.02266 15.268 1.08148C15.2475 1.08413 15.2272 1.08825 15.2072 1.09379C14.8574 1.27199 14.5861 1.57141 14.4448 1.93499C14.8592 1.81325 15.1644 1.52465 15.6023 1.47404C15.6727 1.46583 16.0995 1.43437 16.0194 1.26613Z" fill="#C66720"/>
<path fill-rule="evenodd" clip-rule="evenodd" d="M10.1742 1.7202C10.2297 1.73772 10.2873 1.74784 10.3455 1.7503C10.4823 1.72711 10.6211 1.71794 10.7598 1.72294C10.8137 1.72026 10.8676 1.72026 10.9214 1.72294C11.1023 1.73012 11.2826 1.74747 11.4615 1.77492L11.5319 1.79407C11.6303 1.80438 11.7289 1.77751 11.8082 1.71884C11.4035 1.54239 10.2889 1.12384 10.1369 1.66412C10.1348 1.67641 10.1375 1.68903 10.1444 1.69944C10.1513 1.70984 10.162 1.71726 10.1742 1.7202Z" fill="#C66720"/>
<path fill-rule="evenodd" clip-rule="evenodd" d="M2.59862 7.64006C2.56628 7.71123 2.54307 7.78613 2.52956 7.86301C2.50889 7.92023 2.49679 7.98014 2.49365 8.04083C2.4943 8.04465 2.49586 8.04826 2.49818 8.05137C2.50051 8.05449 2.50355 8.05702 2.50705 8.05875C2.51055 8.06048 2.51441 8.06137 2.51832 8.06135C2.52223 8.06132 2.52609 8.06038 2.52956 8.05861C2.571 8.03536 2.57238 7.9656 2.57929 7.92183C2.59181 7.82888 2.61308 7.7373 2.64282 7.64827C2.65387 7.62775 2.61105 7.61407 2.59862 7.64006Z" fill="#C66720"/>
<path fill-rule="evenodd" clip-rule="evenodd" d="M2.85809 7.85204C2.82282 7.91978 2.79726 7.99205 2.78213 8.06678C2.77108 8.10645 2.73931 8.16937 2.75174 8.20356C2.75252 8.20799 2.75467 8.21208 2.75788 8.21526C2.76109 8.21844 2.76522 8.22057 2.76969 8.22134C2.82218 8.22134 2.8277 8.15295 2.83599 8.11602C2.85533 8.03532 2.8719 7.95189 2.89953 7.87255C2.90919 7.8493 2.8719 7.82742 2.85809 7.85204Z" fill="#C66720"/>
<path fill-rule="evenodd" clip-rule="evenodd" d="M4.10679 8.78489C4.09436 8.92167 4.05016 9.05845 4.05155 9.20343C4.05155 9.24447 4.11646 9.25131 4.11784 9.20343C4.13872 9.06243 4.15209 8.92044 4.1579 8.77805C4.15652 8.75069 4.10956 8.75753 4.10679 8.78489Z" fill="#C66720"/>
<path fill-rule="evenodd" clip-rule="evenodd" d="M4.44936 8.85602C4.4042 8.96385 4.38255 9.07991 4.38582 9.1966C4.38582 9.24037 4.45626 9.24857 4.45764 9.1966C4.46172 9.08369 4.47418 8.97122 4.49493 8.86012C4.50046 8.83824 4.45902 8.8314 4.44936 8.85602Z" fill="#C66720"/>
<path fill-rule="evenodd" clip-rule="evenodd" d="M10.0308 10.7231C10.01 10.7746 9.99513 10.8283 9.98658 10.8831C9.97357 10.9322 9.96799 10.9829 9.97001 11.0336C9.97182 11.039 9.97534 11.0438 9.98005 11.0472C9.98476 11.0506 9.99043 11.0524 9.99625 11.0524C10.0021 11.0524 10.0077 11.0506 10.0124 11.0472C10.0172 11.0438 10.0207 11.039 10.0225 11.0336C10.0342 10.9889 10.0402 10.9429 10.0404 10.8968C10.0487 10.8393 10.0515 10.7819 10.0625 10.7245C10.0653 10.7121 10.0377 10.708 10.0308 10.7231Z" fill="#C66720"/>
<path fill-rule="evenodd" clip-rule="evenodd" d="M10.4229 10.7709C10.4014 10.84 10.3866 10.911 10.3787 10.9829C10.3633 11.0432 10.3586 11.1057 10.3649 11.1676C10.3671 11.1729 10.3708 11.1775 10.3756 11.1807C10.3804 11.1839 10.3861 11.1857 10.3919 11.1857C10.3977 11.1857 10.4033 11.1839 10.4081 11.1807C10.4129 11.1775 10.4166 11.1729 10.4188 11.1676C10.4336 11.1137 10.4401 11.0579 10.4381 11.0021C10.4381 10.9255 10.4506 10.8489 10.4575 10.7737C10.4567 10.7698 10.4548 10.7664 10.4518 10.7638C10.4489 10.7611 10.4452 10.7596 10.4413 10.7593C10.4373 10.7589 10.4334 10.7599 10.4301 10.762C10.4268 10.7641 10.4243 10.7673 10.4229 10.7709Z" fill="#C66720"/>
<path fill-rule="evenodd" clip-rule="evenodd" d="M11.9824 11.0048C11.9824 10.9829 11.9561 10.9638 11.9451 10.9843C11.9095 11.0519 11.8906 11.1269 11.8898 11.2032C11.8898 11.2415 11.8802 11.3399 11.9285 11.3495C11.9316 11.3506 11.9349 11.3511 11.9381 11.3509C11.9414 11.3507 11.9446 11.3499 11.9475 11.3485C11.9505 11.3471 11.9531 11.3452 11.9553 11.3427C11.9575 11.3403 11.9592 11.3375 11.9603 11.3345C11.9625 11.2918 11.9593 11.2491 11.9506 11.2073C11.95 11.1385 11.9608 11.0701 11.9824 11.0048Z" fill="#C66720"/>
<path fill-rule="evenodd" clip-rule="evenodd" d="M12.3703 10.9912C12.3693 10.9881 12.3674 10.9854 12.3648 10.9835C12.3622 10.9816 12.3591 10.9806 12.3558 10.9806C12.3526 10.9806 12.3494 10.9816 12.3468 10.9835C12.3442 10.9854 12.3423 10.9881 12.3413 10.9912C12.3108 11.1081 12.2987 11.229 12.3054 11.3495C12.3054 11.3865 12.3648 11.3906 12.3634 11.3495C12.3569 11.2301 12.3592 11.1103 12.3703 10.9912Z" fill="#C66720"/>
<path fill-rule="evenodd" clip-rule="evenodd" d="M12.7957 11.0336C12.7957 11.0289 12.7938 11.0244 12.7905 11.021C12.7871 11.0177 12.7825 11.0158 12.7778 11.0158C12.773 11.0158 12.7684 11.0177 12.7651 11.021C12.7617 11.0244 12.7598 11.0289 12.7598 11.0336C12.7543 11.0883 12.7501 11.143 12.7474 11.1977C12.7474 11.2374 12.7198 11.2894 12.7474 11.3236C12.7496 11.3252 12.7522 11.3261 12.755 11.3261C12.7577 11.3261 12.7604 11.3252 12.7626 11.3236C12.8095 11.3236 12.8068 11.2483 12.8095 11.2128C12.8121 11.1527 12.8074 11.0926 12.7957 11.0336Z" fill="#C66720"/>
<path fill-rule="evenodd" clip-rule="evenodd" d="M20.3618 10.1787C20.3618 10.1869 20.3618 10.165 20.3618 10.1623C20.3534 10.1427 20.3465 10.1226 20.3411 10.1021C20.3273 10.0488 20.3245 9.99131 20.3079 9.93797C20.3079 9.92292 20.2775 9.91472 20.2734 9.93797C20.2693 9.96122 20.2734 10.2621 20.359 10.2115C20.362 10.2101 20.3646 10.2079 20.3665 10.2051C20.3684 10.2024 20.3696 10.1992 20.3698 10.1959C20.3701 10.1926 20.3695 10.1893 20.3681 10.1862C20.3667 10.1832 20.3645 10.1806 20.3618 10.1787Z" fill="#C66720"/>
<path fill-rule="evenodd" clip-rule="evenodd" d="M20.8536 10.0556C20.8262 9.9718 20.7929 9.89 20.7541 9.81076C20.7523 9.80513 20.7483 9.80046 20.743 9.79777C20.7376 9.79508 20.7315 9.79458 20.7258 9.79639C20.7201 9.79821 20.7154 9.80218 20.7127 9.80744C20.71 9.8127 20.7095 9.81881 20.7113 9.82443C20.7319 9.91279 20.7587 9.99963 20.7914 10.0843C20.8066 10.1253 20.8701 10.0966 20.8536 10.0556Z" fill="#C66720"/>
<path fill-rule="evenodd" clip-rule="evenodd" d="M21.3259 9.81346C21.2779 9.74501 21.2454 9.66709 21.2306 9.58504C21.2294 9.58 21.2264 9.57552 21.2223 9.57232C21.2182 9.56912 21.2131 9.56738 21.2078 9.56738C21.2026 9.56738 21.1975 9.56912 21.1934 9.57232C21.1892 9.57552 21.1863 9.58 21.1851 9.58504C21.1787 9.68311 21.2081 9.78018 21.2679 9.8586C21.2942 9.90237 21.3536 9.85313 21.3259 9.81346Z" fill="#C66720"/>
<path fill-rule="evenodd" clip-rule="evenodd" d="M21.9144 9.74646C21.868 9.70785 21.8299 9.66029 21.8026 9.60669C21.7753 9.55308 21.7593 9.49453 21.7555 9.43461C21.7559 9.43132 21.7551 9.42801 21.7535 9.42512C21.7519 9.42223 21.7494 9.4199 21.7465 9.41842C21.7435 9.41694 21.7401 9.41639 21.7368 9.41684C21.7335 9.41729 21.7304 9.41871 21.7279 9.42093C21.6064 9.50573 21.7887 9.72458 21.8564 9.78887C21.8909 9.82716 21.9489 9.78066 21.9144 9.74646Z" fill="#C66720"/>
<path fill-rule="evenodd" clip-rule="evenodd" d="M22.5801 9.43462C22.507 9.31211 22.4263 9.19424 22.3384 9.08173C22.3287 9.06532 22.2969 9.07079 22.3038 9.09268C22.3466 9.22945 22.4682 9.32657 22.5276 9.45924C22.5428 9.49618 22.5953 9.47155 22.5801 9.43462Z" fill="#C66720"/>
<path fill-rule="evenodd" clip-rule="evenodd" d="M23.1297 9.01197C23.1172 8.98599 23.0841 8.97094 23.062 8.95453L22.9529 8.87519C22.9252 8.85468 22.8962 8.83553 22.8672 8.81638C22.8382 8.79723 22.8369 8.80817 22.8244 8.80133C22.812 8.79449 22.8134 8.80133 22.8175 8.80133C22.8217 8.80133 22.8244 8.82322 22.8341 8.83279C22.8585 8.8579 22.8843 8.88164 22.9114 8.90392C22.946 8.93401 22.9819 8.96136 23.0178 8.98872C23.0537 9.01608 23.073 9.03933 23.1048 9.03933C23.1083 9.03935 23.1118 9.03864 23.115 9.03723C23.1182 9.03583 23.1211 9.03376 23.1234 9.03118C23.1258 9.02859 23.1276 9.02555 23.1286 9.02224C23.1297 9.01893 23.1301 9.01543 23.1297 9.01197Z" fill="#C66720"/>
<path fill-rule="evenodd" clip-rule="evenodd" d="M23.598 8.67001C23.5954 8.66205 23.5907 8.65493 23.5844 8.6494C23.5781 8.64386 23.5704 8.64012 23.5621 8.63855C23.5363 8.62672 23.5126 8.61104 23.4916 8.59204C23.4429 8.5498 23.401 8.50045 23.3673 8.44569C23.3521 8.42244 23.3162 8.44569 23.3273 8.47168C23.3567 8.53709 23.3995 8.59576 23.453 8.64402C23.4861 8.67411 23.5483 8.72472 23.5911 8.696C23.5948 8.69291 23.5975 8.68875 23.5987 8.68409C23.5999 8.67944 23.5997 8.67452 23.598 8.67001Z" fill="#C66720"/>
<path fill-rule="evenodd" clip-rule="evenodd" d="M25.1574 6.911C25.151 6.9036 25.1432 6.8976 25.1344 6.89336C25.1256 6.88912 25.116 6.88674 25.1063 6.88638C25.0756 6.88112 25.0464 6.86946 25.0206 6.85218C24.9657 6.81457 24.9245 6.76034 24.9032 6.69762C24.9032 6.6771 24.8673 6.68941 24.8687 6.70856C24.8773 6.78238 24.9144 6.85004 24.9723 6.89732C25.0123 6.93015 25.1104 6.98349 25.156 6.93562C25.1591 6.93233 25.1609 6.92806 25.1612 6.92356C25.1615 6.91905 25.1601 6.91461 25.1574 6.911Z" fill="#C66720"/>
<path fill-rule="evenodd" clip-rule="evenodd" d="M25.4625 6.56221C25.3459 6.50244 25.2476 6.41267 25.178 6.30233C25.1656 6.28181 25.1297 6.30233 25.1421 6.32011C25.2057 6.44639 25.3096 6.54833 25.4377 6.61009C25.4653 6.62103 25.4902 6.57452 25.4625 6.56221Z" fill="#C66720"/>
<path fill-rule="evenodd" clip-rule="evenodd" d="M25.6517 6.07938C25.5988 6.04521 25.548 6.00775 25.4998 5.96722C25.4529 5.92482 25.4087 5.88242 25.3617 5.84412C25.3437 5.83044 25.3203 5.85643 25.3355 5.87421C25.4074 5.98493 25.5074 6.07501 25.6255 6.13546C25.6327 6.13724 25.6402 6.13649 25.6469 6.13333C25.6536 6.13018 25.6589 6.12482 25.6621 6.11817C25.6652 6.11153 25.6658 6.10402 25.6639 6.09694C25.6621 6.08985 25.6578 6.08365 25.6517 6.07938Z" fill="#C66720"/>
<path fill-rule="evenodd" clip-rule="evenodd" d="M2.25608 7.27897C2.1365 7.44126 2.05574 7.62834 2.0199 7.82608C2.0199 7.8425 2.04338 7.84387 2.04752 7.82608C2.09493 7.63828 2.17943 7.46162 2.29613 7.30632C2.31271 7.28033 2.27265 7.25298 2.25608 7.27897Z" fill="#C66720"/>
<path fill-rule="evenodd" clip-rule="evenodd" d="M2.04057 7.14356C2.01018 7.15723 1.99775 7.18322 1.97703 7.21058C1.95631 7.23793 1.9204 7.28991 1.89554 7.33231C1.86031 7.38094 1.84146 7.43933 1.84168 7.49918C1.84168 7.5197 1.87344 7.5156 1.87482 7.49918C1.89088 7.43727 1.92007 7.37945 1.96046 7.32958C1.99361 7.27897 2.05852 7.22152 2.06543 7.16134C2.06567 7.1583 2.06512 7.15525 2.06382 7.15248C2.06253 7.14971 2.06054 7.14732 2.05804 7.14553C2.05554 7.14375 2.05262 7.14263 2.04956 7.14228C2.0465 7.14193 2.04341 7.14237 2.04057 7.14356Z" fill="#C66720"/>
<path fill-rule="evenodd" clip-rule="evenodd" d="M2.43976 7.58807C2.4009 7.64992 2.36939 7.71601 2.34584 7.78503C2.3151 7.84943 2.29282 7.91746 2.27954 7.98746C2.27954 8.00524 2.30578 8.01071 2.30993 7.98746C2.32763 7.92004 2.35312 7.85487 2.38589 7.79323C2.42623 7.73107 2.45434 7.66193 2.46876 7.58943C2.46895 7.58562 2.46759 7.5819 2.465 7.57908C2.46241 7.57626 2.4588 7.57457 2.45495 7.57439C2.4511 7.57421 2.44734 7.57555 2.44449 7.57811C2.44164 7.58068 2.43994 7.58426 2.43976 7.58807Z" fill="#C66720"/>
<path fill-rule="evenodd" clip-rule="evenodd" d="M3.18818 8.06682C3.0846 8.09828 3.03625 8.23369 3.00863 8.32807C3.00759 8.33293 3.00836 8.33799 3.01081 8.34233C3.01325 8.34667 3.0172 8.34998 3.02193 8.35165C3.02665 8.35332 3.03183 8.35324 3.03649 8.35142C3.04116 8.3496 3.045 8.34616 3.0473 8.34174C3.06386 8.29395 3.08562 8.24809 3.11222 8.20497C3.13846 8.16393 3.17575 8.12974 3.20338 8.0887C3.2089 8.0805 3.20062 8.06682 3.18818 8.06682Z" fill="#C66720"/>
<path fill-rule="evenodd" clip-rule="evenodd" d="M3.41751 8.47714C3.36364 8.49629 3.33464 8.56331 3.30978 8.61392C3.28157 8.67275 3.26874 8.73765 3.27249 8.80267C3.27249 8.82456 3.30563 8.82866 3.30702 8.80267C3.31165 8.74828 3.32566 8.69508 3.34845 8.64538C3.37055 8.59203 3.42442 8.551 3.43961 8.49765C3.44066 8.49466 3.44082 8.49142 3.44005 8.48834C3.43928 8.48525 3.43763 8.48246 3.43529 8.48028C3.43295 8.47811 3.43003 8.47666 3.42687 8.4761C3.42372 8.47554 3.42046 8.4759 3.41751 8.47714Z" fill="#C66720"/>
<path fill-rule="evenodd" clip-rule="evenodd" d="M3.63985 8.62077C3.59557 8.6907 3.56206 8.76676 3.5404 8.84646C3.51083 8.92074 3.48863 8.9977 3.4741 9.07625C3.47301 9.08096 3.47384 9.08592 3.47643 9.09002C3.47902 9.09413 3.48315 9.09704 3.48792 9.09813C3.49268 9.09922 3.49768 9.09839 3.50183 9.09583C3.50597 9.09326 3.50892 9.08917 3.51002 9.08445C3.53057 9.00829 3.55689 8.93376 3.58874 8.8615C3.62773 8.78892 3.65566 8.71103 3.67161 8.63034C3.67225 8.62828 3.67247 8.62611 3.67225 8.62396C3.67204 8.62181 3.67141 8.61973 3.67038 8.61782C3.66935 8.61592 3.66796 8.61423 3.66627 8.61286C3.66459 8.61149 3.66265 8.61046 3.66056 8.60983C3.65848 8.6092 3.65629 8.60898 3.65412 8.60919C3.65195 8.6094 3.64984 8.61003 3.64792 8.61105C3.64599 8.61207 3.64429 8.61345 3.64291 8.61512C3.64152 8.61678 3.64048 8.6187 3.63985 8.62077Z" fill="#C66720"/>
<path fill-rule="evenodd" clip-rule="evenodd" d="M3.84291 8.84099C3.79476 8.94782 3.7748 9.06501 3.7849 9.18157C3.7849 9.20483 3.82081 9.20756 3.82081 9.18157C3.82081 9.06805 3.87192 8.95589 3.86501 8.84373C3.86425 8.84156 3.86289 8.83965 3.86109 8.83821C3.85929 8.83677 3.85712 8.83586 3.85482 8.83557C3.85252 8.83529 3.85019 8.83565 3.84809 8.8366C3.84598 8.83756 3.84419 8.83908 3.84291 8.84099Z" fill="#C66720"/>
<path fill-rule="evenodd" clip-rule="evenodd" d="M10.8248 10.8763C10.776 11.003 10.7576 11.1393 10.771 11.2743C10.771 11.2921 10.8028 11.2907 10.8041 11.2743C10.8041 11.2086 10.8138 11.1375 10.8221 11.0787C10.838 11.0138 10.8459 10.9472 10.8456 10.8804C10.8456 10.8667 10.829 10.8681 10.8248 10.8763Z" fill="#C66720"/>
<path fill-rule="evenodd" clip-rule="evenodd" d="M11.1853 11.1389C11.1853 11.0759 11.2157 11.0199 11.2213 10.9569C11.2205 10.9548 11.2191 10.953 11.2172 10.9518C11.2154 10.9505 11.2132 10.9498 11.2109 10.9498C11.2086 10.9498 11.2064 10.9505 11.2046 10.9518C11.2027 10.953 11.2013 10.9548 11.2005 10.9569C11.1604 11.021 11.137 11.0939 11.1324 11.1691C11.1278 11.2443 11.1422 11.3195 11.1743 11.3878C11.184 11.4083 11.2116 11.3878 11.2047 11.3741C11.18 11.2982 11.1734 11.2177 11.1853 11.1389Z" fill="#C66720"/>
<path fill-rule="evenodd" clip-rule="evenodd" d="M11.5169 11.1854C11.5211 11.1229 11.5156 11.0601 11.5003 10.9994C11.4988 10.9965 11.4965 10.9941 11.4937 10.9924C11.4909 10.9908 11.4877 10.9899 11.4844 10.9899C11.4811 10.9899 11.4779 10.9908 11.4751 10.9924C11.4723 10.9941 11.4701 10.9965 11.4685 10.9994C11.4568 11.0613 11.4568 11.1248 11.4685 11.1867C11.4725 11.2582 11.485 11.3289 11.5058 11.3974C11.5058 11.4206 11.5486 11.4152 11.5431 11.3974C11.5285 11.3275 11.5198 11.2566 11.5169 11.1854Z" fill="#C66720"/>
<path fill-rule="evenodd" clip-rule="evenodd" d="M23.9461 8.0668C23.9461 8.05176 23.9254 8.04355 23.9185 8.05586C23.9071 8.07364 23.901 8.09428 23.901 8.11536C23.901 8.13644 23.9071 8.15708 23.9185 8.17486C23.9406 8.21726 23.9945 8.28018 24.047 8.27334C24.0511 8.27236 24.0548 8.26982 24.0571 8.26625C24.0594 8.26268 24.0602 8.25835 24.0594 8.25419C24.0456 8.18033 23.9282 8.15024 23.9461 8.0668Z" fill="#C66720"/>
<path fill-rule="evenodd" clip-rule="evenodd" d="M24.4447 7.84661C24.4309 7.82472 24.4184 7.82199 24.3936 7.81378C24.3596 7.80324 24.3294 7.78331 24.3065 7.75633C24.2624 7.7047 24.2316 7.64321 24.2168 7.57715C24.2162 7.57446 24.2152 7.5719 24.2136 7.56961C24.2121 7.56733 24.2101 7.56537 24.2078 7.56385C24.2055 7.56232 24.2029 7.56126 24.2002 7.56073C24.1974 7.5602 24.1946 7.5602 24.1919 7.56074C24.1892 7.56128 24.1866 7.56234 24.1843 7.56387C24.182 7.5654 24.18 7.56736 24.1785 7.56965C24.1769 7.57194 24.1759 7.5745 24.1753 7.5772C24.1748 7.57989 24.1748 7.58267 24.1753 7.58536C24.1878 7.66084 24.2186 7.73219 24.2651 7.79326C24.2996 7.83567 24.3908 7.90542 24.446 7.86713C24.448 7.86399 24.4489 7.86032 24.4487 7.85665C24.4484 7.85297 24.447 7.84947 24.4447 7.84661Z" fill="#C66720"/>
<path fill-rule="evenodd" clip-rule="evenodd" d="M24.6794 7.38292C24.6366 7.34052 24.591 7.29812 24.551 7.25298C24.5344 7.23383 24.4999 7.25298 24.5123 7.27623C24.5436 7.33128 24.5816 7.38228 24.6255 7.42806C24.6628 7.46636 24.7043 7.52791 24.7637 7.53201C24.7666 7.53225 24.7695 7.53183 24.7722 7.53079C24.7749 7.52976 24.7774 7.52813 24.7794 7.52602C24.7814 7.52392 24.7828 7.5214 24.7837 7.51864C24.7846 7.51589 24.7848 7.51298 24.7844 7.51013C24.7761 7.45678 24.7208 7.42122 24.6794 7.38292Z" fill="#C66720"/>
<path opacity="0.4" fill-rule="evenodd" clip-rule="evenodd" d="M14.5858 2.62161C14.5858 2.99776 14.0043 3.30551 13.2847 3.30551C12.5651 3.30551 11.9836 3.00049 11.9836 2.62161C11.9836 2.24273 12.5651 1.93771 13.2847 1.93771C14.0043 1.93771 14.5858 2.24547 14.5858 2.62161Z" fill="#DA840D"/>
<path fill-rule="evenodd" clip-rule="evenodd" d="M21.7099 8.34033C18.7762 7.60309 17.5484 9.22119 17.5967 11.1252C17.616 11.8692 18.3011 12.8951 18.7514 13.6706C19.1508 14.2903 19.6166 14.8653 20.1408 15.3859C20.4723 15.6197 20.9143 15.8892 21.3577 15.8892C21.5276 15.8726 21.6901 15.8117 21.8286 15.7128C21.8936 15.7253 21.9563 15.747 22.0151 15.777C22.225 15.8482 22.3176 15.5582 22.5469 15.6608C22.9129 15.8263 23.2292 15.4898 23.5026 15.3065C23.591 15.2477 24.4695 13.8991 24.5648 13.8279C25.4694 12.6776 25.9252 12.3384 25.9349 10.9419C25.9459 9.19657 25.0606 7.63318 21.7099 8.34033Z" fill="#C73A54"/>
<g style="mix-blend-mode:multiply">
<path fill-rule="evenodd" clip-rule="evenodd" d="M22.8218 8.79721C22.8218 8.99691 22.3052 9.17199 21.6574 9.1884C21.0097 9.20482 20.4807 9.05162 20.4751 8.85603C20.4696 8.66043 20.9917 8.47715 21.6395 8.46484C22.2872 8.45253 22.8162 8.59752 22.8218 8.79721Z" fill="#ED6366"/>
</g>
<path fill-rule="evenodd" clip-rule="evenodd" d="M19.8619 9.44283C19.6036 9.05575 19.0746 9.16927 18.7473 9.39633L18.7307 9.40864C18.6547 9.45948 18.586 9.5202 18.5263 9.58919C18.2935 9.83384 18.1459 10.1459 18.105 10.4796C18.065 10.89 18.2045 11.3454 18.5622 11.5274C18.5723 11.5325 18.5805 11.5406 18.5857 11.5506C18.5994 11.5478 18.6128 11.5436 18.6257 11.5383C18.8274 11.4562 18.8177 11.128 18.8191 10.9611C18.8191 10.5904 19.1299 10.4263 19.4144 10.2676C19.6754 10.1185 20.0884 9.78341 19.8619 9.44283Z" fill="#ED6366"/>
<g style="mix-blend-mode:multiply">
<path fill-rule="evenodd" clip-rule="evenodd" d="M24.5357 12.6024C24.2926 12.2919 23.928 12.6708 23.754 12.8623C23.3493 13.3068 23.0965 13.8553 22.6187 14.241C22.1408 14.6268 21.2734 14.3464 20.9019 14.9072C20.8845 14.9342 20.8727 14.9643 20.8671 14.9959C20.8615 15.0274 20.8623 15.0597 20.8693 15.091C20.8764 15.1223 20.8896 15.1518 20.9082 15.178C20.9268 15.2042 20.9505 15.2265 20.9778 15.2436C21.0164 15.2586 21.0568 15.2687 21.098 15.2737C21.1839 15.3215 21.2773 15.3548 21.3742 15.3722C21.6772 15.4114 21.9849 15.3539 22.2526 15.2081C22.4957 15.0932 22.7706 15.2272 23.0123 15.1137C23.1016 15.0654 23.1786 14.9976 23.2374 14.9154C23.3149 14.8264 23.38 14.7275 23.4308 14.6213C23.5523 14.422 23.691 14.2335 23.8451 14.0578C24.0325 13.8471 24.202 13.6216 24.352 13.3834C24.5316 13.1277 24.6946 12.8076 24.5357 12.6024Z" fill="#ED6366"/>
</g>
<path fill-rule="evenodd" clip-rule="evenodd" d="M24.4585 5.74156C24.2955 5.68685 23.9958 5.93306 23.8687 6.00828C23.5787 6.18063 23.2845 6.35434 23.0055 6.54309C22.5817 6.83744 22.2305 7.2227 21.9779 7.67016C21.8726 7.8607 21.802 8.06813 21.7694 8.28293C21.7265 8.3957 21.7049 8.51533 21.7058 8.63582C21.7051 8.64427 21.706 8.65278 21.7086 8.66087C21.7112 8.66896 21.7153 8.67646 21.7209 8.68295C21.7264 8.68943 21.7331 8.69477 21.7407 8.69865C21.7484 8.70254 21.7567 8.70489 21.7652 8.70558C22.4724 8.71379 23.1961 8.25557 23.6906 7.79463C23.9497 7.56843 24.1549 7.28814 24.2914 6.97395C24.3594 6.79676 24.4103 6.61356 24.4433 6.42683C24.482 6.22713 24.424 5.98503 24.4889 5.80038C24.4924 5.78859 24.4912 5.7759 24.4856 5.76495C24.4799 5.754 24.4702 5.74562 24.4585 5.74156Z" fill="#8DB54F"/>
<path fill-rule="evenodd" clip-rule="evenodd" d="M21.5869 8.68094C21.5869 8.48534 21.6463 8.36361 21.7029 7.7481C21.7596 7.13259 21.7485 6.82484 21.7899 6.72362C21.8314 6.6224 22.1629 6.83715 22.1629 6.83715C22.1629 6.83715 22.0565 7.30904 21.9778 7.69612C21.8991 8.08321 21.8203 8.77942 21.8203 8.77942C21.8203 8.77942 21.7775 8.89295 21.6739 8.86422C21.5703 8.8355 21.5869 8.68094 21.5869 8.68094Z" fill="#300D33"/>
</svg>
