<svg width="61" height="78" viewBox="0 0 61 78" fill="none" xmlns="http://www.w3.org/2000/svg">
<g clip-path="url(#clip0_326_4036)">
<path d="M56.3 49.88H55.43V25.64C55.4221 19.073 52.8098 12.7773 48.1663 8.13373C43.5227 3.49018 37.227 0.877939 30.66 0.87H30.15C23.583 0.877939 17.2873 3.49018 12.6438 8.13373C8.0002 12.7773 5.38796 19.073 5.38002 25.64V49.14H4.52002V25.64C4.52531 18.8432 7.22699 12.3262 12.0321 7.51916C16.8372 2.71216 23.3532 0.00794431 30.15 0H30.66C37.4577 0.00793972 43.9748 2.71184 48.7815 7.51855C53.5882 12.3253 56.2921 18.8423 56.3 25.64V49.88Z" fill="#33290E"/>
<path d="M8.26002 50.8H1.65002V74.1H8.26002V50.8Z" fill="#FBCB43"/>
<path d="M8.26002 50.8H1.65002V52.21H8.26002V50.8Z" fill="#BA9732"/>
<path d="M8.26 47.49H1.64C0.734253 47.49 0 48.2242 0 49.13V49.16C0 50.0657 0.734253 50.8 1.64 50.8H8.26C9.16575 50.8 9.9 50.0657 9.9 49.16V49.13C9.9 48.2242 9.16575 47.49 8.26 47.49Z" fill="#FBCB43"/>
<path d="M3.82 56.16C3.52729 56.1546 3.24431 56.2651 3.03267 56.4674C2.82103 56.6697 2.69787 56.9474 2.69 57.24V73.36H5V57.24C4.99768 57.0903 4.9648 56.9426 4.90338 56.806C4.84196 56.6694 4.75329 56.5468 4.64281 56.4457C4.53233 56.3445 4.40236 56.2671 4.26088 56.2179C4.1194 56.1688 3.96937 56.1491 3.82 56.16Z" fill="#B08E2F"/>
<path d="M7.00002 77H2.91002C2.57585 77 2.25537 76.8672 2.01907 76.6309C1.78277 76.3946 1.65002 76.0741 1.65002 75.74V74.09H8.25002V75.77C8.24224 76.0972 8.10743 76.4085 7.87412 76.6381C7.64082 76.8677 7.32733 76.9975 7.00002 77Z" fill="#B08E2F"/>
<path d="M59.1701 50.8H52.5601V74.1H59.1701V50.8Z" fill="#FBCB43"/>
<path d="M59.1701 50.8H52.5601V52.21H59.1701V50.8Z" fill="#BA9732"/>
<path d="M59.18 47.49H52.56C51.6543 47.49 50.92 48.2242 50.92 49.13V49.16C50.92 50.0657 51.6543 50.8 52.56 50.8H59.18C60.0858 50.8 60.82 50.0657 60.82 49.16V49.13C60.82 48.2242 60.0858 47.49 59.18 47.49Z" fill="#FBCB43"/>
<path d="M57 56.16C56.8547 56.156 56.7101 56.1808 56.5744 56.2331C56.4388 56.2853 56.3149 56.3639 56.2098 56.4644C56.1047 56.5648 56.0206 56.685 55.9623 56.8182C55.9039 56.9513 55.8726 57.0947 55.87 57.24V73.36H58.15V57.24C58.1461 57.0933 58.1132 56.9489 58.0532 56.815C57.9932 56.6812 57.9072 56.5605 57.8003 56.4601C57.6933 56.3597 57.5675 56.2815 57.4302 56.2299C57.2928 56.1784 57.1466 56.1546 57 56.16Z" fill="#B08E2F"/>
<path d="M57.9101 77H53.8201C53.4867 76.9974 53.1677 76.8638 52.932 76.628C52.6963 76.3923 52.5627 76.0733 52.5601 75.74V74.09H59.1701V75.77C59.1622 76.0989 59.026 76.4117 58.7906 76.6416C58.5551 76.8714 58.2391 77.0001 57.9101 77Z" fill="#B08E2F"/>
<path d="M7.53999 53.39H8.24999V56.77H7.53999C7.09707 56.77 6.6723 56.5941 6.35912 56.2809C6.04593 55.9677 5.86999 55.5429 5.86999 55.1C5.86465 54.8774 5.90391 54.6559 5.98544 54.4486C6.06697 54.2414 6.18914 54.0525 6.34475 53.8932C6.50036 53.7339 6.68626 53.6073 6.89153 53.5209C7.09679 53.4344 7.31727 53.39 7.53999 53.39Z" fill="#B08E2F"/>
<path d="M7.54002 58.69H8.25002V62.07H7.54002C7.09711 62.07 6.67234 61.8941 6.35915 61.5809C6.04597 61.2677 5.87002 60.8429 5.87002 60.4C5.86605 60.1777 5.90623 59.9568 5.98825 59.7502C6.07028 59.5435 6.1925 59.3552 6.34784 59.1962C6.50318 59.0371 6.68854 58.9105 6.89319 58.8236C7.09784 58.7367 7.31769 58.6913 7.54002 58.69Z" fill="#B08E2F"/>
<path d="M7.53999 64H8.24999V67.38H7.53999C7.31984 67.38 7.10186 67.3365 6.89859 67.2519C6.69532 67.1674 6.51078 67.0435 6.35557 66.8873C6.20037 66.7312 6.07757 66.5459 5.99423 66.3422C5.9109 66.1384 5.86867 65.9201 5.86999 65.7C5.86735 65.4785 5.90853 65.2587 5.99115 65.0533C6.07377 64.8478 6.1962 64.6606 6.35141 64.5027C6.50661 64.3447 6.69153 64.2189 6.89551 64.1326C7.09949 64.0464 7.31852 64.0013 7.53999 64Z" fill="#B08E2F"/>
<path d="M7.54002 69.3H8.25002V72.68H7.54002C7.09619 72.6773 6.67144 72.4992 6.35854 72.1844C6.04564 71.8696 5.87001 71.4438 5.87002 71C5.86604 70.7782 5.90629 70.5578 5.98843 70.3517C6.07057 70.1456 6.19295 69.9579 6.34842 69.7997C6.50389 69.6414 6.68934 69.5157 6.89393 69.4299C7.09853 69.3441 7.31817 69.3 7.54002 69.3Z" fill="#B08E2F"/>
<path d="M53.2801 53.39H52.5601V56.77H53.2801C53.5035 56.7767 53.7261 56.7384 53.9345 56.6575C54.1429 56.5766 54.333 56.4546 54.4934 56.2989C54.6538 56.1431 54.7813 55.9568 54.8683 55.7508C54.9554 55.5449 55.0002 55.3236 55.0001 55.1C55.0056 54.8731 54.9648 54.6474 54.8802 54.4368C54.7956 54.2261 54.669 54.035 54.508 53.8749C54.347 53.7149 54.1551 53.5893 53.944 53.506C53.7328 53.4226 53.5069 53.3831 53.2801 53.39Z" fill="#B08E2F"/>
<path d="M53.2801 58.69H52.5601V62.07H53.2801C53.5035 62.0767 53.7261 62.0384 53.9345 61.9575C54.1429 61.8766 54.333 61.7546 54.4934 61.5989C54.6538 61.4432 54.7813 61.2568 54.8683 61.0508C54.9554 60.8449 55.0002 60.6236 55.0001 60.4C55.0042 60.1735 54.9624 59.9484 54.8773 59.7384C54.7922 59.5285 54.6655 59.3379 54.5048 59.1781C54.3441 59.0184 54.1528 58.8928 53.9423 58.8089C53.7318 58.725 53.5066 58.6846 53.2801 58.69Z" fill="#B08E2F"/>
<path d="M53.2801 64H52.5601V67.38H53.2801C53.5044 67.3867 53.7278 67.3482 53.9368 67.2666C54.1459 67.1851 54.3364 67.0622 54.497 66.9054C54.6575 66.7486 54.7848 66.561 54.8713 66.3539C54.9577 66.1468 55.0015 65.9244 55.0001 65.7C55.0028 65.4743 54.9601 65.2503 54.8743 65.0415C54.7886 64.8327 54.6617 64.6433 54.5012 64.4846C54.3406 64.326 54.1497 64.2013 53.9399 64.118C53.7301 64.0347 53.5057 63.9946 53.2801 64Z" fill="#B08E2F"/>
<path d="M53.2801 69.3H52.5601V72.68H53.2801C53.504 72.6853 53.7268 72.6458 53.9353 72.5638C54.1437 72.4818 54.3337 72.3589 54.4939 72.2023C54.6542 72.0458 54.7815 71.8588 54.8685 71.6523C54.9554 71.4458 55.0001 71.224 55.0001 71C55.0042 70.7739 54.9624 70.5493 54.8772 70.3399C54.792 70.1304 54.6651 69.9405 54.5043 69.7815C54.3435 69.6225 54.152 69.4979 53.9416 69.4151C53.7311 69.3324 53.5061 69.2932 53.2801 69.3Z" fill="#B08E2F"/>
</g>
<defs>
<clipPath id="clip0_326_4036">
<rect width="60.82" height="77.03" fill="white"/>
</clipPath>
</defs>
</svg>
