<svg width="75" height="106" viewBox="0 0 75 106" fill="none" xmlns="http://www.w3.org/2000/svg">
<path d="M35.8484 105.933C34.1703 105.936 32.4967 105.758 30.8565 105.402C27.9896 104.812 25.2891 103.59 22.9494 101.827C20.6098 100.063 18.6892 97.8011 17.3261 95.2035C16.2445 92.7737 15.441 90.2288 14.931 87.6174L14.8133 87.1201C13.1325 79.9387 11.0147 72.3442 7.10688 65.4831C6.47658 64.3789 5.78746 63.2747 5.12354 62.2127C3.51733 59.8079 2.15739 57.2466 1.06443 54.5676C-0.616368 49.9739 -0.305421 45.4054 1.98886 42.3963C2.29108 41.9288 2.68431 41.5273 3.14497 41.2159C3.60564 40.9045 4.12425 40.6896 4.66973 40.5841C5.00211 40.5438 5.3392 40.5724 5.66013 40.668C5.98105 40.7637 6.27896 40.9245 6.53541 41.1404C6.73545 41.3004 6.89951 41.501 7.01683 41.7291C7.13414 41.9571 7.20206 42.2075 7.21613 42.4637H6.66987C6.65672 42.285 6.60659 42.111 6.52266 41.9528C6.43874 41.7947 6.32287 41.6557 6.18244 41.545C5.98291 41.3788 5.7522 41.2544 5.50393 41.1791C5.25567 41.1038 4.99487 41.0792 4.73696 41.1067C3.79016 41.3231 2.96266 41.8965 2.42587 42.7082C0.249241 45.5824 -0.0953222 49.9402 1.58547 54.3569C2.66918 57.0167 4.02083 59.5586 5.61938 61.943C6.28329 63.0134 6.97241 64.1176 7.61112 65.2302C11.5274 72.1419 13.6704 79.7785 15.3512 87.0021L15.4688 87.4994C15.9681 90.0675 16.7576 92.5702 17.8219 94.959C19.1466 97.4834 21.0135 99.6812 23.2879 101.394C25.5624 103.107 28.1876 104.292 30.9741 104.863C36.6088 105.983 42.4548 105.188 47.5888 102.604C49.6444 101.685 51.5004 100.371 53.0514 98.7352C54.6291 96.8198 55.8452 94.6318 56.6399 92.2786C58.0433 88.5868 59.1611 84.6926 60.1695 80.9417C61.7243 75.3449 63.3294 69.5543 66.0523 64.3115C66.8927 62.7774 67.7331 61.2686 68.6239 59.8104C70.2919 57.1934 71.6994 54.4181 72.8259 51.5248C73.7924 48.777 73.8344 46.4675 72.9604 44.7817C72.6535 44.2195 72.2272 43.7318 71.7117 43.3531C71.1962 42.9744 70.6039 42.7139 69.977 42.5902C69.5393 42.4863 69.0835 42.4864 68.6458 42.5903C68.2081 42.6941 67.8006 42.899 67.4558 43.1886L67.0944 42.7756C67.4998 42.4276 67.9807 42.1794 68.4986 42.0506C69.0165 41.9219 69.5573 41.9161 70.0778 42.0338C70.7892 42.1811 71.4594 42.4841 72.0405 42.9213C72.6216 43.3584 73.0992 43.9188 73.4394 44.5625C74.389 46.4169 74.347 48.8276 73.3301 51.7271C72.1919 54.6569 70.7616 57.464 69.0609 60.1054C68.2205 61.5637 67.2961 63.064 66.5397 64.5812C63.8505 69.7734 62.2537 75.5388 60.7074 81.1019C59.6569 84.878 58.5728 88.7806 57.1525 92.4893C56.34 94.9076 55.0924 97.1559 53.4716 99.1229C51.8696 100.811 49.954 102.168 47.8325 103.118C44.0973 104.942 40.0025 105.904 35.8484 105.933Z" fill="url(#paint0_linear_326_4903)"/>
<path d="M42.0167 7.78688C42.4513 7.0951 42.7002 6.30245 42.7395 5.48578C42.7869 5.11901 42.7535 4.74626 42.6417 4.39382C42.5299 4.04138 42.3424 3.71783 42.0924 3.44598C41.8823 3.24369 41.6217 3.08354 41.4284 2.86439C41.2352 2.64524 41.1427 2.41766 40.983 2.20693C40.8099 1.98086 40.5872 1.79786 40.3321 1.67214C40.0771 1.54643 39.7965 1.48137 39.5123 1.48205C38.9325 1.48205 38.319 1.75177 37.8315 1.48205C37.529 1.33032 37.3273 1.02688 36.9911 0.858305C36.6748 0.696803 36.3118 0.652047 35.9659 0.731872C35.6636 0.837592 35.3445 0.886178 35.0246 0.875163C34.5708 0.807732 34.2599 0.403144 33.8565 0.175563C33.6491 0.0692302 33.4211 0.00967881 33.1883 0.00108448C32.9556 -0.00750984 32.7238 0.035061 32.5092 0.125812C32.2946 0.216563 32.1024 0.353297 31.9461 0.526426C31.7897 0.699556 31.6731 0.90489 31.6042 1.12803C31.5494 1.34088 31.5494 1.56421 31.6042 1.77706C31.6967 2.29122 32.0496 2.70424 32.0748 3.2184C32.1 3.73257 31.7891 4.1793 32.0748 4.63446C32.3606 5.08962 32.7808 5.10648 32.9825 5.53636C33.2514 6.11795 32.9825 6.87655 33.2262 7.50029C33.3522 7.89645 33.4195 8.46119 33.7892 8.71406C34.3019 9.06807 35.4196 8.77306 36.0331 8.71406L38.4114 8.52019C39.4619 8.41905 40.7561 8.52019 41.7058 7.9976C41.8204 7.9453 41.9256 7.87407 42.0167 7.78688Z" fill="#3B2645"/>
<path d="M33.9492 7.41588C33.8658 7.30095 33.7564 7.20743 33.6301 7.14295C33.5037 7.07847 33.364 7.04486 33.2222 7.04486C33.0805 7.04486 32.9408 7.07847 32.8144 7.14295C32.6881 7.20743 32.5787 7.30095 32.4953 7.41588C31.7642 8.25878 32.9995 9.94456 33.9492 10.0457C34.0045 9.16997 34.0045 8.29161 33.9492 7.41588Z" fill="#E0855C"/>
<path d="M45.7567 21.5347C45.5352 22.9545 45.2378 24.3613 44.8659 25.7491C44.8071 26.0104 44.7566 26.2633 44.723 26.5077C44.6894 26.7522 44.6558 26.9376 44.6138 27.2495C44.6138 27.3085 44.6138 27.3759 44.6138 27.4349C44.6138 27.6372 44.5549 27.8479 44.5297 28.0755L43.4708 37.9795C36.8905 39.7917 30.0245 37.9795 30.0245 37.9795C30.0245 37.9795 30.0245 37.8531 30.0245 37.6086C29.9152 36.4876 29.5791 32.9221 29.2429 28.9016C29.2429 28.9016 29.2429 28.8426 29.2429 28.8173C29.2463 28.7555 29.2463 28.6936 29.2429 28.6318C29.1001 26.946 28.9656 25.1591 28.8563 23.4565C28.6546 20.4979 28.5286 17.767 28.5538 16.0727C28.5538 15.449 30.0077 15.5164 30.9993 15.3816C31.7305 15.2804 32.4784 15.213 33.1256 15.1793C33.7727 15.1456 34.2601 15.1287 34.5878 15.1287H34.9576C34.9576 15.1287 35.0417 14.1594 35.0417 14.1509L35.2686 11.774C35.3789 11.8025 35.4913 11.8222 35.6047 11.833C35.8127 11.8721 36.0235 11.8946 36.235 11.9004C36.5123 11.9004 36.7729 11.9004 37.0166 11.9004L37.378 11.8583H37.5881C37.8234 11.8161 38.0503 11.7656 38.2604 11.7066C38.4705 11.6476 38.5377 11.6223 38.6722 11.5801C39.2861 11.3828 39.869 11.099 40.4034 10.7372L40.479 10.6867L40.6219 10.5771L40.7227 10.5012C40.7227 10.6192 40.7227 10.6698 40.7227 10.7204C40.6555 11.2767 40.5799 11.9847 40.5463 12.6843C40.5463 13.1732 40.4958 13.6536 40.479 14.0667C40.4622 14.4797 40.3278 15.0781 40.6219 15.2888C40.7268 15.348 40.8402 15.3906 40.958 15.4153C41.4193 15.4883 41.8863 15.5194 42.3531 15.508C42.496 15.508 42.6388 15.508 42.7817 15.508C43.14 15.4871 43.4991 15.4871 43.8574 15.508C44.1078 15.5073 44.3558 15.5569 44.5867 15.6539C44.8177 15.7509 45.0269 15.8933 45.202 16.0727C45.4199 16.389 45.5583 16.7533 45.6054 17.1348L45.7063 17.826C45.8663 19.0561 45.8832 20.3006 45.7567 21.5347Z" fill="#FFEDE5"/>
<path d="M40.6891 10.4419C40.5755 11.0451 40.3299 11.6156 39.9703 12.1123C39.6106 12.609 39.1456 13.0196 38.6088 13.3146C38.072 13.6095 37.4768 13.7816 36.8658 13.8183C36.2548 13.855 35.6433 13.7555 35.0753 13.5269L35.2349 11.7821C36.1866 11.9662 37.1668 11.9418 38.1082 11.7105C39.0496 11.4791 39.93 11.0464 40.6891 10.4419Z" fill="#E0855C"/>
<path d="M34.1174 4.88755C33.63 5.39329 33.5879 6.52276 33.5543 7.77024C33.4283 11.5633 34.5628 12.7433 36.4873 12.954C38.4118 13.1648 40.4372 12.4146 40.849 8.90815C41.0591 7.1465 41.2776 5.53658 40.6389 4.76955C39.7228 3.64007 35.5965 3.33663 34.1174 4.88755Z" fill="#FFEDE5"/>
<path d="M40.5633 8.39412C40.5633 8.39412 41.1516 6.82634 42.0844 7.6608C43.0173 8.49526 41.7315 10.8638 40.3028 10.6868C40.3196 10.6868 40.1263 8.93357 40.5633 8.39412Z" fill="#FFEDE5"/>
<path d="M41.6725 8.37699C41.4519 8.44611 41.2543 8.57435 41.101 8.74786C40.9274 8.89327 40.787 9.07435 40.6892 9.27888C40.6892 9.33788 40.748 9.38003 40.7901 9.33788C40.9085 9.22025 41.0207 9.09646 41.1262 8.96701C41.2029 9.05179 41.2977 9.11807 41.4035 9.16088C41.4876 9.16088 41.5548 9.08502 41.5212 9.01758C41.463 8.92832 41.3854 8.85341 41.2943 8.79843C41.4512 8.69767 41.6001 8.58496 41.7397 8.46128C41.7423 8.45113 41.7425 8.44052 41.7404 8.43028C41.7382 8.42003 41.7336 8.41044 41.7271 8.40226C41.7206 8.39408 41.7123 8.38754 41.7028 8.38315C41.6933 8.37876 41.6829 8.37665 41.6725 8.37699Z" fill="#E0855C"/>
<path d="M35.2097 7.6857C35.2097 7.6857 34.882 7.80371 34.9324 7.22211C34.9828 6.64052 35.2097 6.77538 35.2097 6.77538C35.2097 6.77538 35.4366 6.77538 35.403 7.23054C35.3694 7.6857 35.2097 7.6857 35.2097 7.6857Z" fill="#3B2645"/>
<path d="M38.5125 7.6857C38.5125 7.6857 38.1932 7.80371 38.2436 7.22211C38.294 6.64052 38.5125 6.77538 38.5125 6.77538C38.5125 6.77538 38.7395 6.77538 38.7058 7.23054C38.6722 7.6857 38.5125 7.6857 38.5125 7.6857Z" fill="#3B2645"/>
<path d="M35.5628 5.92411C35.4307 5.84912 35.2785 5.81772 35.1276 5.83436C34.9768 5.85101 34.835 5.91485 34.7224 6.01683C34.7167 6.02836 34.714 6.04115 34.7146 6.054C34.7151 6.06686 34.719 6.07935 34.7257 6.09031C34.7324 6.10127 34.7418 6.11033 34.753 6.11665C34.7642 6.12296 34.7768 6.12632 34.7896 6.12641C34.9072 6.12641 35.0081 6.05898 35.1257 6.05055C35.249 6.04466 35.3721 6.06476 35.4871 6.10955C35.5964 6.14327 35.672 5.97469 35.5628 5.92411Z" fill="#3B2645"/>
<path d="M39.0083 6.21095C38.8739 5.87379 38.294 5.8485 38.0419 6.0508C38.0296 6.06025 38.0198 6.07238 38.013 6.08626C38.0062 6.10014 38.0026 6.1154 38.0026 6.13087C38.0026 6.14634 38.0062 6.1616 38.013 6.17548C38.0198 6.18936 38.0296 6.2015 38.0419 6.21095C38.1929 6.22357 38.3447 6.22357 38.4957 6.21095C38.6179 6.23069 38.7367 6.26757 38.8486 6.32052C38.8631 6.34176 38.8854 6.35635 38.9107 6.3611C38.9359 6.36584 38.9619 6.36034 38.9831 6.34581C39.0043 6.33128 39.0188 6.30891 39.0236 6.28361C39.0283 6.25832 39.0228 6.23218 39.0083 6.21095Z" fill="#3B2645"/>
<path d="M35.8737 10.3999C36.5826 10.4931 37.3031 10.3697 37.941 10.0458C37.8456 10.2708 37.7044 10.4732 37.5264 10.6401C37.3483 10.807 37.1375 10.9348 36.9073 11.0152C36.1762 11.2175 35.8737 10.3999 35.8737 10.3999Z" fill="white"/>
<path d="M31.6295 16.0642C33.5624 17.4212 33.7389 20.0595 32.7976 22.1667C32.1589 23.5743 30.974 24.5605 30.2765 25.8923C29.5496 27.1839 28.7056 28.4057 27.7553 29.542C25.6711 32.1971 23.6877 34.5994 22.923 35.5097C20.2925 38.6621 14.7627 42.826 12.771 44.2758C12.3172 44.6129 12.0483 44.7983 12.0483 44.7983C12.0483 44.7983 10.1406 43.7953 10.6448 41.9409C10.6448 41.9409 18.2084 33.8829 19.3261 32.2393C20.5613 30.1029 21.6834 27.9027 22.6877 25.6478C23.9763 23.1473 25.3181 20.6804 26.7132 18.2473C27.3519 17.1262 28.1671 15.7186 29.5705 15.4657C30.1369 15.4019 30.7087 15.5231 31.2009 15.8113C31.3496 15.8852 31.4928 15.9697 31.6295 16.0642Z" fill="#FFEDE5"/>
<path d="M10.645 41.9495C10.852 41.9336 11.0599 41.9336 11.2669 41.9495C11.2669 41.9495 13.0822 42.961 12.7712 44.2759C12.7712 44.2759 12.5779 44.4529 12.2754 44.7226C11.9729 44.9924 11.6451 45.3127 11.2501 45.7173C10.8551 46.1218 9.9559 47.403 9.56932 47.2935C9.47922 47.2601 9.40049 47.2016 9.34241 47.1249L8.56084 46.282C8.12383 45.7931 7.39269 44.9671 7.94735 44.3181C7.54396 44.5625 6.60271 45.1609 6.1405 44.8744L5.9472 44.5625C5.9472 44.5625 7.33386 43.5257 7.90533 43.0116C8.67626 42.3633 9.63979 41.9898 10.645 41.9495Z" fill="#FFEDE5"/>
<path d="M33.924 28.9774C33.9211 29.0223 33.9211 29.0674 33.924 29.1124C33.924 29.1124 33.9997 29.1124 33.9829 29.1124L33.924 28.9774Z" fill="#D6BED3"/>
<path d="M37.0417 56.2955C36.2686 62.5076 35.361 67.9106 35.361 67.9106C35.487 69.4109 35.5458 71.0377 35.5458 72.7066C35.5458 75.977 35.3273 79.4498 35.05 82.5095C34.697 86.412 34.2096 89.733 33.9995 91.402V91.6127C34.3105 102.68 31.1674 104.146 29.6967 101.727C28.226 99.3083 29.6967 92.1774 29.6967 92.1774C29.7014 92.1129 29.7014 92.0481 29.6967 91.9836C29.0779 88.6719 28.6653 85.3247 28.4613 81.9616C27.9571 73.8192 28.8227 68.2477 28.7218 67.2363C26.9654 49.5355 29.4193 39.7748 29.4193 39.7748C29.8025 38.3565 30.4942 37.041 31.4447 35.9228C33.2347 33.9842 35.3862 34.4731 36.7392 36.8416C36.8815 37.0845 37.0105 37.3349 37.1258 37.5918C37.6771 38.9522 37.9899 40.398 38.0502 41.8652C38.1847 45.5318 37.672 51.1876 37.0417 56.2955Z" fill="#FFEDE5"/>
<path d="M45.7232 81.5316C45.5277 84.9649 45.1179 88.3825 44.4962 91.7643L44.4206 92.1774C44.4206 92.1774 45.8912 99.3335 44.4206 101.727C42.9499 104.121 39.8404 102.722 40.1177 91.7643C40.1177 91.7138 40.1177 91.6632 40.1177 91.6211C39.8824 90.0364 39.4118 86.6058 39.042 82.5431C38.7563 79.4581 38.5378 76.0023 38.5378 72.7318C38.5378 71.0461 38.605 69.4277 38.7311 67.9189C38.7311 67.9189 37.7982 62.516 37.0503 56.3123C36.42 51.1959 35.8989 45.5401 36.1174 41.9073C36.1803 40.4395 36.4959 38.9937 37.0503 37.6338C37.1604 37.369 37.2896 37.1127 37.4369 36.8668C38.9916 34.1611 41.58 33.9251 43.4877 36.9764C44.0342 37.8608 44.4636 38.8129 44.7651 39.8085C44.7651 39.8085 47.2191 49.5439 45.4626 67.2699C45.3366 68.2645 46.1686 73.6422 45.7232 81.5316Z" fill="#FFEDE5"/>
<path d="M10.4432 47.4199C10.6106 47.6143 10.8186 47.7694 11.0524 47.8743C11.2862 47.9791 11.5401 48.0312 11.7962 48.0268C11.9135 47.9994 12.0241 47.9484 12.1212 47.877C12.2183 47.8055 12.3 47.7151 12.3613 47.6111C12.4225 47.5071 12.4621 47.3917 12.4777 47.2719C12.4933 47.1521 12.4844 47.0304 12.4517 46.9141C12.354 46.6577 12.1954 46.4292 11.9895 46.2483C10.7205 44.9839 9.41791 43.7196 8.09849 42.548C7.878 42.2987 7.58332 42.1273 7.25809 42.0591C6.95563 42.0589 6.66292 42.1665 6.43208 42.3625C6.20124 42.5585 6.04725 42.8303 5.9975 43.1296C5.9975 43.669 6.45972 43.8713 6.83789 44.1747C8.03126 45.2368 9.22462 46.3494 10.4432 47.4199Z" fill="#3B2645"/>
<path d="M10.2582 45.9276C10.3105 45.8735 10.3531 45.8108 10.3843 45.7422C10.4056 45.6551 10.4068 45.5643 10.3879 45.4767C10.3689 45.389 10.3303 45.3069 10.275 45.2365C9.96406 44.7223 9.32536 43.8963 8.69507 43.8204C8.48697 43.8098 8.27973 43.854 8.09395 43.9486C7.90818 44.0433 7.75035 44.185 7.63617 44.3598C7.44757 44.632 7.32763 44.946 7.28664 45.2748C7.24566 45.6037 7.28485 45.9376 7.40085 46.2479C7.58531 46.8062 7.96424 47.279 8.46816 47.5797C8.71962 47.6866 9.00252 47.6919 9.25779 47.5945C9.51305 47.4971 9.72093 47.3046 9.838 47.0571C9.96406 46.7452 9.92204 46.3659 10.1237 46.1046C10.162 46.0409 10.2071 45.9815 10.2582 45.9276Z" fill="#FFEDE5"/>
<path d="M42.4204 16.0643C40.4791 17.4214 40.3026 20.0596 41.2523 22.1669C41.8826 23.5745 43.0675 24.5607 43.7735 25.8924C44.5063 27.1804 45.3499 28.4016 46.2947 29.5422C48.3788 32.1973 50.3706 34.5995 51.1269 35.5098C53.7658 38.6791 59.2956 42.8261 61.2873 44.2759L62.0185 44.7985C62.0185 44.7985 63.9178 43.7955 63.4136 41.9411C63.4136 41.9411 55.85 33.8831 54.7323 32.2394C53.4937 30.1049 52.3715 27.9045 51.3707 25.648C50.0764 23.1193 48.7402 20.6834 47.3368 18.2474C46.6981 17.1264 45.8913 15.7187 44.4794 15.4659C43.9131 15.4026 43.3414 15.5238 42.849 15.8115C42.7001 15.885 42.5569 15.9695 42.4204 16.0643Z" fill="#FFEDE5"/>
<path d="M63.4052 41.9494C63.1954 41.9336 62.9847 41.9336 62.7749 41.9494C62.7749 41.9494 60.9596 42.9609 61.2706 44.2758C61.2706 44.2758 61.4723 44.4528 61.7664 44.7225C62.0605 44.9923 62.4051 45.3126 62.7917 45.7172C63.1783 46.1217 64.0943 47.4029 64.4725 47.2934C64.5613 47.2578 64.6395 47.1997 64.6994 47.1248L65.4726 46.2819C65.918 45.793 66.6407 44.967 66.0944 44.318C66.4894 44.5624 67.4307 45.1609 67.9013 44.8743L68.061 44.5624C68.061 44.5624 66.6743 43.5256 66.0944 43.0115C65.3383 42.3713 64.3934 41.9982 63.4052 41.9494Z" fill="#FFEDE5"/>
<path d="M63.5985 47.4198C63.4311 47.6142 63.2231 47.7693 62.9893 47.8742C62.7555 47.9791 62.5015 48.0311 62.2455 48.0267C62.1266 48.0012 62.0143 47.9517 61.9153 47.881C61.8162 47.8104 61.7327 47.7202 61.6697 47.616C61.6067 47.5118 61.5657 47.3958 61.5491 47.275C61.5325 47.1543 61.5407 47.0315 61.5731 46.9141C61.6779 46.669 61.8392 46.4523 62.0438 46.2819C63.3156 45.0176 64.6154 43.7841 65.9432 42.5816C66.1625 42.3309 66.4577 42.1592 66.7836 42.0927C67.0851 42.0929 67.3767 42.2007 67.6061 42.3968C67.8355 42.593 67.9879 42.8647 68.0358 43.1632C68.0358 43.7026 67.582 43.9049 67.1954 44.2084C66.0104 45.2367 64.8171 46.3493 63.5985 47.4198Z" fill="#3B2645"/>
<path d="M63.7917 45.9276C63.7344 45.876 63.6885 45.8128 63.6573 45.7422C63.6395 45.6544 63.6408 45.5637 63.6611 45.4765C63.6814 45.3892 63.7202 45.3073 63.7749 45.2365C64.0774 44.7223 64.7161 43.8963 65.3464 43.8204C65.5545 43.8098 65.7618 43.854 65.9476 43.9486C66.1333 44.0433 66.2912 44.185 66.4053 44.3598C66.5918 44.6333 66.7085 44.9484 66.7451 45.2776C66.7818 45.6068 66.7372 45.94 66.6154 46.2479C66.4366 46.8092 66.0562 47.2838 65.5481 47.5797C65.2967 47.6866 65.0138 47.6919 64.7585 47.5945C64.5032 47.4971 64.2954 47.3046 64.1783 47.0571C64.0606 46.7452 64.1027 46.3659 63.8926 46.1046L63.7917 45.9276Z" fill="#FFEDE5"/>
<path d="M45.8492 76.1285V76.9714C45.8492 77.5361 45.8492 78.1177 45.8492 78.7162V79.3989C45.8492 80.0901 45.7988 80.8065 45.7652 81.5399C43.5892 82.1419 41.3488 82.4787 39.0925 82.5429C39 81.5989 38.8151 79.087 38.8067 78.8089C38.8067 78.2357 38.6807 76.6174 38.6723 76.3982C38.6218 75.1676 38.5882 73.937 38.5882 72.7316C38.5882 71.1638 38.647 69.6298 38.7647 68.2053C38.7647 68.1042 38.7647 68.0114 38.7647 67.9187C38.7647 67.826 37.8319 62.5242 37.0839 56.3121C36.9999 56.9696 36.9158 57.627 36.8318 58.2592C36.1259 63.6031 35.3779 67.9187 35.3779 67.9187C35.504 69.4191 35.5628 71.0458 35.5628 72.7148C35.5628 73.9875 35.5628 75.2435 35.4703 76.5752C35.4703 76.7944 35.3023 79.6096 35.277 79.8794C35.2182 80.7812 35.1426 81.6663 35.067 82.5176C33.8904 82.467 32.7306 82.3912 31.5793 82.29C30.6717 82.2142 29.5287 82.1636 28.4194 82.0034C28.369 81.2448 28.3354 80.5199 28.3102 79.8119C28.3102 79.6349 28.3102 79.4579 28.3102 79.2809C28.3102 78.5054 28.3102 77.7721 28.3102 77.0641V76.5078C28.3102 71.3999 28.806 68.0367 28.7304 67.236C26.9739 49.5352 29.4279 39.7746 29.4279 39.7746C29.811 38.3563 30.5027 37.0407 31.4532 35.9225C32.1736 36.0344 32.8805 36.2209 33.5626 36.4789C34.6017 36.7512 35.6743 36.8732 36.7477 36.8413H37.5209C38.4538 36.8413 39.3866 36.7317 40.311 36.7064H40.9329C41.8191 36.6932 42.7041 36.778 43.5718 36.9593C44.0904 37.8534 44.4915 38.811 44.7651 39.8083C45.444 42.9897 45.8433 46.2248 45.9585 49.4762C46.2432 55.4114 46.0774 61.3597 45.4627 67.2697C45.3618 68.0199 45.8072 71.2313 45.8492 76.1285Z" fill="#3B2645"/>
<path d="M33.9491 91.6125C34.0668 95.9703 33.655 98.8361 33.0163 100.564C32.0414 103.236 30.4951 103.202 29.6547 101.761C29.4277 101.361 29.2714 100.925 29.1925 100.471C28.579 97.4622 29.6547 92.211 29.6547 92.211C29.6594 92.1464 29.6594 92.0816 29.6547 92.0171C30.0729 92.323 30.5469 92.5435 31.0498 92.6661C31.6141 92.8051 32.2081 92.7571 32.7429 92.5291C33.2777 92.3012 33.7244 91.9057 34.0164 91.4018L33.9491 91.6125Z" fill="url(#paint1_linear_326_4903)"/>
<path d="M44.9247 100.235C44.853 100.771 44.6819 101.288 44.4205 101.761C43.5128 103.244 41.9497 103.236 40.9832 100.362C40.395 98.676 40.0168 95.8692 40.1428 91.7559C40.7721 92.3231 41.5829 92.6459 42.4287 92.6662C43.1833 92.5965 43.9 92.3031 44.4877 91.8233C44.5032 91.9549 44.5032 92.0879 44.4877 92.2195C44.4877 92.2195 45.4457 97.1925 44.9247 100.235Z" fill="url(#paint2_linear_326_4903)"/>
<path d="M32.68 94.2003C32.2544 93.9457 31.768 93.8112 31.2724 93.8112C30.7768 93.8112 30.2904 93.9457 29.8647 94.2003C29.8489 94.2178 29.8384 94.2395 29.8342 94.2627C29.8301 94.286 29.8325 94.31 29.8413 94.3319C29.85 94.3538 29.8647 94.3729 29.8837 94.3869C29.9027 94.4008 29.9253 94.4092 29.9487 94.411C30.3689 94.411 30.7891 94.234 31.1841 94.2424C31.6465 94.2818 32.103 94.3723 32.5456 94.5122C32.5834 94.5169 32.6218 94.5092 32.6549 94.4902C32.6881 94.4711 32.7142 94.4419 32.7293 94.4068C32.7445 94.3716 32.7478 94.3325 32.739 94.2953C32.7301 94.2581 32.7094 94.2247 32.68 94.2003Z" fill="#291B30"/>
<path d="M32.5455 95.5488C31.8279 95.1293 30.9857 94.9771 30.1672 95.1189C29.8899 95.1189 29.8815 95.5825 30.1672 95.5572C30.5626 95.5191 30.9614 95.5361 31.3522 95.6078C31.7135 95.6752 32.0413 95.8269 32.4027 95.9028C32.4471 95.9123 32.4936 95.9059 32.5337 95.8845C32.5739 95.8631 32.6053 95.8282 32.6224 95.786C32.6394 95.7437 32.6411 95.6967 32.627 95.6533C32.613 95.6099 32.5841 95.5729 32.5455 95.5488Z" fill="#291B30"/>
<path d="M43.6724 94.2004C43.0337 93.9812 41.647 93.8969 41.1512 94.487C41.084 94.5628 41.1512 94.723 41.2437 94.7146C41.6386 94.664 41.9832 94.5038 42.395 94.487C42.8068 94.4701 43.2354 94.5797 43.622 94.5544C43.6451 94.5577 43.6688 94.5564 43.6914 94.5506C43.7141 94.5448 43.7354 94.5345 43.7542 94.5204C43.7729 94.5063 43.7887 94.4887 43.8006 94.4685C43.8125 94.4483 43.8204 94.4259 43.8237 94.4027C43.827 94.3794 43.8257 94.3558 43.8199 94.333C43.8141 94.3103 43.8039 94.2889 43.7898 94.2701C43.7758 94.2513 43.7582 94.2355 43.738 94.2235C43.7179 94.2116 43.6956 94.2037 43.6724 94.2004Z" fill="#291B30"/>
<path d="M43.9836 95.6246C43.2861 95.3128 41.5465 95.0852 41.1935 96.0292C41.1431 96.1556 41.3028 96.2568 41.4036 96.1978C41.7667 95.9947 42.1714 95.8778 42.5865 95.8558C43.0017 95.8339 43.4164 95.9076 43.7987 96.0714C44.0509 96.1725 44.2441 95.7342 43.9836 95.6246Z" fill="#291B30"/>
<path d="M12.166 15.0611C12.166 15.0105 12.0652 15.0105 12.0568 15.0611C11.6366 17.9353 11.8803 20.9613 11.8803 23.903C11.8803 27.0133 11.7794 30.1488 11.9643 33.2507C11.9723 33.2838 11.9911 33.3133 12.0178 33.3343C12.0445 33.3554 12.0774 33.3669 12.1114 33.3669C12.1454 33.3669 12.1783 33.3554 12.205 33.3343C12.2317 33.3133 12.2505 33.2838 12.2585 33.2507C12.4349 30.1488 12.3341 27.0133 12.3341 23.903C12.3341 21.0287 12.5778 17.9606 12.166 15.0611Z" fill="#F7F8F8"/>
<path d="M15.8387 16.0389C15.8297 15.9975 15.8069 15.9604 15.774 15.9338C15.7412 15.9073 15.7002 15.8928 15.658 15.8928C15.6158 15.8928 15.5748 15.9073 15.5419 15.9338C15.5091 15.9604 15.4863 15.9975 15.4773 16.0389C15.4773 18.8036 15.3008 21.6188 15.4773 24.3751C15.4773 24.422 15.4959 24.4671 15.529 24.5003C15.5621 24.5335 15.607 24.5521 15.6538 24.5521C15.7006 24.5521 15.7455 24.5335 15.7786 24.5003C15.8117 24.4671 15.8303 24.422 15.8303 24.3751C16.0236 21.6188 15.8555 18.8036 15.8387 16.0389Z" fill="#F7F8F8"/>
<path d="M53.4126 44.9837C53.4058 44.9588 53.391 44.9368 53.3705 44.9211C53.35 44.9055 53.3249 44.897 53.2991 44.897C53.2734 44.897 53.2483 44.9055 53.2278 44.9211C53.2073 44.9368 53.1925 44.9588 53.1857 44.9837C52.9489 48.6032 52.9012 52.2326 53.0428 55.857C53.0428 59.4815 53.0428 63.0975 53.1773 66.7219C53.1844 66.7489 53.2002 66.7727 53.2223 66.7897C53.2443 66.8067 53.2713 66.816 53.2991 66.816C53.3269 66.816 53.354 66.8067 53.376 66.7897C53.3981 66.7727 53.4139 66.7489 53.421 66.7219C53.5387 63.0975 53.5386 59.4815 53.5555 55.857C53.6928 52.2325 53.6451 48.6033 53.4126 44.9837Z" fill="#F7F8F8"/>
<path d="M59.8924 23.7851C59.8661 21.3733 59.709 18.9646 59.4217 16.5699C59.4217 16.4266 59.1948 16.4688 59.1864 16.5699C59.1216 19.1598 59.1973 21.7513 59.4133 24.333C59.5226 26.7352 59.4974 29.1965 59.8167 31.5734C59.8167 31.7926 60.1865 31.7251 60.1949 31.5228C60.3126 28.952 60.0436 26.3306 59.8924 23.7851Z" fill="#F7F8F8"/>
<path d="M61.573 25.1252C61.5671 25.1063 61.5554 25.0898 61.5395 25.0781C61.5236 25.0664 61.5044 25.0601 61.4847 25.0601C61.465 25.0601 61.4458 25.0664 61.43 25.0781C61.4141 25.0898 61.4023 25.1063 61.3965 25.1252C61.1738 28.5882 61.157 32.0615 61.3461 35.5265C61.3408 35.5476 61.3405 35.5696 61.345 35.5909C61.3495 35.6122 61.3588 35.6321 61.3722 35.6493C61.3856 35.6664 61.4026 35.6803 61.4221 35.6898C61.4416 35.6993 61.463 35.7043 61.4847 35.7043C61.5064 35.7043 61.5278 35.6993 61.5473 35.6898C61.5668 35.6803 61.5839 35.6664 61.5972 35.6493C61.6106 35.6321 61.6199 35.6122 61.6244 35.5909C61.629 35.5696 61.6286 35.5476 61.6234 35.5265C61.8125 32.0615 61.7956 28.5882 61.573 25.1252Z" fill="#F7F8F8"/>
<path d="M36.7897 58.251C36.8025 57.5946 36.8871 56.9417 37.0419 56.3039C36.9578 56.9613 36.8738 57.6188 36.7897 58.251Z" fill="#291B30"/>
<path d="M45.9333 49.4765C44.7987 42.6407 35.4283 42.3204 35.4283 42.3204C34.8485 39.5051 38.6302 38.6622 38.6302 38.6622L40.8405 36.7488C41.7267 36.7356 42.6116 36.8204 43.4793 37.0017C44.0268 37.8778 44.4589 38.8213 44.7651 39.8085C45.4302 42.9916 45.821 46.2262 45.9333 49.4765Z" fill="#291B30"/>
<path d="M44.8993 40.5417C37.3358 44.1072 29.1167 40.8368 29.1167 40.8368C29.7134 39.151 29.268 30.5535 29.2259 28.9183C29.2259 28.9183 29.2259 28.8593 29.2259 28.834C29.2293 28.7722 29.2293 28.7103 29.2259 28.6485C30.8143 24.9567 30.9908 17.8427 30.9992 15.3983C31.7135 15.2887 32.4615 15.2297 33.1086 15.196C33.3607 17.927 34.2599 24.9314 36.7643 24.6279C39.2687 24.3245 40.4621 18.0871 40.8991 15.3561C41.3598 15.4337 41.8272 15.4647 42.2941 15.4489C42.437 15.4489 42.5799 15.4489 42.7227 15.4489C42.5042 19.1829 44.5716 27.0302 44.6304 27.2493C44.6304 27.3083 44.6304 27.3758 44.6304 27.4348C44.6304 27.6371 44.5716 27.8478 44.5464 28.0754C44.5464 28.0754 44.5464 28.1681 44.5464 28.2187C44.0169 32.9726 44.8993 40.5417 44.8993 40.5417Z" fill="url(#paint3_linear_326_4903)"/>
<defs>
<linearGradient id="paint0_linear_326_4903" x1="74.1233" y1="105.934" x2="-24.4999" y2="97.2797" gradientUnits="userSpaceOnUse">
<stop stop-color="#C150F6"/>
<stop offset="1" stop-color="#EEA4CE"/>
</linearGradient>
<linearGradient id="paint1_linear_326_4903" x1="34.0164" y1="102.736" x2="27.303" y2="102.507" gradientUnits="userSpaceOnUse">
<stop stop-color="#C150F6"/>
<stop offset="1" stop-color="#EEA4CE"/>
</linearGradient>
<linearGradient id="paint2_linear_326_4903" x1="45.0799" y1="102.739" x2="38.436" y2="102.507" gradientUnits="userSpaceOnUse">
<stop stop-color="#C150F6"/>
<stop offset="1" stop-color="#EEA4CE"/>
</linearGradient>
<linearGradient id="paint3_linear_326_4903" x1="44.8993" y1="42.2067" x2="23.7816" y2="41.2518" gradientUnits="userSpaceOnUse">
<stop stop-color="#C150F6"/>
<stop offset="1" stop-color="#EEA4CE"/>
</linearGradient>
</defs>
</svg>
