<svg width="121" height="82" viewBox="0 0 121 82" fill="none" xmlns="http://www.w3.org/2000/svg">
<g clip-path="url(#clip0_326_5612)">
<path d="M48.2296 31.5407C48.2296 31.5407 50.6937 11.6516 50.1374 4.38795C49.8521 0.662284 48.037 -0.180594 45.2627 0.0318962C42.4884 0.244386 26.6235 8.62005 26.6235 8.62005L28.8843 14.0385L42.0783 9.91624C42.0783 9.91624 40.734 17.6544 40.4237 19.1241C40.1135 20.5939 39.4645 22.5736 38.9474 24.3479C38.6942 25.2226 38.3412 26.3559 38.3412 26.9048C38.3483 28.201 48.2296 31.5407 48.2296 31.5407Z" fill="#FFEDE5"/>
<path d="M42.0782 9.91623C43.9183 9.56208 45.7547 8.48192 46.3324 7.62134C46.0357 8.58903 45.3808 9.40907 44.4995 9.91623C43.6608 10.4534 42.7724 10.9099 41.8464 11.2797L42.0782 9.91623Z" fill="#F28F8F"/>
<path d="M73.2056 31.1865C72.931 30.1736 71.1409 29.1077 65.8062 28.2187C60.4715 27.3298 55.6183 28.2187 55.5897 28.8456C55.5612 29.4724 56.9056 33.662 63.0568 34.427C69.2081 35.192 73.769 33.4106 73.2056 31.1865Z" fill="#263238"/>
<path d="M57.1587 39.7959C57.1587 39.7959 53.6819 17.3994 54.1811 12.8273C54.6982 8.10296 56.5026 5.91077 59.5301 5.60266C63.4847 7.88339 65.5922 13.3338 68.1204 18.7062C70.6487 24.0787 73.3874 35.6027 73.5336 41.1098C73.6798 46.6168 69.2936 50.5408 64.3263 51.2562C59.3589 51.9716 57.1587 39.7959 57.1587 39.7959Z" fill="#FFEDE5"/>
<path d="M62.6217 22.262C61.0173 20.9811 59.9332 19.1673 59.5693 17.1551L64.5438 15.434L67.8994 18.207L67.9992 18.423C68.042 18.5151 68.0848 18.6071 68.1311 18.6992C68.2274 18.9046 68.3237 19.1207 68.42 19.3402C68.4449 19.404 68.4735 19.4677 68.502 19.535C68.5769 19.705 68.6482 19.8892 68.7231 20.0662L68.798 20.2504C68.8978 20.4948 68.9941 20.7462 69.0939 21.0047C69.1902 21.2633 69.2865 21.5289 69.3828 21.798C69.4042 21.8582 69.4256 21.9149 69.4434 21.9716L69.7002 22.7153C69.7002 22.7507 69.7251 22.7897 69.7394 22.8251C69.9391 23.4271 70.1388 24.0504 70.3313 24.6879L70.3634 24.7906C70.4597 25.1058 70.5524 25.4245 70.6451 25.7468C70.6451 25.7468 66.0237 25.0881 62.6217 22.262Z" fill="#F28F8F"/>
<path d="M58.4817 5.79401C60.3717 5.05383 62.6717 6.78563 63.8877 7.56476C66.3589 9.13719 81.4679 20.8312 84.991 23.5724C85.7541 24.0328 86.5315 24.4754 87.3232 24.8933L83.1724 31.3389C82.8315 30.4126 82.2982 29.5679 81.6069 28.8598C77.8413 26.1895 70.5525 24.734 65.8597 22.9207C62.2082 21.5041 61.445 20.7108 60.2148 18.639C59.2734 16.9993 55.875 7.01937 58.4817 5.79401Z" fill="#FFEDE5"/>
<path d="M57.0839 39.9199L55.5897 28.8456C55.5897 28.8456 56.9305 31.8984 63.8342 32.7023C70.7379 33.5062 73.3803 32.3481 73.2055 31.1865C73.2055 31.1865 75.0099 38.1208 74.311 42.6256C73.6121 47.1304 66.6834 51.9291 66.6834 51.9291L57.0839 39.9199Z" fill="#37474F"/>
<path opacity="0.15" d="M60.1399 41.4356C59.5052 41.4356 58.9097 41.4745 58.3569 41.51L66.0309 51.0968H67.8139C69.8037 49.5279 73.794 46.0006 74.3146 42.6362C74.8281 39.3319 73.9937 34.728 73.5122 32.5039C73.7868 35.0609 68.0278 41.2691 60.1399 41.4356Z" fill="black"/>
<path d="M94.7011 15.5224C92.205 15.062 91.046 16.8505 90.126 18.3273C89.206 19.8041 87.6655 22.5134 86.9773 22.9702C86.2891 23.4271 85.9075 22.9702 84.9269 23.7033C83.9462 24.4364 83.2295 25.8282 83.5326 26.3347L84.2458 27.5671C83.8346 27.5224 83.4185 27.5744 83.0314 27.719C82.6442 27.8636 82.2967 28.0966 82.017 28.3994C80.9473 29.4618 81.5035 29.6389 82.1062 30.2409C82.7088 30.843 84.1245 33.5629 85.5438 34.303C85.5438 34.303 89.3665 33.1662 92.1372 28.8597C94.908 24.5533 94.7011 15.5224 94.7011 15.5224Z" fill="url(#paint0_linear_326_5612)"/>
<path d="M86.3319 34.8732C86.1856 34.8474 86.0464 34.7916 85.9231 34.7094C85.7998 34.6272 85.695 34.5204 85.6155 34.3958C85.536 34.2712 85.4835 34.1316 85.4613 33.9857C85.4392 33.8399 85.4478 33.691 85.4867 33.5487C85.9091 32.2207 86.5437 30.9688 87.366 29.8407C88.3252 28.4879 90.1225 25.9451 90.4256 24.5533C90.7287 23.1614 91.3813 19.2622 92.4475 17.6296C93.5137 15.997 94.6085 15.0549 96.0134 15.5826C97.4184 16.1103 92.9824 26.5613 91.6808 28.332C90.3792 30.1028 86.3319 34.8732 86.3319 34.8732Z" fill="#37474F"/>
<path d="M87.1519 34.6466C90.6643 32.7873 91.8197 30.9811 92.8574 28.626C93.8951 26.2709 96.32 24.1 96.9476 21.9857C97.5752 19.8714 97.6394 14.4494 95.2252 15.7633C92.8111 17.0772 92.3083 21.9255 91.2492 24.7268C90.1901 27.5282 83.7072 36.4775 87.1519 34.6466Z" fill="#263238"/>
<path d="M66.0416 40.3731C67.6463 40.1287 70.7308 40.7875 73.5301 44.6689C76.5362 48.8373 77.096 56.1115 75.2097 56.7101C75.2097 56.7101 70.8378 56.2001 67.8353 54.6383C64.8327 53.0765 59.7869 42.5263 66.0416 40.3731Z" fill="#263238"/>
<path d="M117.32 75.0799C112.663 73.2631 108.851 70.1395 105.552 66.6476C102.899 63.0706 91.531 47.7536 89.559 45.5969C88.8458 44.8319 87.1556 42.8628 84.8127 42.3705C76.5183 40.5998 61.1598 40.8619 61.1598 40.8619L55.2545 39.8738L43.4869 50.8737C45.1094 52.5913 47.1455 54.0894 50.1231 55.6299C53.1007 57.1705 56.3208 58.2896 60.6641 57.9248C69.3579 57.1953 74.5713 54.7552 79.2249 53.675C80.5728 53.3634 81.9707 53.0765 83.0298 55.2722C84.0888 57.468 84.1744 58.5694 87.3089 60.9032C91.3277 63.8994 97.964 67.2496 100.86 70.8195C101.336 71.6946 101.621 72.6602 101.694 73.6527C101.969 77.4173 105.149 76.6771 107.713 78.3133C109.111 79.2057 110.149 80.2894 111.832 80.6578C113.364 80.9709 114.948 80.9418 116.468 80.5728C117.837 80.2505 119.798 79.2695 120.472 77.945C121.357 76.1813 118.661 75.6005 117.32 75.0799Z" fill="#FFEDE5"/>
<path d="M117.32 75.0799C112.663 73.2631 108.851 70.1395 105.552 66.6476C102.899 63.0706 91.531 47.7536 89.559 45.5969C88.8458 44.8319 87.1556 42.8628 84.8127 42.3705C76.5183 40.5998 61.1598 40.8619 61.1598 40.8619L55.2545 39.8738L43.4869 50.8737C45.1094 52.5913 47.1455 54.0894 50.1231 55.6299C53.1007 57.1705 56.3208 58.2896 60.6641 57.9248C69.3579 57.1953 74.5713 54.7552 79.2249 53.675C80.5728 53.3634 81.9707 53.0765 83.0298 55.2722C84.0888 57.468 84.1744 58.5694 87.3089 60.9032C91.3277 63.8994 97.964 67.2496 100.86 70.8195C101.336 71.6946 101.621 72.6602 101.694 73.6527C101.969 77.4173 105.149 76.6771 107.713 78.3133C109.111 79.2057 110.149 80.2894 111.832 80.6578C113.364 80.9709 114.948 80.9418 116.468 80.5728C117.837 80.2505 119.798 79.2695 120.472 77.945C121.357 76.1813 118.661 75.6005 117.32 75.0799Z" fill="#FFEDE5"/>
<path d="M87.0414 59.1183C86.1586 58.1464 85.4883 57.0032 85.073 55.761C84.754 54.7226 84.3435 53.7141 83.8464 52.7471C82.3986 50.2681 72.7919 53.4307 68.5377 54.7268C68.2988 55.081 67.3003 56.1435 66.9437 57.0288C72.0965 55.9841 75.8051 54.4648 79.2177 53.6715C80.5657 53.3598 81.9635 53.073 83.0226 55.2687C84.0817 57.4644 84.1673 58.5658 87.3018 60.8997C88.935 62.118 90.9997 63.3787 93.0715 64.721C90.7572 62.9361 89.0134 61.1476 87.0414 59.1183Z" fill="#F28F8F"/>
<path d="M56.1674 39.8738C56.1674 39.8738 64.608 40.2846 66.0415 40.3873C66.0415 40.3873 62.8643 41.2373 66.7298 48.9967C70.5953 56.7561 75.2132 56.7136 75.2132 56.7136C69.151 58.6402 66.0023 60.8041 58.2749 59.901C49.064 58.58 43.4797 51.7307 43.4797 51.7307L56.1674 39.8738Z" fill="#455A64"/>
<path opacity="0.15" d="M75.1918 56.7137C75.1217 56.7182 75.0514 56.7182 74.9814 56.7137C74.2932 56.6358 72.2463 56.1896 69.9534 53.7636C68.1333 54.2458 66.2866 54.623 64.4226 54.8934C57.5332 55.8956 52.3661 54.688 44.6672 50.6117L43.4797 51.7237C46.5351 55.1457 50.4546 57.696 54.8337 59.1113C55.1012 59.1928 55.3758 59.2742 55.6539 59.3486C55.9142 59.4159 56.1781 59.4832 56.442 59.5434L56.5133 59.5611C56.7558 59.6177 57.0054 59.6673 57.255 59.7169L57.387 59.7417C57.6794 59.7984 57.9718 59.8479 58.2713 59.8904C58.7563 59.9471 59.2199 59.9896 59.6692 60.025C60.1185 60.0604 60.55 60.0781 60.9707 60.0923H61.5877C61.7909 60.0923 61.9906 60.0923 62.1867 60.0923C62.7751 60.0923 63.335 60.0463 63.8734 59.9931C64.23 59.9577 64.5795 59.9152 64.9218 59.8656C65.7463 59.7416 66.563 59.5713 67.3681 59.3557C67.6819 59.2707 67.9921 59.1821 68.2988 59.0865C69.0726 58.8528 69.8357 58.5907 70.6202 58.3074L71.5723 57.9532C72.6992 57.5424 73.8831 57.1104 75.2096 56.6889L75.1918 56.7137Z" fill="black"/>
<path d="M27.9428 29.3096C24.5123 30.4924 21.2709 32.5607 24.0202 38.6131C27.9428 47.3535 45.7226 57.0573 54.8515 59.1184C50.2157 52.1523 54.0741 44.7682 57.1016 39.9199L56.285 33.9985C56.285 33.9985 53.5463 32.6917 49.0105 29.2104C44.4746 25.7291 42.5917 24.7835 35.8414 26.8234C31.2021 28.2259 27.9428 29.3096 27.9428 29.3096Z" fill="url(#paint1_linear_326_5612)"/>
<path opacity="0.05" d="M41.8394 49.064C32.5037 43.7518 29.5689 39.0203 25.9067 34.4766L23.5104 37.3806C23.5746 37.5683 23.6459 37.7595 23.7243 37.9579C23.723 37.9684 23.723 37.9792 23.7243 37.9897C23.8028 38.1916 23.8919 38.4005 23.9882 38.613C25.7284 42.4379 30.0967 46.4468 35.2317 49.9352C35.9449 50.431 36.7151 50.9162 37.4711 51.3872C37.8527 51.6245 38.2342 51.8583 38.6193 52.0955C41.2308 53.6484 43.9339 55.0439 46.7141 56.2745C49.3224 57.4704 52.0387 58.419 54.8266 59.1077C53.8112 57.609 53.1326 55.9107 52.8368 54.1284C49.5918 53.158 46.1114 51.497 41.8394 49.064Z" fill="black"/>
<path d="M25.3682 30.4959C25.3682 30.4959 13.8537 24.3832 12.0315 23.5581L22.1089 17.6827L19.9694 12.1686C19.9694 12.1686 4.99234 17.456 2.13957 18.9754C0.645438 19.7793 0 20.4415 0 21.5819C0 23.4837 1.8222 25.9486 4.3469 28.0841C9.71366 32.6279 16.9953 36.8599 24.088 40.7273C25.7141 41.9243 27.4044 43.4294 27.4044 43.4294C29.2694 44.3573 31.9831 35.794 25.3682 30.4959Z" fill="#FFEDE5"/>
<path d="M36.1482 9.25037C35.4289 7.59209 34.0759 6.2855 32.3866 5.61802C30.6974 4.95053 28.8103 4.97684 27.1406 5.69115C25.4709 6.40547 24.1552 7.74927 23.4832 9.42694C22.8111 11.1046 22.8376 12.9787 23.5568 14.637C23.6032 14.7503 23.6602 14.853 23.7137 14.9593L21.9735 18.7204L19.4025 14.0137C19.4035 13.643 19.2658 13.2851 19.016 13.0095C18.7663 12.734 18.4223 12.5605 18.051 12.5227C17.8626 12.5068 17.673 12.529 17.4936 12.5881C17.3142 12.6472 17.1488 12.7419 17.0074 12.8664C16.8659 12.9909 16.7515 13.1427 16.671 13.3126C16.5905 13.4824 16.5456 13.6667 16.539 13.8543L18.5038 14.0243C18.0727 14.3083 17.7422 14.7196 17.5589 15.2001C17.0917 16.4113 18.7178 18.8797 20.8966 21.0471C20.8966 21.0471 23.9811 25.3713 24.73 25.9769C25.2125 26.3416 25.8174 26.5089 26.4203 26.4444L26.6057 17.9448C27.8582 18.6161 29.2901 18.8833 30.7025 18.7093C32.1149 18.5353 33.4377 17.9287 34.487 16.9738C35.5364 16.0189 36.2602 14.7631 36.5579 13.3809C36.8556 11.9987 36.7124 10.5587 36.1482 9.26099V9.25037Z" fill="#263238"/>
<path d="M23.4889 20.1866C23.2036 20.5797 22.3335 20.0804 21.6453 19.79C20.9571 19.4995 19.1135 19.4889 19.0421 21.4403C18.9708 23.3917 21.385 24.9818 22.7721 24.8366C25.1613 24.5922 24.9117 23.1154 24.9117 23.1154L28.4206 30.8324C32.4822 33.0423 40.042 29.5645 35.5061 27.3794L34.5041 25.088C35.3711 24.8567 36.2086 24.5275 37.0003 24.107C38.4267 23.2075 38.8938 21.5784 38.6406 19.712C38.2377 16.7195 37.5708 14.4387 34.6681 9.44168C31.4588 3.98068 24.6835 6.8068 22.0375 10.6422C19.3916 14.4777 23.4889 20.1866 23.4889 20.1866Z" fill="#FFEDE5"/>
<path d="M23.7707 20.8418C23.5781 20.9303 22.3122 20.0308 21.6311 19.8006C20.7075 19.4854 19.2062 13.6809 19.2062 13.6809C19.2062 13.6809 17.9795 12.6007 18.6535 10.6529C19.2062 9.05565 21.246 7.98612 22.6581 7.27782C25.2042 5.99934 28.0534 4.54378 29.3014 1.8664C29.4013 1.65391 29.5439 1.41309 29.7793 1.40955C29.8524 1.41602 29.9235 1.43689 29.9884 1.47095C30.0533 1.505 30.1107 1.55154 30.1573 1.60787C30.7452 2.26333 31.0767 3.10655 31.0916 3.98422C31.0916 4.06567 31.1165 4.16838 31.1985 4.19317C31.2806 4.21796 31.3412 4.15067 31.3911 4.09046C31.65 3.77553 31.8472 3.41515 31.9724 3.02801C32.1435 2.50033 33.0421 3.84256 33.1063 4.02672C33.3166 4.60934 33.4072 5.22789 33.3729 5.84586C33.3386 6.46384 33.1801 7.06874 32.9066 7.62489C32.3503 8.73338 31.2057 9.42043 30.1573 10.026C27.8216 11.3789 23.8277 12.668 23.2714 12.8203C22.5154 13.0292 22.6616 13.7836 23.0896 15.827C23.4818 17.6332 24.4161 20.5408 23.7707 20.8418Z" fill="#263238"/>
<path d="M34.5042 25.0881C34.5042 25.0881 30.332 25.9628 28.8486 25.853C27.9783 25.7903 27.1477 25.4667 26.4666 24.9252C26.9507 25.5495 27.5572 26.07 28.2495 26.4551C29.6189 27.1988 34.8965 26.0124 34.8965 26.0124L34.5042 25.0881Z" fill="#F28F8F"/>
<path d="M27.9856 14.3042L26.7447 15.6499C26.5659 15.4773 26.4612 15.2427 26.4526 14.9952C26.444 14.7477 26.532 14.5064 26.6983 14.3219C26.7808 14.2354 26.88 14.1661 26.9899 14.1183C27.0998 14.0704 27.2182 14.0449 27.3382 14.0433C27.4582 14.0416 27.5773 14.0639 27.6885 14.1087C27.7997 14.1535 27.9007 14.22 27.9856 14.3042Z" fill="#263238"/>
<path d="M31.9831 21.1783L33.8196 21.0933C33.8308 21.2132 33.8175 21.3342 33.7806 21.449C33.7436 21.5638 33.6837 21.67 33.6045 21.7612C33.5252 21.8525 33.4283 21.9269 33.3194 21.9801C33.2106 22.0333 33.092 22.0641 32.9709 22.0707C32.722 22.0777 32.4801 21.9886 32.2959 21.8222C32.1117 21.6558 31.9996 21.425 31.9831 21.1783Z" fill="#F28F8F"/>
<path d="M35.5383 12.1686L33.7554 11.7153C33.7796 11.5973 33.8277 11.4855 33.8968 11.3866C33.9658 11.2877 34.0544 11.2037 34.1571 11.1398C34.2598 11.0759 34.3745 11.0334 34.4942 11.0148C34.614 10.9962 34.7362 11.002 34.8537 11.0318C35.0921 11.0991 35.2956 11.2542 35.4228 11.4654C35.5501 11.6767 35.5914 11.9281 35.5383 12.1686Z" fill="#263238"/>
<path d="M31.7335 14.9417L32.9494 19.2871L35.089 17.998L31.7335 14.9417Z" fill="#F28F8F"/>
<path d="M28.3493 16.8895C28.35 17.0462 28.3975 17.1993 28.4857 17.3293C28.5739 17.4592 28.6989 17.5604 28.8449 17.6199C28.9909 17.6794 29.1514 17.6946 29.3061 17.6636C29.4608 17.6326 29.6028 17.5567 29.7142 17.4456C29.8255 17.3346 29.9012 17.1932 29.9318 17.0394C29.9623 16.8856 29.9463 16.7263 29.8857 16.5816C29.8252 16.4368 29.7228 16.3131 29.5915 16.2261C29.4602 16.1391 29.3059 16.0927 29.1481 16.0927C29.0429 16.0927 28.9387 16.1133 28.8416 16.1534C28.7444 16.1935 28.6562 16.2522 28.582 16.3263C28.5078 16.4003 28.449 16.4882 28.4091 16.5848C28.3692 16.6815 28.3488 16.785 28.3493 16.8895Z" fill="#263238"/>
<path d="M34.1298 14.6406C34.1291 14.7929 34.1739 14.9419 34.2587 15.0689C34.3435 15.1958 34.4643 15.2948 34.6058 15.3534C34.7473 15.4121 34.9032 15.4276 35.0537 15.398C35.2041 15.3685 35.3423 15.2952 35.4507 15.1875C35.5592 15.0798 35.633 14.9426 35.6627 14.7932C35.6924 14.6438 35.6768 14.489 35.6178 14.3484C35.5588 14.2078 35.4591 14.0878 35.3313 14.0037C35.2035 13.9195 35.0534 13.8749 34.9 13.8756C34.696 13.8765 34.5007 13.9574 34.3564 14.1007C34.2122 14.244 34.1307 14.438 34.1298 14.6406Z" fill="#263238"/>
<path d="M101.23 74.4425C100.927 74.6479 101.398 75.9441 101.673 76.2628C102.245 76.815 102.951 77.2104 103.723 77.4103C105.127 77.8373 106.439 78.5194 107.592 79.4219C109.014 80.5655 110.669 81.3906 112.442 81.8407C114.546 82.3046 116.978 81.7132 119.099 80.4631C121.325 79.1562 121.118 77.9026 120.815 77.0668L101.23 74.4425Z" fill="#37474F"/>
<path d="M106.044 67.1682C106.758 67.919 110.637 71.7297 113.615 72.7C115.986 73.4721 119.071 74.2087 120.422 75.643C121.827 77.1376 119.734 79.05 116.856 80.1478C113.854 81.2882 111.814 80.3674 109.821 79.3722C108.419 78.6639 106.355 77.2473 105.317 76.6772C104.279 76.107 102.357 75.7953 101.555 74.9489C101.113 74.4814 100.795 73.1781 100.603 72.0342C100.428 70.9718 99.722 70.012 100.082 69.9554L100.667 70.5893C103.377 71.0851 106.201 68.599 106.044 67.1682Z" fill="url(#paint2_linear_326_5612)"/>
<path d="M12.0316 23.5581C10.3227 24.4749 8.47722 25.1146 6.565 25.4528C6.565 25.4528 9.5925 26.2071 13.1941 24.1354L12.0316 23.5581Z" fill="#F28F8F"/>
</g>
<defs>
<linearGradient id="paint0_linear_326_5612" x1="94.7046" y1="34.303" x2="76.9356" y2="33.3337" gradientUnits="userSpaceOnUse">
<stop stop-color="#C150F6"/>
<stop offset="1" stop-color="#EEA4CE"/>
</linearGradient>
<linearGradient id="paint1_linear_326_5612" x1="57.1016" y1="59.1184" x2="11.6484" y2="55.5217" gradientUnits="userSpaceOnUse">
<stop stop-color="#C150F6"/>
<stop offset="1" stop-color="#EEA4CE"/>
</linearGradient>
<linearGradient id="paint2_linear_326_5612" x1="120.871" y1="80.6748" x2="93.2581" y2="77.3702" gradientUnits="userSpaceOnUse">
<stop stop-color="#C150F6"/>
<stop offset="1" stop-color="#EEA4CE"/>
</linearGradient>
<clipPath id="clip0_326_5612">
<rect width="121" height="82" fill="white"/>
</clipPath>
</defs>
</svg>
