<svg width="73" height="90" viewBox="0 0 73 90" fill="none" xmlns="http://www.w3.org/2000/svg">
<g clip-path="url(#clip0_326_5617)">
<g opacity="0.3">
<path opacity="0.3" d="M18.3032 55.055H18.2589L16.556 54.5601C16.4975 54.5419 16.4484 54.501 16.4192 54.4463C16.3899 54.3915 16.3829 54.3273 16.3995 54.2673C16.4161 54.2072 16.4551 54.1563 16.5082 54.1253C16.5612 54.0943 16.624 54.0857 16.6831 54.1014L18.3742 54.5903C18.4278 54.6082 18.4732 54.6454 18.5021 54.6949C18.531 54.7443 18.5413 54.8028 18.5312 54.8595C18.5211 54.9162 18.4913 54.9672 18.4472 55.0031C18.4031 55.0391 18.3478 55.0575 18.2914 55.055H18.3032Z" fill="black"/>
<path opacity="0.3" d="M16.556 56.3949C16.5078 56.3904 16.4621 56.3709 16.4251 56.3391C16.3881 56.3072 16.3615 56.2646 16.349 56.2168C16.3397 56.1855 16.3368 56.1526 16.3405 56.1201C16.3442 56.0876 16.3544 56.0562 16.3705 56.0279C16.3865 55.9996 16.4082 55.975 16.434 55.9555C16.4598 55.9361 16.4892 55.9224 16.5205 55.9151L18.2234 55.4745C18.2825 55.4615 18.3442 55.4723 18.3956 55.5048C18.447 55.5373 18.4841 55.5888 18.499 55.6486C18.514 55.7084 18.5056 55.7718 18.4757 55.8254C18.4458 55.8791 18.3967 55.9188 18.3387 55.9362L16.6328 56.3768C16.6084 56.3873 16.5824 56.3934 16.556 56.3949Z" fill="black"/>
<path opacity="0.3" d="M17.4252 58.0003C17.3691 57.9946 17.3168 57.969 17.2774 57.9279C17.2342 57.8832 17.21 57.8231 17.21 57.7604C17.21 57.6977 17.2342 57.6375 17.2774 57.5929L18.5368 56.3405C18.5582 56.3164 18.5843 56.2971 18.6133 56.2836C18.6424 56.2702 18.6738 56.263 18.7057 56.2624C18.7375 56.2619 18.7692 56.268 18.7987 56.2804C18.8282 56.2928 18.8549 56.3112 18.8771 56.3345C18.8993 56.3578 18.9167 56.3855 18.928 56.416C18.9394 56.4464 18.9445 56.4788 18.9431 56.5113C18.9417 56.5439 18.9337 56.5757 18.9198 56.605C18.9059 56.6343 18.8862 56.6603 18.862 56.6815L17.6085 57.9399C17.5837 57.9624 17.5546 57.9794 17.523 57.9897C17.4915 58.0001 17.4582 58.0037 17.4252 58.0003Z" fill="black"/>
<path opacity="0.3" d="M18.9536 58.9509H18.9093C18.8791 58.9423 18.8509 58.9275 18.8264 58.9075C18.8019 58.8875 18.7816 58.8627 18.7667 58.8346C18.7518 58.8064 18.7426 58.7755 18.7397 58.7436C18.7367 58.7118 18.7401 58.6796 18.7496 58.6491L19.2167 56.923C19.2346 56.8633 19.2746 56.8132 19.3283 56.7834C19.3819 56.7535 19.4449 56.7463 19.5037 56.7633C19.5624 56.7802 19.6124 56.8201 19.6427 56.8742C19.6731 56.9283 19.6815 56.9924 19.6661 57.0527L19.1872 58.7789C19.1727 58.8301 19.1418 58.8748 19.0995 58.906C19.0571 58.9372 19.0058 58.953 18.9536 58.9509Z" fill="black"/>
</g>
<path d="M65.1389 32.1537L60.9024 34.6433L51.6251 36.0133C51.6251 36.0133 44.8519 25.6264 43.8142 23.9938C42.7765 22.3612 41.5614 21.3141 38.7499 21.3171L39.282 29.6037C39.3707 29.8723 44.9791 36.9247 48.6775 40.7692C49.9843 42.1242 50.7855 42.4712 52.8165 41.8918C58.0287 40.4161 64.3466 36.0435 64.8551 34.9511C65.538 33.5237 65.0886 32.1838 65.1389 32.1537Z" fill="#FFEDE5"/>
<path d="M63.3974 26.8998C63.9532 25.047 66.2238 23.5381 68.3317 24.1417C68.6656 24.2358 68.9857 24.3749 69.2837 24.5551C71.3532 25.7622 72.9999 28.7044 72.9999 31.1246C73.0067 31.5333 72.9508 31.9406 72.8343 32.3317C72.2815 34.1816 70.0169 35.7025 67.9001 35.0959C67.5667 35.0004 67.2467 34.8615 66.9481 34.6825C64.8963 33.4754 63.2319 30.5301 63.2319 28.1099C63.2259 27.7003 63.2817 27.2922 63.3974 26.8998Z" fill="#455A64"/>
<path d="M66.9511 34.6644C64.8993 33.4573 63.2349 30.5121 63.2349 28.0919C63.2349 25.6717 64.8993 24.6939 66.9511 25.901C69.0028 27.1081 70.6584 30.0504 70.6584 32.4706C70.6584 34.8908 69.0028 35.8715 66.9511 34.6644Z" fill="#37474F"/>
<path d="M66.9511 28.5837C66.1617 28.119 65.5201 28.4962 65.5201 29.4257C65.547 29.9323 65.6906 30.4254 65.9392 30.8648C66.1878 31.3042 66.5345 31.6776 66.9511 31.9545C67.7404 32.4192 68.379 32.042 68.379 31.1126C68.3527 30.6061 68.2097 30.1131 67.9616 29.6737C67.7134 29.2343 67.3672 28.8608 66.9511 28.5837Z" fill="#455A64"/>
<path d="M66.4603 29.9809C66.4698 30.1545 66.5192 30.3233 66.6044 30.4738C66.6897 30.6242 66.8085 30.7521 66.9511 30.847C66.998 30.8815 67.0524 30.9036 67.1096 30.9115C67.1669 30.9194 67.2251 30.9128 67.2793 30.8923L67.3147 30.8711C67.357 30.8342 67.3903 30.7876 67.4118 30.7353C67.4334 30.6829 67.4426 30.6261 67.4389 30.5694C67.4295 30.3962 67.3805 30.2276 67.2958 30.0772C67.2111 29.9268 67.093 29.7987 66.9511 29.7033C66.9042 29.6688 66.8498 29.6467 66.7926 29.6388C66.7353 29.6309 66.6771 29.6375 66.6229 29.658L66.5875 29.6792C66.5445 29.7157 66.5105 29.762 66.4884 29.8145C66.4664 29.8669 66.4567 29.924 66.4603 29.9809Z" fill="#37474F"/>
<path d="M58.6111 34.6071C58.6202 34.7803 58.6691 34.949 58.7539 35.0994C58.8386 35.2499 58.9568 35.3779 59.0989 35.4731C59.1624 35.515 59.2361 35.538 59.3117 35.5395C59.3692 35.5384 59.4253 35.5217 59.4743 35.4912L67.2793 30.8923L67.3148 30.8712C67.357 30.8342 67.3903 30.7876 67.4118 30.7353C67.4334 30.6829 67.4427 30.6261 67.4389 30.5694C67.4296 30.3962 67.3805 30.2276 67.2958 30.0772C67.2111 29.9268 67.0931 29.7987 66.9511 29.7033C66.9043 29.6688 66.8498 29.6467 66.7926 29.6388C66.7354 29.6309 66.6771 29.6375 66.623 29.658L66.5875 29.6792L58.7825 34.2781C58.7265 34.3109 58.6807 34.3592 58.6504 34.4174C58.62 34.4756 58.6064 34.5413 58.6111 34.6071Z" fill="#FAFAFA"/>
<path d="M50.951 34.2359C51.5038 32.386 53.7684 30.856 55.8852 31.4626C56.2194 31.5586 56.5403 31.6975 56.8402 31.876C58.8919 33.0831 60.5564 36.0284 60.5564 38.4486C60.5614 38.8572 60.5056 39.2642 60.3908 39.6557C59.835 41.5055 57.5733 43.0264 55.4565 42.4229C55.1233 42.3268 54.8034 42.1879 54.5046 42.0095C52.4528 40.8024 50.7883 37.8571 50.7883 35.4399C50.7815 35.0324 50.8364 34.6263 50.951 34.2359Z" fill="#455A64"/>
<path d="M54.5016 41.9974C52.4499 40.7904 50.7854 37.8451 50.7854 35.4279C50.7854 33.0107 52.4499 32.0269 54.5016 33.234C56.5534 34.4411 58.2178 37.3864 58.2178 39.8066C58.2178 42.2268 56.5563 43.2075 54.5016 41.9974Z" fill="#37474F"/>
<path d="M54.5016 35.9107C53.7123 35.443 53.0737 35.8202 53.0737 36.7527C53.1004 37.2586 53.2437 37.751 53.4918 38.1899C53.7399 38.6287 54.0858 39.0017 54.5016 39.2785C55.291 39.7432 55.9325 39.366 55.9325 38.4365C55.9052 37.9304 55.7614 37.4379 55.5128 36.9991C55.2642 36.5602 54.9178 36.1874 54.5016 35.9107Z" fill="#455A64"/>
<path d="M54.0137 37.314C54.0229 37.4872 54.0718 37.6559 54.1565 37.8063C54.2413 37.9568 54.3595 38.0848 54.5016 38.18C54.5484 38.2145 54.6029 38.2367 54.6601 38.2446C54.7173 38.2525 54.7756 38.2458 54.8297 38.2253C54.8428 38.2208 54.8549 38.2136 54.8652 38.2042C54.908 38.1675 54.9418 38.1211 54.9639 38.0687C54.986 38.0163 54.9957 37.9594 54.9923 37.9024C54.9826 37.7289 54.9331 37.5602 54.8479 37.4098C54.7627 37.2593 54.644 37.1314 54.5016 37.0363C54.4548 37.0029 54.4007 36.9815 54.3441 36.9742C54.2874 36.9668 54.2298 36.9737 54.1763 36.9941L54.1409 37.0152C54.0979 37.0511 54.064 37.0969 54.0419 37.1489C54.0198 37.2008 54.0101 37.2574 54.0137 37.314Z" fill="#37474F"/>
<path d="M52.8313 38.0231C52.8397 38.1965 52.8883 38.3654 52.9731 38.516C53.0579 38.6666 53.1765 38.7944 53.3191 38.8892C53.3826 38.931 53.4563 38.954 53.532 38.9555C53.5893 38.9541 53.6454 38.9375 53.6946 38.9073L54.8298 38.2373C54.8429 38.2328 54.855 38.2256 54.8653 38.2162C54.9081 38.1795 54.9419 38.1331 54.964 38.0807C54.9861 38.0283 54.9958 37.9714 54.9924 37.9144C54.9827 37.741 54.9332 37.5722 54.848 37.4218C54.7628 37.2714 54.6441 37.1435 54.5017 37.0484C54.4549 37.0149 54.4008 36.9936 54.3442 36.9862C54.2875 36.9789 54.2299 36.9857 54.1765 37.0061L54.141 37.0272L53.0027 37.6942C52.9467 37.7269 52.9009 37.7752 52.8706 37.8334C52.8402 37.8916 52.8266 37.9573 52.8313 38.0231Z" fill="#FAFAFA"/>
<path d="M52.8313 38.0231C52.84 38.1969 52.8887 38.3662 52.9734 38.5172C53.0582 38.6682 53.1766 38.7967 53.3191 38.8922C53.3664 38.9257 53.421 38.947 53.4781 38.9544C53.5352 38.9617 53.5933 38.9549 53.6473 38.9345L53.6827 38.9133C53.7259 38.877 53.76 38.8306 53.7821 38.7782C53.8042 38.7257 53.8137 38.6686 53.8099 38.6116C53.7999 38.4377 53.7504 38.2686 53.6652 38.1178C53.58 37.9669 53.4615 37.8384 53.3191 37.7425C53.2718 37.709 53.2172 37.6877 53.1601 37.6803C53.103 37.6729 53.0449 37.6798 52.9909 37.7002L52.9555 37.7213C52.913 37.7582 52.8796 37.8047 52.8581 37.8571C52.8365 37.9095 52.8273 37.9664 52.8313 38.0231Z" fill="#E0E0E0"/>
<path d="M62.4308 37.0755C64.2253 35.6783 65.946 35.6874 65.6355 32.2713C65.3724 30.7625 65.0058 30.6538 63.5661 30.0805C62.9334 29.83 62.0878 29.6399 61.5823 30.2314C61.5268 30.3057 61.4655 30.3753 61.399 30.4396C61.2499 30.5366 61.0788 30.5927 60.9023 30.6025C60.5652 30.6193 60.2448 30.7572 59.9977 30.9918C59.8291 31.188 59.7641 31.4566 59.5985 31.6527C59.4395 31.8064 59.2684 31.9467 59.0871 32.0722C58.9571 32.1872 58.8523 32.3289 58.7795 32.488C58.7067 32.6471 58.6674 32.82 58.6643 32.9956C58.6762 33.1963 58.7311 33.3919 58.8251 33.5687C58.9191 33.7454 59.0499 33.899 59.2083 34.0186L60.113 33.4875C60.4825 33.2279 61.2453 34.1544 60.9171 34.6433C60.3938 35.4218 62.4308 37.0755 62.4308 37.0755Z" fill="#FFEDE5"/>
<path d="M41.5289 43.9438C42.1025 41.5779 42.268 35.6663 42.268 35.6663L25.4814 36.1793L26.395 39.9122C26.5457 40.7537 26.6258 41.6067 26.6344 42.4621C26.6344 42.4621 28.2634 45.5432 33.0942 46.0834C36.0625 46.3722 39.0384 45.6173 41.5289 43.9438Z" fill="#FFEDE5"/>
<path d="M42.2768 35.6662C42.2975 35.8533 42.1793 37.6428 42.1793 37.6428C40.0329 39.4867 33.1474 40.4191 25.9189 37.9657L24.3875 31.9303C24.3875 31.9303 29.5849 29.6007 26.0727 21.7848L29.848 21.483L36.5502 21.311H38.7498C40.5584 23.1046 42.0869 25.1706 43.282 27.437C44.1601 29.1088 45.2776 31.5592 42.2768 35.6662Z" fill="#455A64"/>
<path d="M32.7779 35.7206C29.7535 34.9329 28.9966 33.0046 28.7808 31.5863C28.7808 31.5863 28.2102 35.7206 32.5325 36.6832C37.0913 37.6972 38.9657 34.0125 38.9657 34.0125C38.9657 34.0125 36.4261 36.6711 32.7779 35.7206Z" fill="#37474F"/>
<path d="M7.03334 81.7255C6.14641 82.3864 4.10353 82.5463 2.30306 81.6832C0.502602 80.8202 -0.24833 78.3638 0.0887024 76.4656C0.496689 74.151 1.61717 72.8866 1.90099 71.4924C2.18481 70.0983 1.90099 68.173 2.33263 66.9297C2.51055 66.4518 2.78762 66.0188 3.14482 65.6604C3.50203 65.3021 3.93093 65.0268 4.40212 64.8535C4.70253 64.735 5.02555 64.6883 5.34636 64.7171C5.66718 64.7459 5.97728 64.8493 6.25285 65.0195L6.785 65.3393L7.03334 81.7255Z" fill="#263238"/>
<path d="M9.1472 72.8987L7.74586 77.1898C7.74586 77.1898 8.63278 80.2498 8.13315 81.0646C7.397 82.2717 6.09913 82.4829 3.91433 81.8009C1.41615 81.0254 0.827826 78.7168 0.957908 76.9243C1.13529 74.3683 3.45017 72.446 3.18409 69.9836C3.05401 68.7765 3.21661 67.4276 3.86407 66.3895C4.5884 65.2307 5.77688 65.0134 7.00971 65.3906C8.06811 65.7165 8.99642 66.3955 9.89222 67.0323C10.1494 67.1993 10.3823 67.4025 10.584 67.6358C10.7445 67.8542 10.8647 68.1007 10.9388 68.3631C11.1009 68.8904 11.1493 69.4474 11.0807 69.9956C11.0157 70.5086 10.6934 70.8074 10.3948 71.2027L9.1472 72.8987Z" fill="url(#paint0_linear_326_5617)"/>
<path d="M15.1871 70.8678C15.1014 70.8346 10.8205 68.0402 10.3593 67.829C9.89811 67.6177 8.76284 67.319 7.66601 69.9112C6.88256 71.755 8.00895 72.437 8.00895 72.437L13.0349 75.4849L15.1871 70.8678Z" fill="#FFEDE5"/>
<path d="M7.74586 77.1899C6.84007 76.7278 5.83728 76.4988 4.82491 76.523C4.74974 76.5302 4.674 76.5184 4.60432 76.4887C4.53465 76.459 4.47318 76.4124 4.42531 76.3528C4.37744 76.2932 4.34463 76.2225 4.32977 76.147C4.3149 76.0714 4.31844 75.9933 4.34006 75.9194C4.36851 75.8315 4.42192 75.7541 4.4935 75.6972C4.56508 75.6402 4.65161 75.6063 4.74213 75.5996C5.41915 75.5453 7.06293 75.5241 8.15385 76.4415C8.44358 77.039 7.74586 77.1899 7.74586 77.1899Z" fill="url(#paint1_linear_326_5617)"/>
<path d="M8.26026 75.2283C7.37942 74.7192 6.38966 74.4384 5.37775 74.4105C5.30155 74.4144 5.2256 74.3989 5.15671 74.3654C5.08782 74.3319 5.02814 74.2815 4.98302 74.2187C4.93791 74.1559 4.90876 74.0827 4.89819 74.0056C4.88762 73.9284 4.89596 73.8498 4.92246 73.7768C4.95506 73.6902 5.01203 73.6153 5.08619 73.5616C5.16036 73.5079 5.24843 73.4778 5.33931 73.475C6.01929 73.4569 7.66306 73.5263 8.70668 74.498C8.96389 75.1167 8.26026 75.2283 8.26026 75.2283Z" fill="url(#paint2_linear_326_5617)"/>
<path opacity="0.3" d="M7.74586 77.1899C6.84007 76.7278 5.83728 76.4988 4.82491 76.523C4.74974 76.5302 4.674 76.5184 4.60432 76.4887C4.53465 76.459 4.47318 76.4124 4.42531 76.3528C4.37744 76.2932 4.34463 76.2225 4.32977 76.147C4.3149 76.0714 4.31844 75.9933 4.34006 75.9194C4.36851 75.8315 4.42192 75.7541 4.4935 75.6972C4.56508 75.6402 4.65161 75.6063 4.74213 75.5996C5.41915 75.5453 7.06293 75.5241 8.15385 76.4415C8.44358 77.039 7.74586 77.1899 7.74586 77.1899Z" fill="black"/>
<path opacity="0.3" d="M8.26026 75.2283C7.37942 74.7192 6.38966 74.4384 5.37775 74.4105C5.30155 74.4144 5.2256 74.3989 5.15671 74.3654C5.08782 74.3319 5.02814 74.2815 4.98302 74.2187C4.93791 74.1559 4.90876 74.0827 4.89819 74.0056C4.88762 73.9284 4.89596 73.8498 4.92246 73.7768C4.95506 73.6902 5.01203 73.6153 5.08619 73.5616C5.16036 73.5079 5.24843 73.4778 5.33931 73.475C6.01929 73.4569 7.66306 73.5263 8.70668 74.498C8.96389 75.1167 8.26026 75.2283 8.26026 75.2283Z" fill="black"/>
<path d="M51.8882 82.1902L57.4492 79.939C57.3546 78.4754 56.9999 76.526 57.3694 72.6965L51.0604 71.4713V77.9171L51.8882 82.1902Z" fill="#FFEDE5"/>
<path d="M67.7553 87.1754C67.9031 87.6324 67.8756 88.1295 67.6784 88.5666C67.4892 88.974 65.4049 90.172 62.5934 89.9789C60.5085 89.8298 58.5006 89.114 56.7781 87.9057C55.7079 87.1815 54.5903 87.0457 53.2008 86.9642C51.8113 86.8827 49.9783 86.1736 49.6738 85.5097C49.3693 84.8458 49.7211 83.699 49.7211 83.699L67.7553 87.1754Z" fill="#263238"/>
<path d="M56.4115 78.2189L56.6332 78.1706C56.7537 78.1376 56.8797 78.1314 57.0028 78.1525C57.1393 78.1955 57.2606 78.2784 57.3516 78.3909C57.6268 78.749 57.8665 79.1341 58.0671 79.5406C58.6584 80.5214 59.8941 81.3362 61.2452 82.0755C62.1647 82.5795 63.0634 82.9808 64.0124 83.4063C64.9615 83.8318 66.2623 84.1215 67.0191 84.6436C68.1219 85.401 68.2667 87.3082 67.0191 88.0596C65.9371 88.7114 63.0841 89.4146 60.0922 88.5485C58.4603 88.0777 56.6509 86.3003 54.5135 86.1343C53.1535 86.0257 50.5785 85.6364 49.7034 84.5832C49.3811 84.1155 49.8127 82.6307 50.1675 81.3512C50.5548 79.954 50.6967 77.4916 51.152 77.6153C51.152 77.6153 51.0278 77.9624 51.2052 78.1495C51.3826 78.3366 52.0064 78.7108 52.1897 78.8677C52.4962 79.1868 52.7437 79.56 52.9199 79.9691C52.9932 80.1539 53.1298 80.3051 53.3043 80.3946C53.5349 80.4821 53.7063 80.3343 53.8956 80.2407C54.1514 80.1239 54.4395 80.1036 54.7086 80.1834C54.6826 79.9062 54.6342 79.6316 54.5637 79.3626C54.5335 79.2776 54.5263 79.1858 54.543 79.097C54.5802 79.0142 54.641 78.9448 54.7174 78.8979C55.2294 78.5532 55.8065 78.3219 56.4115 78.2189Z" fill="url(#paint3_linear_326_5617)"/>
<path d="M59.974 81.3211C59.974 81.3211 59.7789 80.7869 58.9718 80.6361C58.3509 80.5184 57.257 80.9831 56.5771 81.5414C56.5131 81.5953 56.4629 81.6643 56.4309 81.7424C56.3989 81.8205 56.3859 81.9054 56.3932 81.9897C56.4005 82.0741 56.4277 82.1553 56.4727 82.2265C56.5176 82.2977 56.5788 82.3567 56.651 82.3984C56.7437 82.4525 56.851 82.4753 56.9572 82.4634C57.0634 82.4514 57.1632 82.4054 57.2422 82.332C57.9907 81.6476 58.9697 81.2853 59.974 81.3211Z" fill="url(#paint4_linear_326_5617)"/>
<path d="M61.8927 82.4165C61.7587 82.2236 61.5814 82.0663 61.3757 81.9576C61.17 81.849 60.9418 81.7921 60.7101 81.7919C60.7101 81.7919 59.0929 81.8402 58.0907 82.7907C58.0297 82.8431 57.9819 82.9098 57.9514 82.985C57.9209 83.0602 57.9086 83.1419 57.9156 83.223C57.9226 83.3041 57.9485 83.3823 57.9914 83.451C58.0342 83.5197 58.0926 83.5768 58.1617 83.6176C58.2494 83.6674 58.3503 83.6878 58.4501 83.6759C58.5498 83.6639 58.6433 83.6203 58.7175 83.5512C59.1302 83.1321 59.6296 82.8127 60.179 82.6164C60.7285 82.42 61.314 82.3517 61.8927 82.4165Z" fill="url(#paint5_linear_326_5617)"/>
<path d="M64.0124 83.4063C63.8581 83.2273 63.6679 83.0843 63.4547 82.9869C63.2415 82.8895 63.0102 82.8401 62.7766 82.842C62.7766 82.842 61.2689 82.8993 60.2696 83.8499C60.2078 83.9017 60.1592 83.968 60.1281 84.0432C60.097 84.1184 60.0842 84.2002 60.0909 84.2815C60.0976 84.3629 60.1235 84.4414 60.1665 84.5102C60.2095 84.579 60.2682 84.6362 60.3376 84.6767C60.4259 84.7264 60.5272 84.7466 60.6274 84.7347C60.7275 84.7228 60.8215 84.6793 60.8964 84.6104C61.2881 84.176 61.7738 83.8409 62.3148 83.6319C62.8557 83.4228 63.437 83.3456 64.0124 83.4063Z" fill="url(#paint6_linear_326_5617)"/>
<path opacity="0.3" d="M59.974 81.3211C59.974 81.3211 59.7789 80.7869 58.9718 80.6361C58.3509 80.5184 57.257 80.9831 56.5771 81.5414C56.5131 81.5953 56.4629 81.6643 56.4309 81.7424C56.3989 81.8205 56.3859 81.9054 56.3932 81.9897C56.4005 82.0741 56.4277 82.1553 56.4727 82.2265C56.5176 82.2977 56.5788 82.3567 56.651 82.3984C56.7437 82.4525 56.851 82.4753 56.9572 82.4634C57.0634 82.4514 57.1632 82.4054 57.2422 82.332C57.9907 81.6476 58.9697 81.2853 59.974 81.3211Z" fill="black"/>
<path opacity="0.3" d="M61.8927 82.4165C61.7587 82.2236 61.5814 82.0663 61.3757 81.9576C61.17 81.849 60.9418 81.7921 60.7101 81.7919C60.7101 81.7919 59.0929 81.8402 58.0907 82.7907C58.0297 82.8431 57.9819 82.9098 57.9514 82.985C57.9209 83.0602 57.9086 83.1419 57.9156 83.223C57.9226 83.3041 57.9485 83.3823 57.9914 83.451C58.0342 83.5197 58.0926 83.5768 58.1617 83.6176C58.2494 83.6674 58.3503 83.6878 58.4501 83.6759C58.5498 83.6639 58.6433 83.6203 58.7175 83.5512C59.1302 83.1321 59.6296 82.8127 60.179 82.6164C60.7285 82.42 61.314 82.3517 61.8927 82.4165Z" fill="black"/>
<path opacity="0.3" d="M64.0124 83.4063C63.8581 83.2273 63.6679 83.0843 63.4547 82.9869C63.2415 82.8895 63.0102 82.8401 62.7766 82.842C62.7766 82.842 61.2689 82.8993 60.2696 83.8499C60.2078 83.9017 60.1592 83.968 60.1281 84.0432C60.097 84.1184 60.0842 84.2002 60.0909 84.2815C60.0976 84.3629 60.1235 84.4414 60.1665 84.5102C60.2095 84.579 60.2682 84.6362 60.3376 84.6767C60.4259 84.7264 60.5272 84.7466 60.6274 84.7347C60.7275 84.7228 60.8215 84.6793 60.8964 84.6104C61.2881 84.176 61.7738 83.8409 62.3148 83.6319C62.8557 83.4228 63.437 83.3456 64.0124 83.4063Z" fill="black"/>
<path d="M55.6901 49.8193C51.4625 48.8506 41.3663 46.696 41.3663 46.696L41.5289 43.9438C37.8777 45.8752 30.1821 45.329 26.6344 42.4622L26.0757 45.3803C24.7305 47.0241 23.5657 48.8131 22.6019 50.7156C21.7918 52.3542 20.4378 54.9102 21.7859 60.8641C22.5782 64.3616 23.6337 73.5686 23.6337 73.5686L13.2862 69.6758C13.2862 69.6758 12.3992 69.8297 11.6483 71.8093C11.2049 72.9802 11.057 74.1058 11.5064 74.6882C15.2906 77.7391 21.4222 82.7213 27.6189 85.5157C31.7579 87.1332 33.9575 83.5814 34.1585 82.2657C34.9361 77.2261 35.8319 61.0331 35.8319 61.0331L49.6679 60.5835C49.2097 63.2571 51.0722 73.7044 51.0722 73.7044C51.0722 73.7044 54.478 75.2133 57.2984 73.6682C57.2984 73.6682 59.1846 61.6457 59.3679 57.6352C59.5542 53.1629 59.7789 50.7578 55.6901 49.8193Z" fill="url(#paint7_linear_326_5617)"/>
<path opacity="0.15" d="M49.668 60.5834C49.668 59.8622 50.1381 57.3424 51.7375 55.9995C51.7375 55.9995 49.5438 56.4009 48.5386 60.6196L49.668 60.5834Z" fill="black"/>
<path opacity="0.15" d="M23.6336 73.5686C23.6336 73.5686 23.9293 77.5429 24.6743 79.4803C24.6743 79.4803 22.8088 76.0401 22.6048 73.1763L23.6336 73.5686Z" fill="black"/>
<path opacity="0.15" d="M41.3633 46.696L41.5259 43.9468C37.8747 45.8752 30.1821 45.3289 26.6374 42.4651L26.0786 45.3802C26.1082 45.4074 28.3846 47.8095 34.3034 48.1203C40.2221 48.4311 41.3633 46.696 41.3633 46.696Z" fill="black"/>
<path opacity="0.15" d="M35.8437 61.0331C35.7947 59.5394 35.4486 58.0714 34.8266 56.7185C34.2045 55.3655 33.3194 54.1558 32.225 53.1629C32.225 53.1629 35.4061 54.6718 36.4705 59.4488C36.4705 59.4488 38.8356 58.3232 40.0714 54.9494C40.0714 54.9494 39.693 58.3232 37.789 60.2424L43.5274 60.7826L35.8437 61.0331Z" fill="black"/>
<path d="M33.9989 1.20688e-05C32.7842 -0.00197107 31.5811 0.240466 30.4583 0.713459C29.3356 1.18645 28.3151 1.88072 27.4554 2.75657C26.5957 3.63241 25.9136 4.67265 25.4481 5.81779C24.9825 6.96293 24.7427 8.19052 24.7423 9.43034C24.7423 10.6704 24.9818 11.8983 25.4472 13.0438C25.9126 14.1893 26.5946 15.2299 27.4544 16.1061C28.3141 16.9822 29.3347 17.6768 30.4577 18.1499C31.5806 18.6231 32.784 18.8657 33.9989 18.8637C36.4471 18.8597 38.7937 17.864 40.5232 16.0952C42.2527 14.3265 43.2237 11.9293 43.2229 9.43034C43.2229 6.93187 42.2516 4.53551 40.5222 2.76742C38.7927 0.999323 36.4466 0.00400961 33.9989 1.20688e-05Z" fill="#263238"/>
<path d="M24.3462 5.73365C24.6803 5.71803 25.0152 5.73725 25.3455 5.79098C25.4574 5.7985 25.5627 5.84793 25.6411 5.9298C25.6866 5.99751 25.7123 6.07707 25.715 6.15914C25.7913 6.68306 25.7437 7.21801 25.5761 7.7193C25.446 8.06935 25.041 8.24739 24.7837 8.50088C23.7845 9.49069 23.7047 11.1293 24.0979 12.4903C24.4911 13.8513 25.2804 15.0644 25.7919 16.3801C26.3033 17.6958 26.5753 19.2801 25.851 20.6049C25.5702 21.1119 25.0587 21.5102 25.1208 22.1137C25.1917 22.8531 25.8244 23.5592 26.0964 24.2261C26.395 25.0162 26.4965 25.8696 26.392 26.7097C26.3172 27.7542 25.9372 28.7518 25.3011 29.5735C24.8149 30.1519 24.1872 30.5884 23.482 30.8386C22.7767 31.0888 22.0191 31.1437 21.2863 30.9979C20.9773 30.9428 20.6849 30.8158 20.4319 30.6267C19.9973 30.2706 19.8229 29.6882 19.5864 29.1722C18.8266 27.5034 17.2212 26.2902 16.7334 24.5189C16.2042 22.6328 17.0852 20.6713 18.1673 19.0689C18.6728 18.3205 19.2375 17.5872 19.4858 16.7121C19.8199 15.5321 19.5272 14.2768 19.4504 13.0486C19.377 11.8489 19.5121 10.6454 19.8495 9.49371C20.0919 8.66082 20.4674 7.70119 21.103 7.10368C21.995 6.27586 23.1419 5.79138 24.3462 5.73365Z" fill="#263238"/>
<path d="M39.7757 4.31531C40.7868 4.93394 42.0314 7.54425 41.8866 13.0063C41.7624 17.6355 40.2872 18.7731 39.548 19.1021C38.8089 19.431 37.3839 19.2197 36.0003 18.9783V21.7576C36.0003 21.7576 37.9043 24.033 37.7742 25.3095C37.6441 26.586 35.007 26.8726 33.2213 25.6112C31.4356 24.3498 29.9367 21.9266 29.9367 21.9266L29.9958 15.5351C29.9958 15.5351 29.171 16.3499 27.7904 15.1127C26.658 14.0897 26.2796 12.3726 27.1725 11.4673C28.0653 10.562 29.7061 10.8064 30.3329 12.1221C30.3329 12.1221 32.5384 12.2126 35.4859 10.577C36.6326 9.95066 37.6185 9.0573 38.3638 7.96939C39.1091 6.88148 39.5928 5.62963 39.7757 4.31531Z" fill="#FFEDE5"/>
<path d="M36.8253 11.8234C36.8258 11.9378 36.7933 12.0498 36.7318 12.1454C36.6703 12.2411 36.5826 12.3162 36.4796 12.3613C36.3766 12.4063 36.2628 12.4195 36.1526 12.399C36.0423 12.3785 35.9404 12.3254 35.8595 12.2461C35.7787 12.1669 35.7225 12.0651 35.6979 11.9535C35.6734 11.8419 35.6816 11.7253 35.7215 11.6185C35.7615 11.5116 35.8314 11.419 35.9225 11.3524C36.0136 11.2858 36.122 11.2481 36.234 11.244C36.3868 11.2438 36.5337 11.3041 36.6439 11.4121C36.7542 11.5201 36.8191 11.6675 36.8253 11.8234Z" fill="#263238"/>
<g style="mix-blend-mode:multiply" opacity="0.5">
<g style="mix-blend-mode:multiply" opacity="0.5">
<path d="M36.9553 15.7494L38.2768 16.1839C38.2527 16.2745 38.211 16.3592 38.1541 16.4329C38.0973 16.5066 38.0264 16.5678 37.9458 16.6129C37.8652 16.658 37.7765 16.686 37.685 16.6952C37.5936 16.7045 37.5012 16.6948 37.4135 16.6668C37.2353 16.6047 37.0877 16.4742 37.0022 16.3029C36.9166 16.1316 36.8998 15.9331 36.9553 15.7494Z" fill="#F28F8F"/>
</g>
</g>
<path d="M41.5111 10.055L40.3611 9.23419C40.4093 9.1547 40.4729 9.08611 40.548 9.03265C40.6231 8.97919 40.7081 8.94199 40.7979 8.92333C40.8876 8.90467 40.9801 8.90496 41.0697 8.92417C41.1593 8.94337 41.2442 8.9811 41.319 9.03502C41.4717 9.14848 41.5765 9.31694 41.6122 9.50631C41.6479 9.69567 41.6118 9.8918 41.5111 10.055Z" fill="#263238"/>
<path d="M41.2391 11.419C41.2402 11.5335 41.2082 11.6458 41.1471 11.7419C41.086 11.8379 40.9984 11.9134 40.8955 11.959C40.7926 12.0045 40.6787 12.0181 40.5683 11.998C40.4578 11.9778 40.3556 11.9249 40.2745 11.8458C40.1933 11.7667 40.1368 11.665 40.1121 11.5533C40.0873 11.4416 40.0953 11.3249 40.1351 11.2178C40.175 11.1107 40.2449 11.018 40.3361 10.9513C40.4273 10.8846 40.5357 10.8468 40.6478 10.8426C40.8001 10.8424 40.9466 10.9023 41.0568 11.0097C41.1669 11.117 41.2323 11.2637 41.2391 11.419Z" fill="#263238"/>
<g style="mix-blend-mode:multiply" opacity="0.5">
<g style="mix-blend-mode:multiply" opacity="0.5">
<path d="M38.5488 11.075L38.6257 14.5816L40.435 14.0173L38.5488 11.075Z" fill="#F28F8F"/>
</g>
</g>
<g style="mix-blend-mode:multiply" opacity="0.5">
<g style="mix-blend-mode:multiply" opacity="0.5">
<path d="M36.0034 18.9784C34.5429 18.7792 31.5451 17.886 31.0839 16.6729C31.2696 17.2859 31.6349 17.8261 32.1304 18.2209C33.0233 19.0116 35.9974 19.9169 35.9974 19.9169L36.0034 18.9784Z" fill="#F28F8F"/>
</g>
</g>
<path d="M26.0727 21.7878C23.2109 21.9961 22.0313 22.3672 20.4378 25.9764C19.0039 29.2204 15.5744 37.6157 14.7171 39.4867C13.8597 41.3577 13.6971 42.1091 14.4214 44.0676C15.0127 45.6639 19.8435 54.8347 20.3727 56.1716C20.9019 57.5084 21.1355 58.8603 22.0372 60.4175C22.9389 61.9746 24.3639 63.4955 25.4903 63.8546C27.1607 64.3888 29.3336 63.6464 29.3957 62.6174C29.4578 61.5883 26.9448 59.8713 26.2619 57.5869C26.7164 57.8917 27.195 58.1571 27.6928 58.3805C28.3698 58.6642 29.1267 58.6008 29.3514 58.2085C29.5761 57.8162 28.899 57.5778 28.2959 56.9652C27.9352 56.6001 27.2967 55.7793 26.4807 55.055C25.9278 54.5661 25.0232 54.4213 24.6152 53.8841C24.3964 53.5975 23.403 51.1139 22.6551 48.9019C21.7327 46.1588 20.5176 42.5074 20.5176 42.5074L25.4903 31.9454C25.4903 31.9454 29.3898 27.9741 26.0727 21.7878Z" fill="#FFEDE5"/>
<path d="M20.3639 56.1715C20.3639 56.1715 21.508 53.8087 24.6063 53.8841L23.7874 52.0252C23.7874 52.0252 20.763 52.2425 19.4888 54.3337L20.3639 56.1715Z" fill="#37474F"/>
<path d="M20.0298 54.1648L20.695 55.1274C20.7431 55.1974 20.8046 55.2568 20.8757 55.302C20.9468 55.3472 21.0261 55.3773 21.1089 55.3906C21.1917 55.4038 21.2762 55.3999 21.3575 55.3791C21.4388 55.3582 21.5151 55.3209 21.5819 55.2693L22.7645 54.364C22.9019 54.2565 22.9941 54.0996 23.0221 53.9252C23.0501 53.7508 23.0119 53.5721 22.9152 53.4255L22.2973 52.496C22.2509 52.4243 22.1906 52.363 22.1201 52.3158C22.0496 52.2686 21.9705 52.2365 21.8875 52.2216C21.8046 52.2066 21.7195 52.209 21.6374 52.2287C21.5554 52.2484 21.4782 52.2849 21.4104 52.3361L20.1569 53.2414C20.0204 53.3469 19.9304 53.5032 19.9066 53.6763C19.8827 53.8494 19.927 54.025 20.0298 54.1648Z" fill="#263238"/>
<path d="M19.808 54.1406L20.4791 55.1033C20.5275 55.1729 20.5891 55.232 20.6603 55.277C20.7314 55.3219 20.8106 55.3519 20.8933 55.3651C20.9759 55.3783 21.0604 55.3745 21.1416 55.3539C21.2228 55.3333 21.2991 55.2963 21.3661 55.2451L22.5486 54.3398C22.686 54.2324 22.7782 54.0757 22.8068 53.9015C22.8353 53.7273 22.798 53.5485 22.7024 53.4013L22.0845 52.4718C22.0377 52.4004 21.9773 52.3394 21.9068 52.2925C21.8363 52.2456 21.7573 52.2137 21.6744 52.1987C21.5916 52.1838 21.5066 52.1861 21.4247 52.2056C21.3427 52.225 21.2654 52.2612 21.1975 52.3119L19.944 53.2323C19.8097 53.3356 19.7203 53.4885 19.6949 53.6582C19.6695 53.8279 19.7101 54.001 19.808 54.1406Z" fill="#455A64"/>
<path d="M22.5812 53.8238C22.5662 53.9432 22.5057 54.0516 22.4126 54.1256L21.2301 55.0309C21.189 55.0644 21.1413 55.0884 21.0903 55.1014C21.0393 55.1145 20.9861 55.1161 20.9344 55.1063C20.8837 55.0983 20.8351 55.0801 20.7915 55.0526C20.7478 55.0251 20.71 54.989 20.6802 54.9464L20.0061 53.9807C19.9492 53.9005 19.9239 53.8014 19.9352 53.7031C19.9392 53.6434 19.9561 53.5854 19.9847 53.5332C20.0134 53.4811 20.053 53.436 20.1007 53.4013L21.3543 52.496C21.3962 52.4643 21.4441 52.4417 21.495 52.4297C21.5458 52.4178 21.5986 52.4167 21.6499 52.4266C21.7005 52.4357 21.7489 52.4551 21.792 52.4836C21.8352 52.5121 21.8723 52.5492 21.9012 52.5926L22.5191 53.522C22.5771 53.6108 22.6022 53.7178 22.59 53.8238H22.5812Z" fill="url(#paint8_linear_326_5617)"/>
</g>
<defs>
<linearGradient id="paint0_linear_326_5617" x1="11.1109" y1="82.1859" x2="-2.49532" y2="81.5548" gradientUnits="userSpaceOnUse">
<stop stop-color="#C150F6"/>
<stop offset="1" stop-color="#EEA4CE"/>
</linearGradient>
<linearGradient id="paint1_linear_326_5617" x1="8.22428" y1="77.1899" x2="3.1681" y2="76.2423" gradientUnits="userSpaceOnUse">
<stop stop-color="#C150F6"/>
<stop offset="1" stop-color="#EEA4CE"/>
</linearGradient>
<linearGradient id="paint2_linear_326_5617" x1="8.76323" y1="75.2283" x2="3.72178" y2="74.3684" gradientUnits="userSpaceOnUse">
<stop stop-color="#C150F6"/>
<stop offset="1" stop-color="#EEA4CE"/>
</linearGradient>
<linearGradient id="paint3_linear_326_5617" x1="67.9013" y1="88.9515" x2="43.7274" y2="85.9311" gradientUnits="userSpaceOnUse">
<stop stop-color="#C150F6"/>
<stop offset="1" stop-color="#EEA4CE"/>
</linearGradient>
<linearGradient id="paint4_linear_326_5617" x1="59.974" y1="82.4665" x2="55.276" y2="81.762" gradientUnits="userSpaceOnUse">
<stop stop-color="#C150F6"/>
<stop offset="1" stop-color="#EEA4CE"/>
</linearGradient>
<linearGradient id="paint5_linear_326_5617" x1="61.8927" y1="83.6792" x2="56.6961" y2="82.8314" gradientUnits="userSpaceOnUse">
<stop stop-color="#C150F6"/>
<stop offset="1" stop-color="#EEA4CE"/>
</linearGradient>
<linearGradient id="paint6_linear_326_5617" x1="64.0124" y1="84.738" x2="58.8837" y2="83.9169" gradientUnits="userSpaceOnUse">
<stop stop-color="#C150F6"/>
<stop offset="1" stop-color="#EEA4CE"/>
</linearGradient>
<linearGradient id="paint7_linear_326_5617" x1="59.4502" y1="85.9299" x2="-4.72415" y2="80.4216" gradientUnits="userSpaceOnUse">
<stop stop-color="#C150F6"/>
<stop offset="1" stop-color="#EEA4CE"/>
</linearGradient>
<linearGradient id="paint8_linear_326_5617" x1="22.593" y1="55.1126" x2="19.0467" y2="54.8415" gradientUnits="userSpaceOnUse">
<stop stop-color="#C150F6"/>
<stop offset="1" stop-color="#EEA4CE"/>
</linearGradient>
<clipPath id="clip0_326_5617">
<rect width="73" height="90" fill="white"/>
</clipPath>
</defs>
</svg>
